<svg xmlns="http://www.w3.org/2000/svg" width="512" height="409.603" viewBox="0 0 512 409.603">
  <g id="school" transform="translate(0 0.004)">
    <path id="Caminho_1" data-name="Caminho 1" d="M288,166.4H268.8v-32a6.4,6.4,0,0,0-6.4-6.4H249.6a6.4,6.4,0,0,0-6.4,6.4v51.2a6.4,6.4,0,0,0,6.4,6.4H288a6.4,6.4,0,0,0,6.4-6.4V172.8A6.4,6.4,0,0,0,288,166.4ZM0,204.8V422.4a12.8,12.8,0,0,0,12.8,12.8h64v-256H25.6A25.6,25.6,0,0,0,0,204.8Zm486.4-25.6H435.2v256h64A12.8,12.8,0,0,0,512,422.4V204.8A25.6,25.6,0,0,0,486.4,179.2Z" transform="translate(0 -25.601)"/>
    <path id="Caminho_2" data-name="Caminho 2" d="M423.8,89.6,295.8,4.3a25.6,25.6,0,0,0-28.4,0l-128,85.3A25.6,25.6,0,0,0,128,110.927V409.6H230.4V294.4a12.8,12.8,0,0,1,12.8-12.8H320a12.8,12.8,0,0,1,12.8,12.8V409.6H435.2V110.935A25.6,25.6,0,0,0,423.8,89.6ZM281.6,204.8a64,64,0,1,1,64-64A64,64,0,0,1,281.6,204.8Z" transform="translate(-25.6 0)"/>
  </g>
</svg>
