<svg id="Grupo_1" data-name="Grupo 1" xmlns="http://www.w3.org/2000/svg" xmlns:xlink="http://www.w3.org/1999/xlink" width="1024" height="569" viewBox="0 0 1024 569">
  <defs>
    <linearGradient id="linear-gradient" y1="0.153" x2="1" y2="0.856" gradientUnits="objectBoundingBox">
      <stop offset="0" stop-color="#0d47a1"/>
      <stop offset="1" stop-color="#42a5f5"/>
    </linearGradient>
  </defs>
  <rect id="Retângulo_1" data-name="Retângulo 1" width="1024" height="569" fill="#fcca3f"/>
  <path id="BG" d="M0,0H1024V472.71L0,228.346Z" fill="url(#linear-gradient)"/>
  <g id="Logos" transform="translate(-5 -35)">
    <g id="firebase-logo" transform="translate(92.444 38.401)">
      <path id="Caminho_5" data-name="Caminho 5" d="M5.8,319.634,8.189,316.3l112.72-213.833.239-2.263L71.464,6.883A9.22,9.22,0,0,0,54.22,9.793Z" transform="translate(-5.8 -2.001)" fill="#ffc24a"/>
      <path id="Caminho_6" data-name="Caminho 6" d="M5.9,315.586l1.8-3.514,111.552-211.61L69.7,6.772a8.432,8.432,0,0,0-15.929,2.9Z" transform="translate(-4.495 -0.485)" fill="#ffa712"/>
      <path id="Caminho_7" data-name="Caminho 7" d="M50.557,119.475,87.549,81.528l-37-70.571a9.529,9.529,0,0,0-16.8,0L13.986,48.646v3.218Z" transform="translate(101.005 49.316)" fill="#f4bd62"/>
      <path id="Caminho_8" data-name="Caminho 8" d="M49.565,116.665,85.535,79.841,49.565,11.249a8.279,8.279,0,0,0-15.088-.656L14.6,48.949l-.59,1.954Z" transform="translate(101.341 50.579)" fill="#ffa50e"/>
      <path id="Caminho_9" data-name="Caminho 9" d="M5.8,228.844l1.082-1.1,3.921-1.589L155.01,82.491l1.828-4.978L120.871,8.956Z" transform="translate(-5.774 88.801)" fill="#f6820c"/>
      <path id="Caminho_10" data-name="Caminho 10" d="M161.979,317.505,292.52,244.716l-37.3-229.531a8.924,8.924,0,0,0-15.11-4.863L5.8,245.039l129.769,72.454a27.083,27.083,0,0,0,26.4,0" transform="translate(-5.8 72.594)" fill="#fde068"/>
      <path id="Caminho_11" data-name="Caminho 11" d="M290.02,243.1l-36.993-227.8a7.822,7.822,0,0,0-13.591-4.961L5.9,243.587l128.336,71.68a26.88,26.88,0,0,0,26.185,0Z" transform="translate(-4.495 73.609)" fill="#fcca3f"/>
      <path id="Caminho_12" data-name="Caminho 12" d="M161.979,97a27.083,27.083,0,0,1-26.4,0L6.868,25.632,5.8,26.729,135.569,99.181a27.083,27.083,0,0,0,26.4,0L292.524,26.4l-.323-1.968Z" transform="translate(-5.8 290.904)" fill="#eeab37"/>
    </g>
    <g id="angular-logo" transform="translate(118.756 157.867)">
      <path id="Caminho_2" data-name="Caminho 2" d="M149.376,30h0L31.9,71.893,49.82,227.222l99.556,55.141h0l99.556-55.141,17.92-155.329Z" transform="translate(-31.9 -30)" fill="#dd0031"/>
      <path id="Caminho_3" data-name="Caminho 3" d="M125,30V185.709h0v96.656h0l99.556-55.141,17.92-155.331Z" transform="translate(-7.524 -30)" fill="#c3002f"/>
      <path id="Caminho_4" data-name="Caminho 4" d="M140.238,52.1,66.8,216.768H94.182l14.763-36.846h62.335l14.763,36.846h27.382Zm21.451,105.109h-42.9L140.238,105.6Z" transform="translate(-22.762 -24.213)" fill="#fff"/>
    </g>
  </g>
  <text id="Guilherme_Siquinelli" data-name="Guilherme Siquinelli" transform="translate(561 239)" fill="rgba(0,0,0,0.54)" font-size="54" font-family="Futura-Medium, Futura" font-weight="500"><tspan x="0" y="0">@</tspan></text>
  <g id="Curso" transform="translate(396.8 79.156)">
    <text id="Angular" transform="translate(0.2 95.844)" font-size="44" font-family="Futura-Medium, Futura" font-weight="500" opacity="0.54"><tspan x="0" y="0">Angular</tspan></text>
    <path id="Firebase" d="M159.567,73.667H155V38.4h20.74v4.334H159.567V54.31h14.588v4.233H159.567Zm24.761-30.192a3.251,3.251,0,0,1-4.083.407,3.2,3.2,0,0,1-1.2-3.9,3.237,3.237,0,0,1,6.222,1.222,3.068,3.068,0,0,1-.946,2.267Zm0,30.192h-4.567V49.532h4.567Zm10.021,0h-4.567V49.532h4.365v3.941h.2a6.2,6.2,0,0,1,2.853-3.251,8.208,8.208,0,0,1,4.194-1.28,8.756,8.756,0,0,1,3.423.593l-1.737,4.233a6.952,6.952,0,0,0-2.431-.347,5.986,5.986,0,0,0-4.392,1.947,6.969,6.969,0,0,0-1.911,5.1Zm22.982.769a11.766,11.766,0,0,1-8.96-3.644,12.863,12.863,0,0,1-3.45-9.193,13.227,13.227,0,0,1,3.349-9.062,10.89,10.89,0,0,1,8.56-3.794,11.263,11.263,0,0,1,8.661,3.5,13.181,13.181,0,0,1,3.248,9.358l-.05.839H209.484a8.193,8.193,0,0,0,2.458,5.773,7.477,7.477,0,0,0,5.284,2.116,6.551,6.551,0,0,0,6.649-4.137l4.07,1.678a10.838,10.838,0,0,1-3.92,4.7,11.574,11.574,0,0,1-6.694,1.867Zm6.552-15.777a6.391,6.391,0,0,0-1.911-3.941,6.765,6.765,0,0,0-5.245-1.832,6.578,6.578,0,0,0-4.392,1.577,8.04,8.04,0,0,0-2.56,4.233Zm21.36,15.777a10.391,10.391,0,0,1-4.971-1.155,8.4,8.4,0,0,1-3.3-2.955h-.195v3.341h-4.369V38.4h4.567V49.532l-.2,3.348h.2a8.4,8.4,0,0,1,3.3-2.955,10.394,10.394,0,0,1,4.971-1.182,10.741,10.741,0,0,1,8.141,3.7,13.973,13.973,0,0,1,0,18.325A10.667,10.667,0,0,1,245.243,74.436ZM244.5,70.3a7.286,7.286,0,0,0,5.458-2.389,8.781,8.781,0,0,0,2.283-6.33,8.781,8.781,0,0,0-2.283-6.33,7.485,7.485,0,0,0-10.94-.023,8.818,8.818,0,0,0-2.256,6.353,8.832,8.832,0,0,0,2.276,6.373,7.3,7.3,0,0,0,5.474,2.367Zm23.935,4.137a9.626,9.626,0,0,1-6.474-2.216,7.347,7.347,0,0,1-2.605-5.861,7.222,7.222,0,0,1,3.078-6.18,12.555,12.555,0,0,1,7.59-2.24,13.1,13.1,0,0,1,6.591,1.478v-.688a5.369,5.369,0,0,0-1.838-4.267,6.62,6.62,0,0,0-4.508-1.582,7.039,7.039,0,0,0-3.6.934,4.836,4.836,0,0,0-2.21,2.56L260.291,54.6a9.47,9.47,0,0,1,3.327-4.033,10.607,10.607,0,0,1,6.552-1.849,11.4,11.4,0,0,1,7.754,2.694A9.5,9.5,0,0,1,281,59.048V73.667h-4.38V70.319h-.2a8.987,8.987,0,0,1-7.99,4.124Zm.744-4.137a7.461,7.461,0,0,0,5.14-2.074,6.477,6.477,0,0,0,2.325-4.949,9.071,9.071,0,0,0-5.815-1.577,7.59,7.59,0,0,0-5.013,1.422,4.276,4.276,0,0,0-1.687,3.348,3.22,3.22,0,0,0,1.553,2.82,6.165,6.165,0,0,0,3.5,1.035Zm25.257,4.137a10.968,10.968,0,0,1-6.723-1.97,11.663,11.663,0,0,1-3.877-4.925l4.07-1.674A6.724,6.724,0,0,0,294.5,70.4a6.059,6.059,0,0,0,3.489-.934A2.862,2.862,0,0,0,299.348,67q0-2.362-3.327-3.2l-4.915-1.182a11.72,11.72,0,0,1-4.409-2.24,5.372,5.372,0,0,1-2.085-4.456,6.08,6.08,0,0,1,2.853-5.2,11.52,11.52,0,0,1,6.773-1.991,11.36,11.36,0,0,1,5.753,1.458,8.211,8.211,0,0,1,3.621,4.164l-3.972,1.607q-1.337-3.2-5.559-3.2a6.525,6.525,0,0,0-3.423.839,2.549,2.549,0,0,0-1.388,2.267q0,2.071,3.226,2.809l4.811,1.138a9.021,9.021,0,0,1,5.063,2.694A6.514,6.514,0,0,1,304,66.844a6.7,6.7,0,0,1-2.679,5.419,10.583,10.583,0,0,1-6.9,2.177Zm24.563,0a11.766,11.766,0,0,1-8.96-3.644,12.888,12.888,0,0,1-3.45-9.212,13.226,13.226,0,0,1,3.349-9.062,10.91,10.91,0,0,1,8.572-3.775,11.224,11.224,0,0,1,8.661,3.5,13.3,13.3,0,0,1,3.248,9.358l-.05.839H311.147a8.193,8.193,0,0,0,2.458,5.773,7.477,7.477,0,0,0,5.3,2.109,6.551,6.551,0,0,0,6.649-4.137l4.07,1.674a10.836,10.836,0,0,1-3.92,4.7,11.552,11.552,0,0,1-6.7,1.877Zm6.552-15.777a6.391,6.391,0,0,0-1.911-3.941,6.756,6.756,0,0,0-5.238-1.832,6.581,6.581,0,0,0-4.392,1.577,8.038,8.038,0,0,0-2.56,4.233Z" transform="translate(62.6 23.126)" opacity="0.54"/>
    <text id="_" data-name="&amp;" transform="translate(172.2 95.844)" fill="#fff" font-size="44" font-family="Futura-Medium, Futura" font-weight="500"><tspan x="0" y="0">&amp;</tspan></text>
    <text id="Web_Apps_com" data-name="Web Apps com" transform="translate(0.2 34.844)" fill="rgba(0,0,0,0.54)" font-size="34" font-family="Futura-Medium, Futura" font-weight="500"><tspan x="0" y="0">Web Apps com</tspan></text>
    <text id="_2" data-name="&amp;" transform="translate(57.2 152.844)" fill="#fff" font-size="44" font-family="Futura-Medium, Futura" font-weight="500"><tspan x="0" y="0">com</tspan></text>
  </g>
  <text id="Guilherme_Siquinelli-2" data-name="Guilherme Siquinelli" transform="translate(612 229)" fill="rgba(0,0,0,0.54)" font-size="44" font-family="Futura-Medium, Futura" font-weight="500"><tspan x="0" y="0">guiseek</tspan></text>
</svg>
