<svg xmlns="http://www.w3.org/2000/svg" xmlns:xlink="http://www.w3.org/1999/xlink" width="1024" height="566" viewBox="0 0 1024 566"><defs><linearGradient id="a" y1="0.153" x2="1" y2="0.856" gradientUnits="objectBoundingBox"><stop offset="0" stop-color="#121212"/><stop offset="1" stop-color="#212121"/></linearGradient><clipPath id="c"><rect width="1024" height="566"/></clipPath></defs><g id="b" clip-path="url(#c)"><rect width="1024" height="566" fill="#fff"/><path d="M0,0H1024V569H0Z" fill="#121212"/><path d="M0,0H1024V530.565L0,228.346Z" fill="url(#a)"/><g transform="translate(267.292 21.156)"><text transform="translate(421.708 277.844)" fill="rgba(255,255,255,0.54)" font-size="70" font-family="Futura-Medium, Futura" font-weight="500"><tspan x="0" y="0">guiseek</tspan></text><text transform="translate(339.708 293.844)" fill="rgba(255,255,255,0.54)" font-size="86" font-family="Futura-Medium, Futura" font-weight="500"><tspan x="0" y="0">@</tspan></text><g transform="translate(-70 27)"><text transform="translate(-0.292 159.844)" fill="#bc032a" font-size="70" font-family="Futura-Medium, Futura" font-weight="500"><tspan x="0" y="0">Angular</tspan></text><path d="M162.316,95.14H155v-56.5h33.227v6.943H162.316V64.13h23.37v6.781h-23.37Zm39.668-48.37a5.209,5.209,0,0,1-6.542.652,5.12,5.12,0,0,1-1.918-6.241,5.186,5.186,0,0,1,9.968,1.957,4.915,4.915,0,0,1-1.515,3.632Zm0,48.37h-7.316V56.474h7.316Zm16.054,0h-7.316V56.474h6.993v6.314h.317A9.93,9.93,0,0,1,222.6,57.58a13.149,13.149,0,0,1,6.719-2.051,14.028,14.028,0,0,1,5.484.95l-2.782,6.781a11.137,11.137,0,0,0-3.894-.556,9.59,9.59,0,0,0-7.036,3.119,11.165,11.165,0,0,0-3.062,8.168Zm36.818,1.233A18.85,18.85,0,0,1,240.5,90.535a20.607,20.607,0,0,1-5.528-14.728,21.19,21.19,0,0,1,5.366-14.518,17.447,17.447,0,0,1,13.714-6.079,18.043,18.043,0,0,1,13.876,5.6,21.117,21.117,0,0,1,5.2,14.992l-.08,1.344H242.286a13.126,13.126,0,0,0,3.937,9.248,11.978,11.978,0,0,0,8.465,3.39A10.5,10.5,0,0,0,265.34,83.16l6.521,2.689a17.364,17.364,0,0,1-6.279,7.533,18.542,18.542,0,0,1-10.725,2.992Zm10.5-25.275a10.239,10.239,0,0,0-3.062-6.314,10.839,10.839,0,0,0-8.4-2.935,10.538,10.538,0,0,0-7.036,2.527,12.88,12.88,0,0,0-4.1,6.781Zm34.22,25.275a16.647,16.647,0,0,1-7.963-1.85,13.454,13.454,0,0,1-5.286-4.735h-.312V95.14h-7v-56.5h7.316V56.474l-.317,5.364h.317a13.454,13.454,0,0,1,5.286-4.735,16.651,16.651,0,0,1,7.963-1.893,17.207,17.207,0,0,1,13.042,5.924,22.386,22.386,0,0,1,0,29.358A17.089,17.089,0,0,1,299.574,96.373Zm-1.192-6.628a11.673,11.673,0,0,0,8.745-3.828,14.067,14.067,0,0,0,3.657-10.142,14.067,14.067,0,0,0-3.657-10.142A11.992,11.992,0,0,0,289.6,65.6a14.127,14.127,0,0,0-3.614,10.178,14.149,14.149,0,0,0,3.646,10.21,11.691,11.691,0,0,0,8.77,3.791Zm38.344,6.628a15.421,15.421,0,0,1-10.372-3.55,11.771,11.771,0,0,1-4.174-9.39,11.57,11.57,0,0,1,4.931-9.9,20.114,20.114,0,0,1,12.16-3.589,20.994,20.994,0,0,1,10.558,2.367v-1.1a8.6,8.6,0,0,0-2.944-6.835,10.606,10.606,0,0,0-7.223-2.534,11.276,11.276,0,0,0-5.765,1.5,7.747,7.747,0,0,0-3.541,4.1L323.683,64.6a15.172,15.172,0,0,1,5.329-6.462,16.992,16.992,0,0,1,10.5-2.962,18.265,18.265,0,0,1,12.422,4.315,15.227,15.227,0,0,1,4.931,12.231V95.14h-7.018V89.777h-.317a14.4,14.4,0,0,1-12.8,6.608Zm1.192-6.628a11.953,11.953,0,0,0,8.234-3.322,10.376,10.376,0,0,0,3.725-7.929,14.532,14.532,0,0,0-9.317-2.527,12.16,12.16,0,0,0-8.032,2.278,6.851,6.851,0,0,0-2.7,5.364,5.159,5.159,0,0,0,2.488,4.518,9.877,9.877,0,0,0,5.6,1.659Zm40.464,6.628a17.572,17.572,0,0,1-10.771-3.156,18.684,18.684,0,0,1-6.211-7.89l6.521-2.682a10.773,10.773,0,0,0,10.559,7.262,9.706,9.706,0,0,0,5.589-1.5,4.584,4.584,0,0,0,2.185-3.946q0-3.785-5.329-5.129l-7.874-1.893a18.776,18.776,0,0,1-7.063-3.589,8.606,8.606,0,0,1-3.34-7.138,9.741,9.741,0,0,1,4.571-8.323,18.456,18.456,0,0,1,10.85-3.19,18.2,18.2,0,0,1,9.217,2.335,13.154,13.154,0,0,1,5.8,6.671l-6.364,2.575q-2.142-5.129-8.907-5.129A10.454,10.454,0,0,0,372.331,63a4.083,4.083,0,0,0-2.224,3.632q0,3.317,5.168,4.5l7.708,1.823a14.453,14.453,0,0,1,8.111,4.315,10.435,10.435,0,0,1,2.62,6.943,10.729,10.729,0,0,1-4.293,8.681,16.954,16.954,0,0,1-11.048,3.488Zm39.352,0a18.85,18.85,0,0,1-14.354-5.837,20.648,20.648,0,0,1-5.528-14.758,21.19,21.19,0,0,1,5.366-14.518,17.478,17.478,0,0,1,13.732-6.047,17.982,17.982,0,0,1,13.876,5.6,21.3,21.3,0,0,1,5.2,14.992l-.08,1.344H405.157a13.126,13.126,0,0,0,3.937,9.248,11.978,11.978,0,0,0,8.485,3.379,10.5,10.5,0,0,0,10.652-6.628l6.521,2.682a17.359,17.359,0,0,1-6.28,7.533,18.508,18.508,0,0,1-10.738,3.008Zm10.5-25.275a10.239,10.239,0,0,0-3.062-6.314,10.823,10.823,0,0,0-8.392-2.935,10.543,10.543,0,0,0-7.036,2.527,12.878,12.878,0,0,0-4.1,6.781Z" transform="translate(193.487 66.643)" fill="#f9a700"/><text transform="translate(275.708 159.844)" fill="#fff" font-size="70" font-family="Futura-Medium, Futura" font-weight="500"><tspan x="0" y="0">&amp;</tspan></text></g><text transform="translate(-238.292 77.844)" fill="#fff" font-size="70" font-family="Futura-Medium, Futura" font-weight="500"><tspan x="0" y="0">Web Apps</tspan></text><text transform="translate(178.708 282.844)" fill="#fff" font-size="70" font-family="Futura-Medium, Futura" font-weight="500"><tspan x="0" y="0">com</tspan></text></g><g transform="translate(3 54)"><g transform="translate(547 230.133)"><g transform="translate(33.756 157.867)"><path d="M77.516,30h0L31.9,46.267l6.958,60.315,38.658,21.411h0l38.658-21.411,6.958-60.315Z" transform="translate(-31.9 -30)" fill="#dd0031"/><path d="M125,30V90.462h0v37.532h0l38.658-21.411,6.958-60.315Z" transform="translate(-79.384 -30)" fill="#c3002f"/><path d="M95.316,52.1,66.8,116.041H77.432l5.732-14.307h24.2l5.732,14.307h10.632Zm8.33,40.814H86.986l8.33-20.04Z" transform="translate(-49.7 -41.271)" fill="#fff"/></g></g><g transform="translate(408 387)"><g transform="translate(0 0)"><path d="M80.024,64.335,59.7,32.423l-.031,26.813L24.642,0H0V100H24.366l.08-59.162L59.112,97.349Z" fill="#002f56"/><path d="M97.5,25.591h24.335l.055-.282V0H97.521L97.49,25.309Z" transform="translate(-37.791)" fill="#002f56"/><path d="M190.337,86.858a13.766,13.766,0,0,0-13.147,8.922,13.111,13.111,0,0,1,15.64-4.936c2.645,1.078,6.124,2.817,8.879,1.886a13.993,13.993,0,0,0-11.372-5.873Z" transform="translate(-68.685 -33.406)" fill="#96d8e9"/><path d="M218.228,95.248c0-2.982-1.623-3.674-4.991-4.9-2.5-.87-5.334-1.849-7.4-4.544-.4-.533-.778-1.133-1.176-1.77a14.219,14.219,0,0,0-3.558-4.287,12.919,12.919,0,0,0-7.887-2.149A16.571,16.571,0,0,0,177.91,87.857a15.536,15.536,0,0,1,26.717,2.59,4.991,4.991,0,0,0,5.579,2.229c3.288-.7,3.062,2.407,8.028,3.46Z" transform="translate(-68.964 -29.818)" fill="#48c4e5"/><path d="M197.9,82.149v-.067c-.073-19.743-16.1-36.632-35.854-36.632A35.811,35.811,0,0,0,132.1,61.592l-.129-.22L121.829,45.45H97.5l23.117,36.2L98.057,117.17h23.631l10.282-15.793,10.465,15.793h23.637L144.64,83.441a4.678,4.678,0,0,1-.563-2.137,17.955,17.955,0,0,1,17.961-17.961c9.933,0,11.592,5.94,13.735,8.732,4.231,5.511,12.682,3.1,12.682,10.288h0a4.716,4.716,0,1,0,9.43-.141h0v-.073Z" transform="translate(-37.794 -17.17)" fill="#002f56"/><path d="M258.07,113.68a9.027,9.027,0,0,1-.686,4.942c-1.347,3.117-3.595,2.076-3.595,2.076a1.826,1.826,0,0,1-.759-2.75C254.334,115.934,256.912,116.166,258.07,113.68Z" transform="translate(-97.937 -43.729)" fill="#002f56"/></g></g><g transform="translate(130.006 387)"><path d="M1436.62,82.09l7.742-19.4h22.353l-10.608-29.433L1469.375,0l38,100h-28.025l-6.494-17.91Z" transform="translate(-1241.774 0)" fill="#3d3d3d"/><path d="M606.242,100,646.924,0h-26.97L592.125,64.624,572.336,0H551.605L530.357,64.624,515.372,35.177l-13.56,41.405L515.58,100h26.542l19.2-57.952L579.63,100Z" transform="translate(-434.257 -0.001)" fill="#5a0fc8"/><path d="M25.6,65.672H42.214A49.4,49.4,0,0,0,55.657,64l4.3-13.118L71.96,14.221a29.323,29.323,0,0,0-3.133-4.076Q59.579,0,41.766,0H0V100H25.6ZM47.59,23.006A13.013,13.013,0,0,1,51.2,32.65q0,6.087-3.177,9.655Q44.543,46.269,35.2,46.269H25.6V19.4h9.671Q43.978,19.4,47.59,23.006Z" transform="translate(0 0)" fill="#3d3d3d"/></g><g transform="translate(17.356 1017)"><path d="M0-580v50H100V-630H0Zm80.587-3.984a12.447,12.447,0,0,1,6.254,3.6,16.467,16.467,0,0,1,2.4,3.206c.032.127-4.317,3.048-6.952,4.682-.1.063-.476-.349-.9-.984a5.668,5.668,0,0,0-4.7-2.825c-3.032-.206-4.984,1.381-4.968,4.032a3.667,3.667,0,0,0,.429,1.873c.667,1.381,1.9,2.206,5.794,3.889,7.159,3.079,10.222,5.111,12.127,8a14.51,14.51,0,0,1,1.159,12.19c-1.587,4.159-5.524,6.984-11.063,7.921a30.654,30.654,0,0,1-7.619-.079,18.375,18.375,0,0,1-10.175-5.3,17.666,17.666,0,0,1-2.6-3.857,7.469,7.469,0,0,1,.921-.587c.444-.254,2.127-1.222,3.714-2.143l2.873-1.667.6.889a13.423,13.423,0,0,0,3.794,3.635c3.19,1.683,7.571,1.445,9.73-.492a3.681,3.681,0,0,0,1.3-3,3.663,3.663,0,0,0-.746-2.54c-.778-1.111-2.365-2.048-6.873-4-5.159-2.222-7.381-3.6-9.413-5.794a13.187,13.187,0,0,1-2.746-5,20.022,20.022,0,0,1-.175-6.381c1.063-4.984,4.825-8.46,10.254-9.492A25.334,25.334,0,0,1,80.587-583.984Zm-23.476,4.175.032,4.1H44.127v36.984H34.921v-36.984H21.9v-4.016a39.354,39.354,0,0,1,.111-4.127c.048-.063,7.968-.1,17.571-.079l17.476.048Z" fill="#007acc"/></g><g transform="translate(684.444 387)"><path d="M5.8,82.638l.607-.846L35.023,27.507l.061-.574L22.47,3.241a2.341,2.341,0,0,0-4.378.739Z" transform="translate(-5.8 -2.001)" fill="#ffc24a"/><path d="M5.9,81.692l.457-.892,28.32-53.721L22.1,3.294a2.141,2.141,0,0,0-4.044.735Z" transform="translate(-5.543 -1.698)" fill="#ffa712"/><path d="M23.27,34.757l9.391-9.634L23.268,7.207a2.419,2.419,0,0,0-4.264,0l-5.019,9.568v.817Z" transform="translate(15.245 8.094)" fill="#f4bd62"/><path d="M23.034,34.118l9.132-9.349L23.034,7.357A2.1,2.1,0,0,0,19.2,7.19l-5.047,9.737-.15.5Z" transform="translate(15.314 8.34)" fill="#ffa50e"/><path d="M5.8,64.779l.275-.278,1-.4L43.68,27.624l.464-1.264-9.131-17.4Z" transform="translate(-5.794 15.917)" fill="#f6820c"/><path d="M45.488,86.457l33.173-18.5L69.181,9.613a2.268,2.268,0,0,0-3.84-1.236L5.8,68.037,38.777,86.454a6.881,6.881,0,0,0,6.707,0" transform="translate(-5.8 12.674)" fill="#fde068"/><path d="M78.1,67.524,68.7,9.692a1.988,1.988,0,0,0-3.454-1.259L5.9,67.649l32.613,18.2a6.837,6.837,0,0,0,6.654,0Z" transform="translate(-5.543 12.975)" fill="#fcca3f"/><path d="M45.488,42.859a6.888,6.888,0,0,1-6.707,0L6.071,24.74l-.271.278L38.777,43.411a6.888,6.888,0,0,0,6.707,0L78.661,24.936l-.082-.5Z" transform="translate(-5.8 55.717)" fill="#eeab37"/></g></g></g></svg>