<svg xmlns="http://www.w3.org/2000/svg" xmlns:xlink="http://www.w3.org/1999/xlink" width="1024" height="400" viewBox="0 0 1024 400">
  <defs>
    <clipPath id="clip-path">
      <rect id="Retângulo_1" data-name="Retângulo 1" width="735" height="492" transform="translate(7 29)" fill="#fff"/>
    </clipPath>
    <clipPath id="clip-custom_1">
      <rect width="1024" height="400"/>
    </clipPath>
  </defs>
  <g id="custom_1" data-name="custom – 1" clip-path="url(#clip-custom_1)">
    <rect width="1024" height="400" fill="transparent" />
    <g id="layer1" transform="translate(651.894)">
      <path id="path818" d="M242.458,45.652a25.453,25.453,0,0,0-8.089,1.452,22.84,22.84,0,0,1,9.645,13.482c.1.726.311,1.245.415,1.97a11.4,11.4,0,0,1,.207,1.867c.415,9.126-2.385,10.267-4.356,15.66a22.161,22.161,0,0,0,1.452,20.43,12.387,12.387,0,0,0,1.245,2.282c-3.941-26.238,17.941-30.179,21.986-38.372.311-7.156-5.6-11.926-10.267-15.245a22.912,22.912,0,0,0-12.238-3.526Zm32.979,5.911a12,12,0,0,0-.207,3.008c-.1.83-.1,1.867-.207,2.7a22.534,22.534,0,0,1-.726,2.489,23.318,23.318,0,0,1-.83,2.489c-.415.83-.726,1.556-1.141,2.385-.311.415-.519.83-.83,1.244l-.622.933c-.519.726-1.037,1.452-1.556,2.074a15.871,15.871,0,0,1-1.867,1.867v.1c-.622.519-1.245,1.141-1.97,1.659-2.178,1.659-4.667,2.9-6.948,4.459a15.46,15.46,0,0,0-2.074,1.556,15.161,15.161,0,0,0-1.97,1.659,16.776,16.776,0,0,0-1.867,1.97,15.453,15.453,0,0,0-1.556,2.074c-.519.726-1.037,1.452-1.452,2.178-.415.83-.726,1.556-1.141,2.385a21.725,21.725,0,0,0-.83,2.385c-.311.933-.519,1.763-.726,2.593-.1.415-.1.933-.207,1.348s-.1.83-.207,1.244c0,.83-.1,1.763-.1,2.593a11.257,11.257,0,0,0,.1,1.867,11.772,11.772,0,0,0,.311,2.593,21.256,21.256,0,0,0,.519,2.489c.311.83.519,1.659.83,2.489.207.519.519,1.037.726,1.452l-23.853-9.23c-4.045-1.141-7.985-2.178-12.03-3.111l-6.534-1.556c-6.222-1.244-12.549-2.178-18.875-2.8-.207,0-.311-.1-.519-.1a185.424,185.424,0,0,0-18.564-.933c-4.563,0-9.126.207-13.586.519-6.326.415-12.652,1.245-18.978,2.282-1.556.207-3.111.519-4.667.83-3.215.622-6.326,1.348-9.334,2.074l-4.667,1.244c-1.556.622-3.007,1.348-4.459,1.97l-3.422,1.556c-.207.1-.415.1-.519.207-1.037.518-1.97.933-2.9,1.452a5.055,5.055,0,0,0-.726.311c-1.141.519-2.282,1.141-3.215,1.659-.726.311-1.452.726-2.074,1.037a9.346,9.346,0,0,1-.933.519c-.933.519-1.867,1.037-2.7,1.556a26.088,26.088,0,0,0-2.489,1.556c-.726.519-1.452.933-2.074,1.452-.1.1-.207.1-.311.207A23.95,23.95,0,0,0,89.491,114l-.207.207-1.556,1.244c-.207.1-.415.311-.622.415-.519.415-1.037.933-1.556,1.348-.1.207-.311.311-.415.415-.622.622-1.245,1.141-1.867,1.763-.1,0-.1.1-.207.207-.622.519-1.244,1.141-1.867,1.763-.1.1-.1.207-.207.207-.519.519-1.037,1.037-1.556,1.659-.207.207-.519.415-.726.622-.519.622-1.141,1.244-1.763,1.867-.1.207-.311.311-.415.519-.83.83-1.556,1.659-2.385,2.489l-.311.311a61.2,61.2,0,0,1-5.289,5.082,58.944,58.944,0,0,1-5.808,4.563c-2.074,1.452-4.045,2.7-6.222,3.941a63.19,63.19,0,0,1-6.534,3.111c-2.178.933-4.459,1.763-6.741,2.489-4.356.933-8.815,2.7-12.652,3.008a22.069,22.069,0,0,0-2.593.311c-.933.207-1.763.415-2.593.622l-2.489.933a26.517,26.517,0,0,0-2.489,1.141c-.726.519-1.556.933-2.282,1.452a16.927,16.927,0,0,0-2.074,1.763,17.76,17.76,0,0,0-2.074,1.867c-.622.726-1.244,1.348-1.763,2.074-.519.83-1.141,1.556-1.556,2.385a18.269,18.269,0,0,0-1.452,2.385c-.415.933-.83,1.763-1.141,2.7-.311.83-.622,1.763-.933,2.7a21.234,21.234,0,0,0-.519,2.489c0,.1-.1.207-.1.311-.207.933-.207,2.178-.311,2.8a14.033,14.033,0,0,0-.207,2.074,5.9,5.9,0,0,0,.1,1.348,11,11,0,0,0,.415,1.971,13.856,13.856,0,0,0,.726,1.867v.1a18.039,18.039,0,0,0,1.141,1.867A21.069,21.069,0,0,0,9.74,188.25c.518.519,1.141,1.141,1.763,1.659a15.167,15.167,0,0,0,1.97,1.659,24.134,24.134,0,0,0,6.326,4.563c.519.311,1.037.519,1.659.83.1,0,.207.1.311.1a.934.934,0,0,0,.1.519,21.279,21.279,0,0,0,.519,2.489,13.981,13.981,0,0,0,.83,2.489c.311.622.519,1.244.83,1.867a2.266,2.266,0,0,0,.311.519c.415.83.83,1.556,1.244,2.282l1.556,2.178c.519.622,1.141,1.348,1.763,1.97s1.244,1.141,1.97,1.763a.362.362,0,0,0,.207.1,22.762,22.762,0,0,0,1.867,1.452,16.509,16.509,0,0,0,2.282,1.348,16.857,16.857,0,0,0,2.385,1.141,12.2,12.2,0,0,0,2.074.726c.1.1.207.1.415.207.415.1.933.207,1.348.311-.311,5.6-.415,10.889.415,12.756.933,2.074,5.5-4.252,10.06-11.512-.622,7.156-1.037,15.556,0,18.045,1.141,2.593,7.363-5.5,12.756-14.415,73.528-17.008,140.627,33.809,147.679,105.574-1.348-11.2-15.141-17.423-21.467-15.867-3.111,7.674-8.4,17.526-16.9,23.645a66.5,66.5,0,0,0-1.037-20.741,67.071,67.071,0,0,1-12.86,26.134h0c-9.852.726-19.7-4.045-24.89-11.2-.415-.311-.519-.933-.83-1.348a18.689,18.689,0,0,1-.83-2.178,8.608,8.608,0,0,1-.622-2.178,16.033,16.033,0,0,1-.1-2.282v-1.556a16.6,16.6,0,0,1,.519-2.178,17.866,17.866,0,0,1,.726-2.178,23.325,23.325,0,0,1,1.245-2.178c1.763-4.978,1.763-9.023-1.452-11.408a11.811,11.811,0,0,0-1.97-1.037c-.415-.1-.933-.311-1.348-.415-.311-.1-.519-.207-.83-.311a16.586,16.586,0,0,0-2.178-.519,7.9,7.9,0,0,0-2.178-.311,16.905,16.905,0,0,0-2.282-.207c-.519,0-1.037.1-1.556.1a8.1,8.1,0,0,0-2.282.311,16.112,16.112,0,0,0-2.178.415,17.869,17.869,0,0,0-2.178.726c-.726.311-1.348.622-2.074.933-.622.311-1.244.726-1.97,1.037-24.164,15.764-9.748,52.683,6.741,63.365-6.222,1.141-12.549,2.489-14.312,3.837l-.207.207a97.712,97.712,0,0,0,14,6.948c6.637,2.178,13.689,4.148,16.8,4.978v.1a100.329,100.329,0,0,0,26.134,1.867c45.942-3.215,83.588-38.164,90.433-84.21.207.933.415,1.763.622,2.7h0c.311,1.867.726,3.837.933,5.807v.1c.207.933.311,1.867.415,2.7v.415a25.449,25.449,0,0,1,.207,2.7c.1,1.141.207,2.282.207,3.422v1.659c0,.519.1,1.141.1,1.659,0,.622-.1,1.244-.1,1.867v1.452c0,.726-.1,1.348-.1,2.074a6.37,6.37,0,0,1-.1,1.348c0,.726-.1,1.452-.1,2.282a2.863,2.863,0,0,0-.1.933c-.1.83-.207,1.556-.311,2.385a2.868,2.868,0,0,1-.1.933c-.1,1.037-.311,1.97-.415,3.007v.208c-.207.933-.415,1.97-.622,2.9v.311l-.622,2.8c0,.1-.1.311-.1.415a27.831,27.831,0,0,1-.726,2.8v.311c-.311,1.037-.622,1.97-.83,2.9a.321.321,0,0,0-.1.207l-.933,3.111c-.415,1.037-.726,1.97-1.141,3.008s-.726,2.074-1.141,3.007c-.415,1.037-.83,1.971-1.245,3.008h-.1c-.415.933-.83,1.97-1.348,2.9h0a5.049,5.049,0,0,1-.311.726c-.1.1-.1.207-.207.311a98.16,98.16,0,0,1-29.142,34.846h0c-.83.519-1.659,1.141-2.489,1.763h0c-.207.207-.519.311-.726.518-.726.519-1.452,1.037-2.282,1.556l.311.622h.1l4.356-.622h.1c2.7-.415,5.393-.933,8.089-1.452a18.1,18.1,0,0,0,2.282-.519c.519-.1.933-.207,1.452-.311.726-.1,1.452-.311,2.178-.415.622-.207,1.244-.311,1.867-.519a196.546,196.546,0,0,0,30.075-9.956,166.086,166.086,0,0,1-64.4,52.58,170.642,170.642,0,0,0,35.364-6.119,165.7,165.7,0,0,0,98-78.3,165.535,165.535,0,0,1-27.9,66.684,162.974,162.974,0,0,0,71.351-111.174,165.141,165.141,0,0,1,3.007,49.987c74.877-104.433,6.223-212.7-22.5-241.223-.1-.207-.207-.311-.207-.519-.1.1-.1.1-.1.207,0-.1,0-.1-.1-.207,0,1.244-.1,2.489-.207,3.733-.311,2.385-.622,4.667-1.037,6.948-.518,2.282-1.141,4.563-1.763,6.845-.726,2.178-1.556,4.459-2.489,6.637-.933,2.074-1.97,4.252-3.111,6.326-1.141,1.97-2.385,4.045-3.733,5.911-1.348,1.971-2.8,3.837-4.252,5.6-1.556,1.867-3.215,3.526-4.874,5.185-1.037.933-1.97,1.763-3.008,2.593-.83.726-1.556,1.348-2.385,2.074a57.872,57.872,0,0,1-5.808,4.045c-1.97,1.244-4.045,2.489-6.119,3.526-2.178,1.037-4.356,1.97-6.534,2.9-2.178.83-4.459,1.556-6.741,2.178s-4.667,1.141-6.948,1.556c-2.385.415-4.771.622-7.052.83-1.659.1-3.319.207-4.978.207-2.385,0-4.77-.207-7.052-.415a69.789,69.789,0,0,1-14-2.8h-.1c2.282-.207,4.563-.415,6.845-.83,2.385-.415,4.667-.933,6.948-1.556s4.563-1.348,6.741-2.178a62.276,62.276,0,0,0,6.534-2.9c2.178-1.037,4.148-2.178,6.222-3.422,1.97-1.348,3.941-2.7,5.808-4.148a56.708,56.708,0,0,0,5.289-4.667,56.4,56.4,0,0,0,4.874-5.082q2.333-2.8,4.356-5.6c.207-.311.415-.726.622-1.037,1.037-1.659,2.074-3.319,3.007-4.978,1.141-2.074,2.178-4.148,3.111-6.326s1.763-4.356,2.489-6.637c.726-2.178,1.244-4.459,1.763-6.741.415-2.385.83-4.667,1.037-6.948.207-2.385.415-4.771.415-7.052,0-1.659-.1-3.319-.207-4.978-.207-2.385-.519-4.667-.83-6.948-.415-2.385-.933-4.667-1.556-6.948-.726-2.178-1.452-4.459-2.282-6.637s-1.867-4.356-2.9-6.43c-1.141-2.074-2.281-4.148-3.526-6.119-1.348-1.97-2.7-3.837-4.148-5.7-1.556-1.763-3.111-3.526-4.771-5.289-.83-.83-1.763-1.763-2.7-2.593-4.667-3.63-9.541-7.052-14.415-10.163a19.3,19.3,0,0,0-2.074-1.037,40.411,40.411,0,0,0-9.852-4.356Z" transform="translate(-6.006 -45.652)" fill="#dd0031" fill-rule="evenodd"/>
    </g>
    <g id="Styles-_-Quick-Wins" data-name="Styles-&amp;-Quick-Wins" transform="translate(373.347 110.867)">
      <g id="Nx---Quick-Wins" transform="translate(0 0)">
        <g id="Logos">
          <g id="Nx_Flat_White">
            <path id="Path" d="M232.07,185.738,173.129,93.606l-.089,77.41L71.461,0H0V288.7H70.662l.231-170.8L171.424,281.049Z" fill="#002f56"/>
            <path id="Path-2" data-name="Path" d="M97.508,74.213h70.573l.16-.817V0H97.579L97.49,73.4Z" transform="translate(75.639)" fill="#002f56"/>
            <path id="Path-3" data-name="Path" d="M215.318,86.863a39.921,39.921,0,0,0-38.128,25.874,38.021,38.021,0,0,1,45.356-14.313c7.672,3.126,17.759,8.169,25.75,5.47a40.578,40.578,0,0,0-32.978-17.031Z" transform="translate(137.476 67.389)" fill="#96d8e9"/>
            <path id="Path-4" data-name="Path" d="M294.833,128.78c0-8.648-4.706-10.655-14.473-14.207-7.246-2.522-15.468-5.363-21.452-13.177-1.172-1.545-2.255-3.285-3.41-5.132A41.237,41.237,0,0,0,245.18,83.833C239.479,79.642,232,77.6,222.307,77.6a48.055,48.055,0,0,0-44.4,29.746,45.054,45.054,0,0,1,77.481,7.512,14.473,14.473,0,0,0,16.178,6.464c9.536-2.042,8.879,6.979,23.282,10.034Z" transform="translate(138.034 60.207)" fill="#48c4e5"/>
            <path id="Path-5" data-name="Path" d="M388.671,151.878v-.2C388.458,94.428,341.984,45.45,284.694,45.45a103.853,103.853,0,0,0-86.858,46.812l-.373-.639L168.055,45.45H97.5l67.039,104.989-65.423,103h68.531l29.817-45.8,30.35,45.8h68.548l-62.155-97.815a13.568,13.568,0,0,1-1.634-6.2,52.068,52.068,0,0,1,52.086-52.086c28.8,0,33.617,17.226,39.833,25.324,12.271,15.983,36.778,8.986,36.778,29.835h0a13.676,13.676,0,1,0,27.348-.408h0v-.213Z" transform="translate(75.647 35.263)" fill="#002f56"/>
            <path id="Path-6" data-name="Path" d="M268.366,113.68a26.177,26.177,0,0,1-1.989,14.331c-3.907,9.039-10.424,6.02-10.424,6.02s-5.612-2.735-2.2-7.974C257.533,120.215,265.009,120.89,268.366,113.68Z" transform="translate(196.023 88.2)" fill="#002f56"/>
          </g>
        </g>
      </g>
    </g>
    <g id="react" transform="translate(122.611 -303.403)">
      <path id="Caminho_4" data-name="Caminho 4" d="M9.389,302.484c0,48.235,47.337,93.261,121.963,118.642-14.9,74.647-2.669,134.814,38.186,158.261,41.993,24.1,104.556,7.418,163.937-44.231,57.882,49.56,116.38,69.068,157.2,45.552,41.956-24.166,54.712-88.409,39.4-165.391,77.728-25.569,121.206-63.963,121.206-112.833,0-47.115-47.422-87.874-121.044-113.091,16.489-80.16,2.52-138.867-40.029-163.279-41.021-23.536-100.2-3.022-158.933,47.835-61.1-53.98-119.7-70.46-162.2-45.98-40.982,23.6-52.675,84.867-37.725,160.895C59.243,213.877,9.389,255.56,9.389,302.484Z" transform="translate(0 0)" fill="#fff"/>
      <path id="Caminho_5" data-name="Caminho 5" d="M485.567,187.013q-9.108-3.106-18.353-5.754,1.534-6.2,2.833-12.453c13.891-67.094,4.81-121.145-26.206-138.937C414.1,12.8,365.468,30.6,316.348,73.128q-7.26,6.3-14.194,12.96-4.641-4.427-9.446-8.68c-51.479-45.481-103.08-64.644-134.063-46.8-29.709,17.113-38.509,67.927-26,131.512q1.866,9.445,4.213,18.787c-7.3,2.063-14.352,4.262-21.1,6.6-60.352,20.936-98.9,53.749-98.9,87.783,0,35.154,41.375,70.413,104.24,91.79q7.646,2.588,15.414,4.794-2.523,10.061-4.478,20.25c-11.923,62.479-2.611,112.088,27.02,129.1,30.605,17.56,81.971-.489,131.99-43.992q5.93-5.16,11.9-10.906,7.507,7.207,15.41,13.989c48.45,41.482,96.3,58.23,125.906,41.178,30.575-17.609,40.513-70.907,27.61-135.748q-1.475-7.429-3.42-15.161c3.606-1.059,7.148-2.154,10.6-3.294,65.349-21.543,107.868-56.372,107.868-92,0-34.157-39.784-67.192-101.351-88.28Z" transform="translate(29.083 27.421)" fill="#53c1de"/>
      <path id="Caminho_6" data-name="Caminho 6" d="M452.014,325.057q-4.675,1.54-9.575,2.979a567.091,567.091,0,0,0-28.863-71.855,566.339,566.339,0,0,0,27.742-70.809c5.832,1.682,11.493,3.452,16.944,5.322,52.755,18.066,84.93,44.783,84.93,65.367,0,21.927-34.749,50.393-91.173,69ZM428.6,371.218c5.705,28.673,6.522,54.6,2.74,74.862-3.4,18.206-10.221,30.345-18.661,35.209-17.968,10.348-56.388-3.1-97.819-38.575q-7.126-6.1-14.335-13.005a569.774,569.774,0,0,0,47.783-60.37,571.191,571.191,0,0,0,77.21-11.841q1.739,7,3.083,13.721ZM191.83,479.5c-17.552,6.17-31.531,6.341-39.98,1.5-17.983-10.319-25.456-50.157-15.261-103.587q1.819-9.471,4.163-18.832a575.286,575.286,0,0,0,76.822,11.065A590.117,590.117,0,0,0,266.508,429.8q-5.306,5.108-10.861,9.952c-22.118,19.239-44.281,32.885-63.814,39.75ZM109.6,324.921c-27.8-9.454-50.753-21.739-66.487-35.144-14.138-12.049-21.278-24.01-21.278-33.718,0-20.652,30.948-47,82.563-64.9q9.718-3.356,19.62-6.143A579.4,579.4,0,0,0,151.8,256.65a588.2,588.2,0,0,0-28.13,72.654q-7.089-2.019-14.073-4.383Zm27.565-186.687c-10.715-54.48-3.6-95.575,14.3-105.887,19.073-10.985,61.243,4.679,105.691,43.947,2.841,2.51,5.694,5.138,8.553,7.857a581.139,581.139,0,0,0-48.56,59.794,597.812,597.812,0,0,0-76.07,11.763q-2.18-8.688-3.918-17.476Zm245.9,60.414q-8.359-14.367-17.335-28.366c18.19,2.284,35.616,5.322,51.98,9.04a516,516,0,0,1-18.246,48.842q-7.9-14.919-16.4-29.516ZM282.788,101.467a518.7,518.7,0,0,1,33.547,40.294q-33.669-1.583-67.376-.015c11.075-14.532,22.421-28.032,33.829-40.279Zm-100.92,97.347q-8.388,14.477-16.091,29.332c-7.092-16.736-13.159-33.191-18.114-49.08,16.265-3.622,33.61-6.582,51.681-8.829q-9.074,14.082-17.476,28.577Zm18,144.8a520.959,520.959,0,0,1-52.537-8.4c5.033-16.171,11.234-32.98,18.477-50.074q7.733,14.862,16.162,29.35,8.6,14.775,17.9,29.129Zm83.6,68.755c-11.542-12.394-23.054-26.1-34.3-40.844q16.371.64,33.352.642,17.431,0,34.412-.76A516.142,516.142,0,0,1,283.461,412.367ZM399.7,284.263a514.028,514.028,0,0,1,19.145,49.9,519.2,519.2,0,0,1-53.178,9.02q9.038-14.257,17.5-28.863,8.6-14.841,16.532-30.052Zm-37.629,17.948q-12.952,22.389-27.348,43.9c-16.914,1.2-34.392,1.822-52.2,1.822-17.738,0-34.995-.549-51.613-1.621q-14.761-21.453-27.86-43.972-13.028-22.383-24.32-45.7,11.256-23.31,24.248-45.727v0q12.98-22.406,27.641-43.784c16.954-1.275,34.336-1.943,51.908-1.943,17.65,0,35.055.673,52,1.958q14.5,21.329,27.467,43.635,13.028,22.352,24.575,45.511-11.422,23.383-24.495,45.912ZM412.3,31.627c19.087,10.955,26.514,55.127,14.522,113.056q-1.182,5.661-2.564,11.276a586.117,586.117,0,0,0-76.222-11.981,569.777,569.777,0,0,0-48.187-59.84q6.4-6.143,13.109-11.964c42.087-36.444,81.421-50.833,99.342-40.548Z" transform="translate(48.457 46.655)" fill="#fff"/>
      <path id="Caminho_7" data-name="Caminho 7" d="M115.614,64.567a50.651,50.651,0,1,1-50.9,50.649,50.777,50.777,0,0,1,50.9-50.649" transform="translate(215.358 187.498)" fill="#53c1de"/>
    </g>
    <g id="angular" transform="translate(806.1 -30)">
      <path id="Caminho_1" data-name="Caminho 1" d="M218.1,30h0L31.9,96.4,60.3,342.6,218.1,430h0l157.8-87.4L404.3,96.4Z" fill="#dd0031"/>
      <path id="Caminho_2" data-name="Caminho 2" d="M125,30V276.8h0V430h0l157.8-87.4L311.2,96.4Z" transform="translate(93.1)" fill="#c3002f"/>
      <path id="Caminho_3" data-name="Caminho 3" d="M183.2,52.1,66.8,313.1h43.4l23.4-58.4h98.8l23.4,58.4h43.4l-116-261Zm34,166.6h-68l34-81.8Z" transform="translate(34.9 22.1)" fill="#fff"/>
    </g>
    <g id="web-components" transform="translate(-298 -86)" clip-path="url(#clip-path)">
      <path id="Caminho_8" data-name="Caminho 8" d="M167.456,515.957,27.51,132.412,411.83,29.431l69.909,402.283L336.026,517.546l-168.57-1.59" transform="translate(90.383 1.897)" fill="#e44d26"/>
      <path id="Caminho_9" data-name="Caminho 9" d="M163.731,450.274l117.73-69.391L221.7,37.107,64.635,79.2Z" transform="translate(253.986 35.728)" fill="#f16529"/>
      <path id="Caminho_10" data-name="Caminho 10" d="M421.389,89.284,439.3,151,302.2,189.8s0,82.6-66.529,115.433-118.2,4.99-118.2,4.99L109.2,286.344l98.683-26.877,21.841-84.6-63.577-62.641-91.39,27.688-7.936-21.729s42.7-94.536,168.871-40.768c0,0,39.759,24.851,48.675,46.767l137.024-34.9ZM439.3,84.648l21.843-6.3,17.572,63.027-22.865,6.946L439.3,84.648Z" transform="translate(263.61 140.471)" fill="#efefef"/>
      <path id="Caminho_11" data-name="Caminho 11" d="M447,67.629l14.15-3.522,17.572,63.027L455.86,134.08l-5.985-21.1L459,109.4,447,67.629ZM406.285,78.908,421.4,75.046l17.907,61.718-137.094,38.8s-1.476,72.07-49.185,104.706c-47.629,32.6-101.308,31.624-135.56,15.723l-3.817-11.014s93.219,21.957,139.378-48.207c27.834-46.258,27.347-79.606,27.347-79.606l137.565-37.3L406.285,78.908Zm-339.469,25,80.466-23.392,18.843,17.43L74.752,125.635Z" transform="translate(263.596 154.708)" fill="#bcbcbc"/>
      <path id="Caminho_12" data-name="Caminho 12" d="M46.736,220.418l16.154,62.19L200.458,245.7s42.212,70.937,116.161,65.03c73.972-5.9,104.106-56.306,104.106-56.306l-5.1-24.753-98.5,27.5-61.994-61.45,22.614-86.46L370.43,86.2l-4.291-22.748S281.174,4.121,200.214,114.974c0,0-21.428,41.715-17.932,65.111L46.736,220.418Zm-17.742,5.205L7,231.4l17.1,63.136L47.3,288.8,28.994,225.623Z" transform="translate(0 81.942)" fill="#efefef"/>
      <path id="Caminho_13" data-name="Caminho 13" d="M20.965,214.206,7,218.451l17.1,63.136,23.2-5.734-5.613-21.22-9.708,1.615-11.016-42.04ZM61.738,203.04l-15,4.434,16.154,62.19,137.568-36.91s38.107,61.134,95.756,64.73c57.591,3.559,103.181-24.756,124.511-56.006L418.4,230.066S349.5,296.727,273.976,260.1c-47.537-25.473-64.128-54.415-64.128-54.415l-137.264,38.5L61.738,203.04Zm304.4-152.508L285.083,71.654l-7.313,24.661,92.676-23.053-4.309-22.731Z" transform="translate(0 94.886)" fill="#bcbcbc"/>
    </g>
  </g>
</svg>
