<svg id="Grupo_1" data-name="Grupo 1" xmlns="http://www.w3.org/2000/svg" width="398.033" height="320.051" viewBox="0 0 398.033 320.051">
  <path id="Caminho_1" data-name="Caminho 1" d="M31.985,273l135.63,136a23.78,23.78,0,0,0,33.8,0l22.57-22.64a23.94,23.94,0,0,0,0-33.89l-96.13-96.37,96.13-96.37a23.94,23.94,0,0,0,0-33.89l-22.44-22.79a23.78,23.78,0,0,0-33.8,0L32.105,239a23.94,23.94,0,0,0-.1,34Z" transform="translate(167.019 -96)"/>
  <path id="Caminho_2" data-name="Caminho 2" d="M224.085,273l135.55,136a23.77,23.77,0,0,0,33.79,0l22.55-22.74a23.94,23.94,0,0,0,0-33.89L319.865,256l96-96.47a23.94,23.94,0,0,0,0-33.89l-22.52-22.59a23.77,23.77,0,0,0-33.79,0L223.975,239a24,24,0,0,0,.11,34Z" transform="translate(-216.971 -96)"/>
</svg>
