<!--<svg aria-hidden="true" data-prefix="fas" data-icon="moon" role="img" xmlns="http://www.w3.org/2000/svg" viewBox="0 0 512 512" class="svgmoon "><path fill="currentColor" d="M283.211 512c78.962 0 151.079-35.925 198.857-94.792 7.068-8.708-.639-21.43-11.562-19.35-124.203 23.654-238.262-71.576-238.262-196.954 0-72.222 38.662-138.635 101.498-174.394 9.686-5.512 7.25-20.197-3.756-22.23A258.156 258.156 0 0 0 283.211 0c-141.309 0-256 114.511-256 256 0 141.309 114.511 256 256 256z"></path></svg>-->
<svg class="svg-inline--fa fa-moon-stars fa-w-16 fa-7x" id="lightIcon" aria-hidden="true" focusable="false" data-prefix="fad" data-icon="moon-stars" role="img" xmlns="http://www.w3.org/2000/svg" viewBox="0 0 512 512">
  <g class="fa-group">
    <path fill="currentColor" d="M320 32L304 0l-16 32-32 16 32 16 16 32 16-32 32-16zm138.7 149.3L432 128l-26.7 53.3L352 208l53.3 26.7L432 288l26.7-53.3L512 208z" class="fa-secondary"/>
    <path fill="currentColor" d="M332.2 426.4c8.1-1.6 13.9 8 8.6 14.5a191.18 191.18 0 0 1-149 71.1C85.8 512 0 426 0 320c0-120 108.7-210.6 227-188.8 8.2 1.6 10.1 12.6 2.8 16.7a150.3 150.3 0 0 0-76.1 130.8c0 94 85.4 165.4 178.5 147.7z" class="fa-primary"/>
  </g>
</svg>
