<svg xmlns="http://www.w3.org/2000/svg" width="511.9" height="512.072" viewBox="0 0 511.9 512.072">
  <g id="tv" transform="translate(0 0.002)">
    <path id="Caminho_1" data-name="Caminho 1" d="M392,168.07s0-8-168-8c-152,0-152,8-152,8s-8,0-8,120,8,120,8,120,0,8,152,8c168,0,168-8,168-8s8,0,8-120S392,168.07,392,168.07ZM173.14,96H338.86L374.5,54.68a32.032,32.032,0,1,0-45.3-45.3L256,94.27,182.8,9.48a32.028,32.028,0,1,0-45.3,45.29Z"/>
    <path id="Caminho_2" data-name="Caminho 2" d="M464,96.07H48a48,48,0,0,0-48,48v288a48,48,0,0,0,48,48H64v32h48l21.3-32H378.6l21.3,32h48v-32h16a48,48,0,0,0,48-48v-288a47.86,47.86,0,0,0-47.9-48Zm-72,312s0,8-168,8c-152,0-152-8-152-8s-8,0-8-120,8-120,8-120,0-8,152-8c168,0,168,8,168,8s8,0,8,120S392,408.07,392,408.07Zm72-100a12,12,0,0,1-12,12h-8a12,12,0,0,1-12-12v-8a12,12,0,0,1,12-12h8a12,12,0,0,1,12,12Zm0-64a12,12,0,0,1-12,12h-8a12,12,0,0,1-12-12v-8a12,12,0,0,1,12-12h8a12,12,0,0,1,12,12Z"/>
  </g>
</svg>
