<svg xmlns="http://www.w3.org/2000/svg" width="246.994" height="165.098" viewBox="0 0 246.994 165.098">
  <g id="video-show" transform="translate(-4.523 -54.842)">
    <g id="Grupo_1" data-name="Grupo 1">
      <path id="Caminho_1" data-name="Caminho 1" d="M44.31,77.08C60,66,204.41,65.77,214.66,79.94s11.53,110.13-4.94,117.92S57.37,210.64,44.31,196.6s-16.68-107.72,0-119.52Z" fill="#191919"/>
      <path id="Caminho_2" data-name="Caminho 2" d="M115.44,213.49c-66.35,0-74.29-8.54-77-11.44-12.09-13-15.3-65-12.19-95.06,3-29.08,10.85-34.63,13.43-36.45,13.7-9.69,79-9.63,91.91-9.52a535.02,535.02,0,0,1,55.26,3c25.12,3,31.32,7.16,34.27,11.25C231.75,89.92,233,156,225.5,185.18c-2.8,10.92-6.73,17.25-12.35,19.92-12.44,5.89-62.55,8-87.31,8.32q-5.42.07-10.4.07ZM50.08,191.05c4,3,27.78,7.07,77.41,6.35,42.37-.62,73.07-4.31,78.62-6.67,2.57-2.39,7.8-17.88,8.14-51.83.31-31-3.54-49.9-5.85-53.91-4.59-3-29.63-7.72-79.39-8-47.18-.24-75.67,3.8-80.09,6.61-1.27.93-4.92,7.23-6.76,25.21A260.389,260.389,0,0,0,42.63,160c2.19,20.26,5.78,29.08,7.45,31.05Z" fill="#191919"/>
    </g>
    <g id="Grupo_2" data-name="Grupo 2">
      <path id="Caminho_3" data-name="Caminho 3" d="M44.31,77.08C60,66,204.41,65.77,214.66,79.94s11.53,110.13-4.94,117.92S57.37,210.64,44.31,196.6s-16.68-107.72,0-119.52Z" fill="#fff"/>
    </g>
    <path id="Caminho_4" data-name="Caminho 4" d="M23.61,67.81c-10.11,3.36-2,73.55,8.15,80.52,3.32,2.28,1.63,6.54,0,8.59-6.71,8.42-21,44.51-19.07,47.58,4.88,7.78,18.84,7.44,22.09,6.27,2.25-.81,5.41-1.76,7-.51,4.07,3.24,24.13,1.85,26.28-4.59,1-2.9-20-44.24-26.75-51.3-1.87-1.95-.39-3.39,1.63-5.11C49.21,143.92,83.39,88,86,82.65s4.57-18-6.28-19.5C70.87,61.92,33.38,64.56,23.61,67.81Z" fill="#191919"/>
    <path id="Caminho_5" data-name="Caminho 5" d="M50.07,219.94c-4,0-8.07-.55-11.18-2.1-.34.1-.79.24-1.4.46-5.75,2.07-24.16,2.26-31.57-9.54-2.2-3.5-1.58-7.65.33-14.08,1.21-4.06,3.09-9.36,5.31-14.92,1.85-4.64,8.08-19.79,13.27-26.92-3-3.33-7.56-11.5-11.13-33.67-2.1-13-3.72-31.3-2-43.55.5-3.52,1.82-12.88,9.39-15.4,10.78-3.58,49.39-6.43,59.69-5a16.81,16.81,0,0,1,12.94,8.63c4.22,7.86,1.64,17.68-.55,22.25-2.1,4.38-32.07,54.06-42.82,66.9,5.06,7.23,11.44,19.3,14.34,24.94,12.77,24.81,11.92,27.35,10.94,30.28-1.55,4.64-5.7,8-12.32,10a50.581,50.581,0,0,1-13.24,1.72Zm-3.9-16.37c2.46.75,8.93.35,12.72-.75-4-9.61-15.56-31.88-21.34-40.29-5.19,7.2-14.6,30.74-16.65,39,3,1.82,9,2.18,11.31,1.63C34.8,202.27,41.13,200.09,46.17,203.57Zm-9.59-61.63a12.749,12.749,0,0,1,1.3,1.08c5.73-5.78,38-57.8,40.85-63.84,1.4-2.91,1.54-7,.84-7.84a2.74,2.74,0,0,0-1-.28c-7.34-1-39.6,1.26-50.48,3.8-1.19,4.22-1.82,16.28.24,33.5,2.27,18.95,6.22,31.1,8.26,33.59Z" fill="#191919"/>
    <path id="Caminho_6" data-name="Caminho 6" d="M232.47,67.81c10.11,3.36,2,73.55-8.15,80.52-3.32,2.28-1.63,6.54,0,8.59,6.71,8.42,20.54,44.27,19.07,47.58-2.6,5.86-9.53,6.32-13,5.57-2.42-.52-4.63-1.93-7-.51-5.57,3.36-33.2,2.54-35.35-3.9-1-2.9,20-44.24,26.75-51.3,1.87-1.95.39-3.39-1.63-5.11-6.28-5.34-40.47-61.28-43-66.62s-4.57-18,6.28-19.5C185.21,61.92,222.7,64.56,232.47,67.81Z" fill="#191919"/>
    <path id="Caminho_7" data-name="Caminho 7" d="M210.15,219.47c-7.47,0-15.35-1-20.32-2.87s-8.13-4.66-9.38-8.4c-1-2.94-1.83-5.47,10.94-30.28,2.9-5.64,9.28-17.7,14.34-24.94C195,140.16,165,90.48,162.91,86.1c-2.19-4.57-4.77-14.39-.55-22.25a16.81,16.81,0,0,1,12.94-8.63c10.3-1.43,48.91,1.41,59.69,5,7.58,2.52,8.9,11.88,9.4,15.4,1.73,12.25.1,30.53-2,43.55-3.57,22.17-8.14,30.33-11.14,33.67,5.1,7,11.28,22.21,13.11,26.86,8.84,22.42,7.45,25.55,6.34,28.06-4.14,9.33-14.32,11.8-22,10.15a23.239,23.239,0,0,1-2.49-.69h-.16c-3.76,1.53-9.69,2.25-15.9,2.25Zm-12.73-17.2c6.3,1.51,18.49,1.7,22,.32,4.78-2.77,9.33-1.34,11.53-.65.4.13.82.26,1.06.31a6.67,6.67,0,0,0,3.1-.23c-2-8.2-11.63-32.49-16.61-39.49-5.65,8.26-16.93,29.87-21.09,39.75Zm21.9.4h-.06ZM183.06,70.82a45,45,0,0,0-5.56.25,2.61,2.61,0,0,0-1,.29c-.7.81-.55,4.91.84,7.83,2.89,6,34.9,57.7,40.86,63.84a12.767,12.767,0,0,1,1.29-1.08c2-2.48,6-14.63,8.26-33.58,2.06-17.21,1.43-29.27.24-33.5C218.93,72.76,195,70.82,183.06,70.82Z" fill="#191919"/>
    <path id="Caminho_8" data-name="Caminho 8" d="M23.61,67.81c-10.11,3.36-2,73.55,8.15,80.52,3.32,2.28,1.63,6.54,0,8.59-6.71,8.42-21,44.51-19.07,47.58,4.88,7.78,18.84,7.44,22.09,6.27,2.25-.81,5.41-1.76,7-.51,4.07,3.24,24.13,1.85,26.28-4.59,1-2.9-20-44.24-26.75-51.3-1.87-1.95-.39-3.39,1.63-5.11C49.21,143.92,83.39,88,86,82.65s4.57-18-6.28-19.5C70.87,61.92,33.38,64.56,23.61,67.81Z" fill="#e83a2a"/>
    <path id="Caminho_9" data-name="Caminho 9" d="M31,147.69c-2.61.64-2.35,6.57,0,9.35s10.67,2.53,12.31-.41,3.34-6.14.56-8.46c-1.32-1.1-3.64.5-6.14.51-2.79.01-5.35-1.32-6.73-.99Z" fill="#fff"/>
    <path id="Caminho_10" data-name="Caminho 10" d="M232.47,67.81c10.11,3.36,2,73.55-8.15,80.52-3.32,2.28-1.63,6.54,0,8.59,6.71,8.42,20.54,44.27,19.07,47.58-2.6,5.86-9.53,6.32-13,5.57-2.42-.52-4.63-1.93-7-.51-5.57,3.36-33.2,2.54-35.35-3.9-1-2.9,20-44.24,26.75-51.3,1.87-1.95.39-3.39-1.63-5.11-6.28-5.34-40.47-61.28-43-66.62s-4.57-18,6.28-19.5C185.21,61.92,222.7,64.56,232.47,67.81Z" fill="#e83a2a"/>
    <path id="Caminho_11" data-name="Caminho 11" d="M225.07,147.69c2.61.64,2.35,6.57,0,9.35s-10.31,1.95-12.31-.41c-2.17-2.57-3.3-7-.56-8.46,2.14-1.17,3.13.86,6.14.51s5.36-1.32,6.73-.99Z" fill="#fff"/>
    <g id="play">
      <path id="Caminho_12" data-name="Caminho 12" d="M111,105.56c-4.48,2.84-3.14,60.88-.55,64.3S162,142.46,162,137,115.45,102.72,111,105.56Z" fill="#e83a2a"/>
    </g>
  </g>
</svg>
