<?xml version="1.0" encoding="UTF-8"?>
<svg width="84px" height="112px" viewBox="0 0 84 112" version="1.1" xmlns="http://www.w3.org/2000/svg" xmlns:xlink="http://www.w3.org/1999/xlink">
    <!-- Generator: Sketch 58 (84663) - https://sketch.com -->
    <title>Illustration</title>
    <desc>Created with Sketch.</desc>
    <defs>
        <linearGradient x1="81.9915572%" y1="45.1665421%" x2="-1.72438097%" y2="79.946116%" id="linearGradient-1">
            <stop stop-color="#FFD740" offset="0%"></stop>
            <stop stop-color="#FFAB00" offset="100%"></stop>
        </linearGradient>
    </defs>
    <g id="Design---MVP" stroke="none" stroke-width="1" fill="none" fill-rule="evenodd">
        <g id="6.1-Can't-login---Blocked" transform="translate(-179.000000, -180.000000)">
            <g id="Illustration/Software/Error" transform="translate(179.000000, 180.000000)">
                <g id="Software-Error">
                    <g>
                        <g id="Layer_2">
                            <g id="Software">
                                <path d="M48.2516364,41.3178182 L82.0756364,99.904 C83.4566139,102.293822 83.4571984,105.238977 82.0771695,107.629347 C80.6971406,110.019716 78.146317,111.49187 75.3861818,111.490909 L7.73818182,111.490909 C4.97804664,111.49187 2.42722303,110.019716 1.04719412,107.629347 C-0.332834793,105.238977 -0.332250304,102.293822 1.04872727,99.904 L34.8727273,41.3178182 C36.2519729,38.9271515 38.8021808,37.4542514 41.5621818,37.4542514 C44.3221828,37.4542514 46.8723907,38.9271515 48.2516364,41.3178182 Z" id="_Polygon_2" fill="url(#linearGradient-1)" fill-rule="nonzero"></path>
                                <path d="M44.4029091,83.8523636 L45.8690909,61.2741818 C45.9535676,59.9844525 45.5001503,58.7173268 44.6166105,57.7739841 C43.7330707,56.8306414 42.4983111,56.295325 41.2058182,56.2952727 L41.2058182,56.2952727 C39.9133252,56.295325 38.6785656,56.8306414 37.7950259,57.7739841 C36.9114861,58.7173268 36.4580688,59.9844525 36.5425455,61.2741818 L38.0087273,83.8523636 C38.118645,85.5377766 39.5168257,86.8491277 41.2058182,86.8509091 L41.2058182,86.8509091 C42.8948107,86.8491277 44.2929914,85.5377766 44.4029091,83.8523636 L44.4029091,83.8523636 Z" id="Shape" fill="#253858" fill-rule="nonzero"></path>
                                <path d="M36.3389091,95.8363636 C36.3261188,97.2070911 36.893783,98.5192601 37.9015625,99.4484735 C38.9093421,100.377687 40.2631749,100.837216 41.6283636,100.713455 C44.2541423,100.474074 46.2263106,98.2103014 46.1036175,95.5764899 C45.9809244,92.9426784 43.8068432,90.8720537 41.1701818,90.8778182 C38.4696943,90.9196946 36.3105677,93.1357002 36.3389091,95.8363636 Z" id="Shape" fill="#253858" fill-rule="nonzero"></path>
                                <path d="M46.6836364,14.3410909 L42.9112727,0.738181818 C42.8738037,0.597488695 42.7436188,0.501716102 42.5981502,0.50782823 C42.4526815,0.513940357 42.3309894,0.620296019 42.3054545,0.763636364 L39.9330909,13.5418182 L36.9803636,12.992 C36.875312,12.9724817 36.7676038,13.0083406 36.6952158,13.0869332 C36.6228279,13.1655259 36.5959277,13.2758132 36.624,13.3789091 L40.3963636,26.9818182 C40.4283521,27.1233882 40.5541338,27.2239198 40.6992727,27.2239198 C40.8444117,27.2239198 40.9701934,27.1233882 41.0021818,26.9818182 L43.3745455,14.2036364 L46.3272727,14.728 C46.4323244,14.7475183 46.5400326,14.7116594 46.6124205,14.6330668 C46.6848085,14.5544741 46.7117087,14.4441868 46.6836364,14.3410909 Z" id="Shape" fill="#FFC400" fill-rule="nonzero"></path>
                                <path d="M33.152,21.7941818 L27.6130909,17.4414545 C27.5627732,17.4018012 27.4917338,17.4021667 27.4418268,17.4423358 C27.3919198,17.4825049 27.3763803,17.5518247 27.4043636,17.6094545 L30.2196364,23.4181818 L28.8654545,24.0850909 C28.8270619,24.1105577 28.8039809,24.1535651 28.8039809,24.1996364 C28.8039809,24.2457076 28.8270619,24.288715 28.8654545,24.3141818 L34.3992727,28.6669091 C34.4495905,28.7065624 34.5206298,28.7061969 34.5705368,28.6660278 C34.6204438,28.6258588 34.6359833,28.5565389 34.608,28.4989091 L31.7723636,22.68 L33.1265455,22.0232727 C33.1681177,22.0023806 33.1962994,21.9618765 33.2014374,21.9156345 C33.2065754,21.8693924 33.1879722,21.8236899 33.152,21.7941818 Z" id="Shape" fill="#FFAB00" fill-rule="nonzero"></path>
                                <path d="M58.6218182,19.1418182 C58.0261818,19.9512727 53.0218182,16.2909091 52.4312727,17.1054545 C51.8407273,17.92 56.84,21.5803636 56.2494545,22.3949091 C55.6589091,23.2094545 50.6494545,19.544 50.0538182,20.3585455 C49.4581818,21.1730909 54.4625455,24.8334545 53.8669091,25.648 C53.2712727,26.4625455 48.2669091,22.7970909 47.6712727,23.6116364 C47.0756364,24.4261818 52.08,28.0865455 51.4843636,28.9010909" id="Shape" stroke="#344563" stroke-width="1.01818182" stroke-linecap="round"></path>
                                <path d="M61.0501818,33.1876364 C60.3069091,33.8647273 57.4610909,30.7541818 56.7178182,31.4363636 C55.9745455,32.1185455 58.8203636,35.2290909 58.0770909,35.9061818 C57.3338182,36.5832727 54.488,33.4727273 53.7447273,34.1549091 C53.3985455,34.4705455 53.8261818,35.3105455 54.3098182,36.1912727" id="Shape" stroke="#5E6C84" stroke-width="1.01818182" stroke-linecap="round"></path>
                                <path d="M22.8072727,33.0909091 C23.7338182,33.4829091 25.3527273,29.5934545 26.2996364,29.9854545 C27.2465455,30.3774545 25.592,34.2618182 26.5185455,34.6538182 C27.4450909,35.0458182 29.064,31.1563636 30.0109091,31.5483636 C30.4436364,31.7316364 30.3214545,32.6632727 30.1585455,33.6509091" id="Shape" stroke="#5E6C84" stroke-width="1.01818182" stroke-linecap="round"></path>
                            </g>
                        </g>
                    </g>
                </g>
            </g>
        </g>
    </g>
</svg>