<svg xmlns="http://www.w3.org/2000/svg" xmlns:xlink="http://www.w3.org/1999/xlink" width="512" height="512" viewBox="0 0 512 512">
  <defs>
    <clipPath id="clip-UIG">
      <rect width="512" height="512"/>
    </clipPath>
  </defs>
  <g id="UIG" clip-path="url(#clip-UIG)">
    <g id="Bg" transform="translate(0.9)">
      <path id="bg-2" data-name="bg" d="M36.437,402.062,0,86.19,238,1.318V0L476.893,85.19,440.456,401.063,238.892,512.7v1.5Z" transform="translate(17.1 -1)" fill="#0d6fd1"/>
      <path id="bg-left" d="M363.893,30V346.642h0V543.2h0L161.437,431.062,125,115.19Z" transform="translate(-107.8 -31)" fill="#1976d2"/>
    </g>
    <path id="G" d="M215.112-176.66H355.3v11.206q0,38.232-9.009,67.676Q337.5-70.532,316.626-46.8,269.385,6.372,196.436,6.372q-71.191,0-121.948-51.416Q23.73-96.68,23.73-168.97q0-73.828,51.636-125.244Q127-345.85,201.05-345.85a171.994,171.994,0,0,1,74.268,16.26q32.959,16.26,64.819,52.734l-36.475,34.937Q261.914-297.51,201.929-297.51q-53.833,0-90.308,37.134Q75.146-223.9,75.146-168.97q0,56.689,40.649,93.384,38.013,34.058,82.4,34.058,37.793,0,67.9-25.488,30.1-25.708,33.618-61.523H215.112Z" transform="translate(67 431)" fill="#fff"/>
  </g>
</svg>
