<svg xmlns="http://www.w3.org/2000/svg" width="63.4" height="94" viewBox="0 0 63.4 94">
  <g id="mobile" transform="translate(-68.3 -50.2)">
    <g id="device" opacity="0.3">
      <path id="device-2" data-name="device" d="M122.7,144.2H77.3a9.026,9.026,0,0,1-9-9v-76a9.026,9.026,0,0,1,9-9h45.4a9.026,9.026,0,0,1,9,9v76A8.963,8.963,0,0,1,122.7,144.2ZM77.3,53.8a5.378,5.378,0,0,0-5.4,5.4v76a5.378,5.378,0,0,0,5.4,5.4h45.4a5.378,5.378,0,0,0,5.4-5.4v-76a5.378,5.378,0,0,0-5.4-5.4H77.3Z" fill="#585763"/>
    </g>
    <g id="screen" opacity="0.3">
      <path id="screen-2" data-name="screen" d="M120.7,131.4H79.3a5.378,5.378,0,0,1-5.4-5.4V68.4A5.378,5.378,0,0,1,79.3,63h41.4a5.378,5.378,0,0,1,5.4,5.4v57.5A5.463,5.463,0,0,1,120.7,131.4ZM79.3,66.6a1.793,1.793,0,0,0-1.8,1.8v57.5a1.793,1.793,0,0,0,1.8,1.8h41.4a1.793,1.793,0,0,0,1.8-1.8V68.4a1.793,1.793,0,0,0-1.8-1.8Z" fill="#585763"/>
    </g>
    <g id="button" opacity="0.3">
      <rect id="button-2" data-name="button" width="12.9" height="3.6" transform="translate(93.5 134.4)" fill="#585763"/>
    </g>
    <g id="conn">
      <path id="conn-3" d="M102.8,107.8a4.046,4.046,0,0,0-5.6,0l-2.6-2.6a7.667,7.667,0,0,1,10.7,0Z" fill="#4fc1ea"/>
      <path id="conn-2" d="M108.7,101.9a12.312,12.312,0,0,0-17.4,0l-2.6-2.6a15.934,15.934,0,0,1,22.5,0Z" fill="#4fc1ea"/>
      <path id="conn-1" d="M85.2,95.8l-2.6-2.6a24.625,24.625,0,0,1,34.8,0l-2.6,2.6A20.883,20.883,0,0,0,85.2,95.8Z" fill="#4fc1ea"/>
    </g>
  </g>
</svg>
