<?xml version="1.0" encoding="iso-8859-1"?>
<!-- Generator: Adobe Illustrator 16.0.0, SVG Export Plug-In . SVG Version: 6.00 Build 0)  -->
<!DOCTYPE svg PUBLIC "-//W3C//DTD SVG 1.1//EN" "http://www.w3.org/Graphics/SVG/1.1/DTD/svg11.dtd">
<svg version="1.1" id="Capa_1" xmlns="http://www.w3.org/2000/svg" xmlns:xlink="http://www.w3.org/1999/xlink" x="0px" y="0px"
	 width="542.527px" height="542.527px" viewBox="0 0 542.527 542.527" style="enable-background:new 0 0 542.527 542.527;"
	 xml:space="preserve">
<g>
	<path d="M383.991,317.52c-12.096,21.057-25.983,38.864-44.464,48.608c-38.191,20.048-69.888,34.495-69.888,34.495l-67.312-34.495
		c-18.704-9.856-34.944-28-48.384-49.504c-57.568,22.96-91.168,77.952-91.168,125.776v100.127h416.977c0,0,0-50.4,0-100.127
		C479.863,395.248,440.439,341.152,383.991,317.52z M144.872,138.544c-0.336,0.112-0.784,0.224-1.12,0.224
		c-8.624,2.128-15.792,7.728-20.832,16.016c-6.944,11.648-8.736,27.216-4.816,42.56c4.816,18.816,17.136,33.488,31.92,38.528
		C167.271,291.871,211.512,350,271.32,350s104.047-58.128,121.295-114.128c14.673-5.04,27.104-19.712,31.809-38.528
		c3.92-15.456,2.128-30.912-4.816-42.56c-4.928-8.288-12.319-14-20.832-16.016c-0.336-0.112-0.784-0.224-1.12-0.224
		C385.672,77.056,344.68,34.048,291.592,25.312c0.336-1.456,0.56-3.024,0.56-4.48C292.151,9.296,282.855,0,271.32,0
		c-11.536,0-20.832,9.296-20.832,20.832c0,1.568,0.224,3.024,0.56,4.48C197.736,34.16,156.855,77.056,144.872,138.544z
		 M389.031,158.144c1.456-0.112,3.36-0.112,4.368,0.112c4.145,1.008,7.168,4.368,8.736,6.944c4.144,6.944,5.264,17.248,2.688,27.328
		c-3.808,15.12-13.775,24.08-21.728,25.2l-6.496,0.896l-1.792,6.384c-14.336,52.191-54.544,105.057-103.6,105.057
		s-89.264-52.865-103.6-105.057l-1.792-6.384l-6.608-0.896c-7.952-1.008-17.92-10.08-21.728-25.2
		c-2.576-10.192-1.568-20.384,2.576-27.328c1.568-2.576,4.256-5.824,8.4-6.944c0.672-0.112,1.344-0.224,2.24-0.224
		c0.56,0,1.12,0,1.68,0.112l4.928,0.224l5.152-3.696c102.48-67.872,205.968-3.808,218.176,4.256L389.031,158.144z M366.184,183.232
		c-1.792-1.568-3.696-3.248-5.824-4.928c-2.128-1.68-4.479-3.136-6.943-4.704c-2.465-1.568-4.929-3.472-7.729-5.04
		c-2.8-1.456-5.712-2.912-8.736-4.48c-5.936-3.248-12.768-5.6-19.823-8.063c-7.168-1.904-14.448-4.48-22.288-5.376
		c-7.729-1.568-15.68-1.792-23.632-2.352c-7.952,0.224-15.904,0.112-23.744,1.456c-7.84,0.672-15.232,2.912-22.512,4.592
		c-7.056,2.24-14,4.48-20.048,7.504c-6.16,2.8-11.872,5.712-16.8,9.184c-2.464,1.68-4.928,3.024-7.056,4.592
		c-2.128,1.792-4.032,3.36-5.936,4.928c-3.808,3.024-6.72,5.824-8.848,8.4c-4.48,5.04-6.944,7.952-6.944,7.952
		s3.472-1.68,9.408-4.816c2.912-1.792,6.608-3.36,10.64-5.152c4.032-1.904,8.624-3.808,13.888-5.712
		c5.04-2.128,10.752-3.584,16.688-5.376c5.936-1.904,12.432-2.688,18.928-4.256c6.72-1.008,13.552-2.016,20.496-2.352
		c6.944-0.784,14.112-0.56,21.28-0.672c7.168,0.448,14.224,0.56,21.28,1.568c7.056,0.672,13.775,2.016,20.496,3.136
		c6.384,1.904,12.992,2.8,18.815,4.928c5.937,1.904,11.648,3.584,16.688,5.824c5.152,1.904,9.855,3.92,13.888,5.936
		c4.145,1.904,7.84,3.472,10.641,5.264c5.823,3.136,9.296,4.928,9.296,4.928s-2.353-2.912-6.944-8.064
		C372.792,189.056,369.88,186.144,366.184,183.232z"/>
</g>
<g>
</g>
<g>
</g>
<g>
</g>
<g>
</g>
<g>
</g>
<g>
</g>
<g>
</g>
<g>
</g>
<g>
</g>
<g>
</g>
<g>
</g>
<g>
</g>
<g>
</g>
<g>
</g>
<g>
</g>
</svg>
