<svg xmlns="http://www.w3.org/2000/svg" width="797.538" height="585.038" viewBox="0 0 797.538 585.038">
  <g id="pwa" transform="translate(-59.528 -48.088)">
    <path id="Caminho_1" data-name="Caminho 1" d="M94.755,169.1V126.392a19.033,19.033,0,0,1,19.033-19.033H560.511a19.033,19.033,0,0,1,19.033,19.033v42.7H94.755Z" transform="translate(86.68 144.612)" fill="#fff" stroke="#212121" stroke-width="1" fill-rule="evenodd"/>
    <path id="Caminho_2" data-name="Caminho 2" d="M118.674,138.05a12.112,12.112,0,0,0-12.112,12.112V226.3a12.112,12.112,0,0,0,12.112,12.112h76.133A12.112,12.112,0,0,0,206.92,226.3V150.162a12.112,12.112,0,0,0-12.112-12.112Z" transform="translate(115.732 220.131)" fill="#ff8100" stroke="#212121" stroke-width="1" fill-rule="evenodd"/>
    <path id="Caminho_3" data-name="Caminho 3" d="M160.492,138.05a12.112,12.112,0,0,0-12.112,12.112V226.3a12.112,12.112,0,0,0,12.112,12.112h76.133A12.112,12.112,0,0,0,248.738,226.3V150.162a12.112,12.112,0,0,0-12.112-12.112Z" transform="translate(218.63 220.131)" fill="#ffc836" stroke="#212121" stroke-width="1" fill-rule="evenodd"/>
    <g id="Grupo_2" data-name="Grupo 2" transform="translate(59.528 80.381)" opacity="0.1">
      <path id="Caminho_4" data-name="Caminho 4" d="M13.312,1.05A12.112,12.112,0,0,0,1.2,13.162V89.3a12.112,12.112,0,0,0,12.112,12.112H89.445A12.112,12.112,0,0,0,101.558,89.3V13.162A12.112,12.112,0,0,0,89.445,1.05H13.312Z" transform="translate(451.004 276.75)" fill="rgba(0,0,0,0)" stroke="#212121" stroke-width="1" fill-rule="evenodd"/>
      <g id="Grupo_1" data-name="Grupo 1" transform="translate(0)">
        <path id="Caminho_5" data-name="Caminho 5" d="M-129.472,93.913H668.066M216.364-77.993V462.758m310.2-540.751V462.758M250.828-77.993V462.758M561.033-77.993V462.758M285.3-77.993V462.758M595.5-77.993V462.758M319.763-77.993V462.758M629.968-77.993V462.758M354.231-77.993V462.758M664.436-77.993V462.758M388.7-77.993V462.758M181.9-77.993V462.758M492.1-77.993V462.758M147.428-77.993V462.758M457.633-77.993V462.758M112.961-77.993V462.758M423.166-77.993V462.758M78.493-79.225V461.519M44.025-79.225V461.519M9.558-79.225V461.519M-24.91-79.225V461.519M-59.377-79.225V461.519M-93.842-79.225V461.519M-128.309-79.225V461.519m-1.163-402.008H668.066m-797.538-34.4H668.066M-129.472-9.29H668.066m-797.538-34.4H668.066m-797.538-34.4H668.066M-129.472,128.314H668.066m-797.538,34.4H668.066m-797.538,34.4H668.066m-797.538,34.4H668.066m-797.538,34.4H668.066m-797.538,34.4H668.066m-797.538,34.4H668.066m-797.538,34.4H668.066m-797.538,34.4H668.066m-797.538,34.4H668.066" transform="translate(129.472 79.225)" fill="rgba(0,0,0,0)" stroke="#212121" stroke-width="0.85" fill-rule="evenodd"/>
      </g>
    </g>
    <path id="Caminho_6" data-name="Caminho 6" d="M211.314,131.479h90.471a27.685,27.685,0,0,1,27.685,27.685v90.471a27.685,27.685,0,0,1-27.685,27.685H211.314a27.685,27.685,0,0,1-27.685-27.685V159.164A27.685,27.685,0,0,1,211.314,131.479Z" transform="translate(305.364 203.962)" fill="rgba(0,0,0,0)" stroke="#212121" stroke-width="0.85" stroke-dasharray="2.55" fill-rule="evenodd"/>
    <circle id="Elipse_1" data-name="Elipse 1" cx="8.652" cy="8.652" r="8.652" transform="translate(568.933 417.052)" fill="#ffee43" stroke="#212121" stroke-width="1"/>
    <circle id="Elipse_2" data-name="Elipse 2" cx="8.652" cy="8.652" r="8.652" transform="translate(534.527 382.429)" fill="#ffee43" stroke="#212121" stroke-width="1"/>
    <path id="Caminho_7" data-name="Caminho 7" d="M202.2,48.588A12.112,12.112,0,0,0,190.088,60.7v76.133A12.112,12.112,0,0,0,202.2,148.946h76.133a12.112,12.112,0,0,0,12.112-12.112V60.7a12.112,12.112,0,0,0-12.112-12.112H202.2Z" transform="translate(321.257 0)" fill="#ffee43" stroke="#212121" stroke-width="1" fill-rule="evenodd"/>
    <path id="Caminho_8" data-name="Caminho 8" d="M222.324,62.5V196.893m23.937-24.518-24.29,24.293-24.29-24.293" transform="translate(339.94 34.232)" fill="rgba(0,0,0,0)" stroke="#212121" stroke-width="1" fill-rule="evenodd"/>
    <path id="Caminho_9" data-name="Caminho 9" d="M157.5,114.633a7.366,7.366,0,0,0,0,14.732h88.135a7.366,7.366,0,0,0,0-14.732H157.5Z" transform="translate(222.954 162.511)" fill="#f5f5f5" stroke="#212121" stroke-width="1" fill-rule="evenodd"/>
    <path id="Caminho_10" data-name="Caminho 10" d="M94.75,124.9V445.352M579.269,124.9V445.352" transform="translate(86.667 187.774)" fill="rgba(0,0,0,0)" stroke="#212121" stroke-width="1" fill-rule="evenodd"/>
  </g>
</svg>
