<svg xmlns="http://www.w3.org/2000/svg" xmlns:xlink="http://www.w3.org/1999/xlink" width="800" height="632" viewBox="0 0 800 632">
  <defs>
    <clipPath id="clip-relational-docs">
      <rect width="800" height="632"/>
    </clipPath>
  </defs>
  <g id="relational-docs" clip-path="url(#clip-relational-docs)">
    <g id="Page-1" opacity="0.1">
      <g id="Desktop-HD" transform="translate(-521 -44)">
        <g id="Group-11" transform="translate(521 44)">
          <g id="Group">
            <circle id="Oval-11-Copy-337" cx="1" cy="1" r="1" transform="translate(294 630)" fill="none" stroke="#707070" stroke-width="1"/>
            <circle id="Oval-11-Copy-336" cx="1" cy="1" r="1" transform="translate(252 630)" fill="none" stroke="#707070" stroke-width="1"/>
            <circle id="Oval-11-Copy-330" cx="1" cy="1" r="1" transform="translate(0 630)" fill="none" stroke="#707070" stroke-width="1"/>
            <circle id="Oval-11-Copy-317" cx="1" cy="1" r="1" transform="translate(294 588)" fill="none" stroke="#707070" stroke-width="1"/>
            <circle id="Oval-11-Copy-314" cx="1" cy="1" r="1" transform="translate(168 588)" fill="none" stroke="#707070" stroke-width="1"/>
            <circle id="Oval-11-Copy-312" cx="1" cy="1" r="1" transform="translate(84 588)" fill="none" stroke="#707070" stroke-width="1"/>
            <circle id="Oval-11-Copy-304" cx="1" cy="1" r="1" transform="translate(588 546)" fill="none" stroke="#707070" stroke-width="1"/>
            <circle id="Oval-11-Copy-303" cx="1" cy="1" r="1" transform="translate(546 546)" fill="none" stroke="#707070" stroke-width="1"/>
            <circle id="Oval-11-Copy-300" cx="1" cy="1" r="1" transform="translate(420 546)" fill="none" stroke="#707070" stroke-width="1"/>
            <circle id="Oval-11-Copy-299" cx="1" cy="1" r="1" transform="translate(378 546)" fill="none" stroke="#707070" stroke-width="1"/>
            <circle id="Oval-11-Copy-298" cx="1" cy="1" r="1" transform="translate(336 546)" fill="none" stroke="#707070" stroke-width="1"/>
            <circle id="Oval-11-Copy-297" cx="1" cy="1" r="1" transform="translate(294 546)" fill="none" stroke="#707070" stroke-width="1"/>
            <circle id="Oval-11-Copy-296" cx="1" cy="1" r="1" transform="translate(252 546)" fill="none" stroke="#707070" stroke-width="1"/>
            <circle id="Oval-11-Copy-295" cx="1" cy="1" r="1" transform="translate(210 546)" fill="none" stroke="#707070" stroke-width="1"/>
            <circle id="Oval-11-Copy-294" cx="1" cy="1" r="1" transform="translate(168 546)" fill="none" stroke="#707070" stroke-width="1"/>
            <circle id="Oval-11-Copy-292" cx="1" cy="1" r="1" transform="translate(84 546)" fill="none" stroke="#707070" stroke-width="1"/>
            <circle id="Oval-11-Copy-291" cx="1" cy="1" r="1" transform="translate(42 546)" fill="none" stroke="#707070" stroke-width="1"/>
            <circle id="Oval-11-Copy-284" cx="1" cy="1" r="1" transform="translate(588 504)" fill="none" stroke="#707070" stroke-width="1"/>
            <circle id="Oval-11-Copy-283" cx="1" cy="1" r="1" transform="translate(546 504)" fill="none" stroke="#707070" stroke-width="1"/>
            <circle id="Oval-11-Copy-282" cx="1" cy="1" r="1" transform="translate(504 504)" fill="none" stroke="#707070" stroke-width="1"/>
            <circle id="Oval-11-Copy-281" cx="1" cy="1" r="1" transform="translate(462 504)" fill="none" stroke="#707070" stroke-width="1"/>
            <circle id="Oval-11-Copy-280" cx="1" cy="1" r="1" transform="translate(420 504)" fill="none" stroke="#707070" stroke-width="1"/>
            <circle id="Oval-11-Copy-279" cx="1" cy="1" r="1" transform="translate(378 504)" fill="none" stroke="#707070" stroke-width="1"/>
            <circle id="Oval-11-Copy-278" cx="1" cy="1" r="1" transform="translate(336 504)" fill="none" stroke="#707070" stroke-width="1"/>
            <circle id="Oval-11-Copy-277" cx="1" cy="1" r="1" transform="translate(294 504)" fill="none" stroke="#707070" stroke-width="1"/>
            <circle id="Oval-11-Copy-276" cx="1" cy="1" r="1" transform="translate(252 504)" fill="none" stroke="#707070" stroke-width="1"/>
            <circle id="Oval-11-Copy-275" cx="1" cy="1" r="1" transform="translate(210 504)" fill="none" stroke="#707070" stroke-width="1"/>
            <circle id="Oval-11-Copy-274" cx="1" cy="1" r="1" transform="translate(168 504)" fill="none" stroke="#707070" stroke-width="1"/>
            <circle id="Oval-11-Copy-273" cx="1" cy="1" r="1" transform="translate(126 504)" fill="none" stroke="#707070" stroke-width="1"/>
            <circle id="Oval-11-Copy-272" cx="1" cy="1" r="1" transform="translate(84 504)" fill="none" stroke="#707070" stroke-width="1"/>
            <circle id="Oval-11-Copy-271" cx="1" cy="1" r="1" transform="translate(42 504)" fill="none" stroke="#707070" stroke-width="1"/>
            <circle id="Oval-11-Copy-268" cx="1" cy="1" r="1" transform="translate(756 462)" fill="none" stroke="#707070" stroke-width="1"/>
            <circle id="Oval-11-Copy-267" cx="1" cy="1" r="1" transform="translate(714 462)" fill="none" stroke="#707070" stroke-width="1"/>
            <circle id="Oval-11-Copy-266" cx="1" cy="1" r="1" transform="translate(672 462)" fill="none" stroke="#707070" stroke-width="1"/>
            <circle id="Oval-11-Copy-265" cx="1" cy="1" r="1" transform="translate(630 462)" fill="none" stroke="#707070" stroke-width="1"/>
            <circle id="Oval-11-Copy-264" cx="1" cy="1" r="1" transform="translate(588 462)" fill="none" stroke="#707070" stroke-width="1"/>
            <circle id="Oval-11-Copy-263" cx="1" cy="1" r="1" transform="translate(546 462)" fill="none" stroke="#707070" stroke-width="1"/>
            <circle id="Oval-11-Copy-262" cx="1" cy="1" r="1" transform="translate(504 462)" fill="none" stroke="#707070" stroke-width="1"/>
            <circle id="Oval-11-Copy-261" cx="1" cy="1" r="1" transform="translate(462 462)" fill="none" stroke="#707070" stroke-width="1"/>
            <circle id="Oval-11-Copy-260" cx="1" cy="1" r="1" transform="translate(420 462)" fill="none" stroke="#707070" stroke-width="1"/>
            <circle id="Oval-11-Copy-259" cx="1" cy="1" r="1" transform="translate(378 462)" fill="none" stroke="#707070" stroke-width="1"/>
            <circle id="Oval-11-Copy-258" cx="1" cy="1" r="1" transform="translate(336 462)" fill="none" stroke="#707070" stroke-width="1"/>
            <circle id="Oval-11-Copy-257" cx="1" cy="1" r="1" transform="translate(294 462)" fill="none" stroke="#707070" stroke-width="1"/>
            <circle id="Oval-11-Copy-256" cx="1" cy="1" r="1" transform="translate(252 462)" fill="none" stroke="#707070" stroke-width="1"/>
            <circle id="Oval-11-Copy-255" cx="1" cy="1" r="1" transform="translate(210 462)" fill="none" stroke="#707070" stroke-width="1"/>
            <circle id="Oval-11-Copy-254" cx="1" cy="1" r="1" transform="translate(168 462)" fill="none" stroke="#707070" stroke-width="1"/>
            <circle id="Oval-11-Copy-253" cx="1" cy="1" r="1" transform="translate(126 462)" fill="none" stroke="#707070" stroke-width="1"/>
            <circle id="Oval-11-Copy-251" cx="1" cy="1" r="1" transform="translate(42 462)" fill="none" stroke="#707070" stroke-width="1"/>
            <circle id="Oval-11-Copy-247" cx="1" cy="1" r="1" transform="translate(714 420)" fill="none" stroke="#707070" stroke-width="1"/>
            <circle id="Oval-11-Copy-246" cx="1" cy="1" r="1" transform="translate(672 420)" fill="none" stroke="#707070" stroke-width="1"/>
            <circle id="Oval-11-Copy-245" cx="1" cy="1" r="1" transform="translate(630 420)" fill="none" stroke="#707070" stroke-width="1"/>
            <circle id="Oval-11-Copy-244" cx="1" cy="1" r="1" transform="translate(588 420)" fill="none" stroke="#707070" stroke-width="1"/>
            <circle id="Oval-11-Copy-243" cx="1" cy="1" r="1" transform="translate(546 420)" fill="none" stroke="#707070" stroke-width="1"/>
            <circle id="Oval-11-Copy-242" cx="1" cy="1" r="1" transform="translate(504 420)" fill="none" stroke="#707070" stroke-width="1"/>
            <circle id="Oval-11-Copy-241" cx="1" cy="1" r="1" transform="translate(462 420)" fill="none" stroke="#707070" stroke-width="1"/>
            <circle id="Oval-11-Copy-240" cx="1" cy="1" r="1" transform="translate(420 420)" fill="none" stroke="#707070" stroke-width="1"/>
            <circle id="Oval-11-Copy-239" cx="1" cy="1" r="1" transform="translate(378 420)" fill="none" stroke="#707070" stroke-width="1"/>
            <circle id="Oval-11-Copy-238" cx="1" cy="1" r="1" transform="translate(336 420)" fill="none" stroke="#707070" stroke-width="1"/>
            <circle id="Oval-11-Copy-237" cx="1" cy="1" r="1" transform="translate(294 420)" fill="none" stroke="#707070" stroke-width="1"/>
            <circle id="Oval-11-Copy-236" cx="1" cy="1" r="1" transform="translate(252 420)" fill="none" stroke="#707070" stroke-width="1"/>
            <circle id="Oval-11-Copy-235" cx="1" cy="1" r="1" transform="translate(210 420)" fill="none" stroke="#707070" stroke-width="1"/>
            <circle id="Oval-11-Copy-234" cx="1" cy="1" r="1" transform="translate(168 420)" fill="none" stroke="#707070" stroke-width="1"/>
            <circle id="Oval-11-Copy-233" cx="1" cy="1" r="1" transform="translate(126 420)" fill="none" stroke="#707070" stroke-width="1"/>
            <circle id="Oval-11-Copy-232" cx="1" cy="1" r="1" transform="translate(84 420)" fill="none" stroke="#707070" stroke-width="1"/>
            <circle id="Oval-11-Copy-230" cx="1" cy="1" r="1" transform="translate(0 420)" fill="none" stroke="#707070" stroke-width="1"/>
            <circle id="Oval-11-Copy-227" cx="1" cy="1" r="1" transform="translate(714 378)" fill="none" stroke="#707070" stroke-width="1"/>
            <circle id="Oval-11-Copy-226" cx="1" cy="1" r="1" transform="translate(672 378)" fill="none" stroke="#707070" stroke-width="1"/>
            <circle id="Oval-11-Copy-225" cx="1" cy="1" r="1" transform="translate(630 378)" fill="none" stroke="#707070" stroke-width="1"/>
            <circle id="Oval-11-Copy-224" cx="1" cy="1" r="1" transform="translate(588 378)" fill="none" stroke="#707070" stroke-width="1"/>
            <circle id="Oval-11-Copy-223" cx="1" cy="1" r="1" transform="translate(546 378)" fill="none" stroke="#707070" stroke-width="1"/>
            <circle id="Oval-11-Copy-222" cx="1" cy="1" r="1" transform="translate(504 378)" fill="none" stroke="#707070" stroke-width="1"/>
            <circle id="Oval-11-Copy-221" cx="1" cy="1" r="1" transform="translate(462 378)" fill="none" stroke="#707070" stroke-width="1"/>
            <circle id="Oval-11-Copy-220" cx="1" cy="1" r="1" transform="translate(420 378)" fill="none" stroke="#707070" stroke-width="1"/>
            <circle id="Oval-11-Copy-219" cx="1" cy="1" r="1" transform="translate(378 378)" fill="none" stroke="#707070" stroke-width="1"/>
            <circle id="Oval-11-Copy-218" cx="1" cy="1" r="1" transform="translate(336 378)" fill="none" stroke="#707070" stroke-width="1"/>
            <circle id="Oval-11-Copy-217" cx="1" cy="1" r="1" transform="translate(294 378)" fill="none" stroke="#707070" stroke-width="1"/>
            <circle id="Oval-11-Copy-216" cx="1" cy="1" r="1" transform="translate(252 378)" fill="none" stroke="#707070" stroke-width="1"/>
            <circle id="Oval-11-Copy-215" cx="1" cy="1" r="1" transform="translate(210 378)" fill="none" stroke="#707070" stroke-width="1"/>
            <circle id="Oval-11-Copy-214" cx="1" cy="1" r="1" transform="translate(168 378)" fill="none" stroke="#707070" stroke-width="1"/>
            <circle id="Oval-11-Copy-213" cx="1" cy="1" r="1" transform="translate(126 378)" fill="none" stroke="#707070" stroke-width="1"/>
            <circle id="Oval-11-Copy-212" cx="1" cy="1" r="1" transform="translate(84 378)" fill="none" stroke="#707070" stroke-width="1"/>
            <circle id="Oval-11-Copy-211" cx="1" cy="1" r="1" transform="translate(42 378)" fill="none" stroke="#707070" stroke-width="1"/>
            <circle id="Oval-11-Copy-208" cx="1" cy="1" r="1" transform="translate(756 336)" fill="none" stroke="#707070" stroke-width="1"/>
            <circle id="Oval-11-Copy-207" cx="1" cy="1" r="1" transform="translate(714 336)" fill="none" stroke="#707070" stroke-width="1"/>
            <circle id="Oval-11-Copy-206" cx="1" cy="1" r="1" transform="translate(672 336)" fill="none" stroke="#707070" stroke-width="1"/>
            <circle id="Oval-11-Copy-205" cx="1" cy="1" r="1" transform="translate(630 336)" fill="none" stroke="#707070" stroke-width="1"/>
            <circle id="Oval-11-Copy-204" cx="1" cy="1" r="1" transform="translate(588 336)" fill="none" stroke="#707070" stroke-width="1"/>
            <circle id="Oval-11-Copy-203" cx="1" cy="1" r="1" transform="translate(546 336)" fill="none" stroke="#707070" stroke-width="1"/>
            <circle id="Oval-11-Copy-202" cx="1" cy="1" r="1" transform="translate(504 336)" fill="none" stroke="#707070" stroke-width="1"/>
            <circle id="Oval-11-Copy-201" cx="1" cy="1" r="1" transform="translate(462 336)" fill="none" stroke="#707070" stroke-width="1"/>
            <circle id="Oval-11-Copy-200" cx="1" cy="1" r="1" transform="translate(420 336)" fill="none" stroke="#707070" stroke-width="1"/>
            <circle id="Oval-11-Copy-199" cx="1" cy="1" r="1" transform="translate(378 336)" fill="none" stroke="#707070" stroke-width="1"/>
            <circle id="Oval-11-Copy-198" cx="1" cy="1" r="1" transform="translate(336 336)" fill="none" stroke="#707070" stroke-width="1"/>
            <circle id="Oval-11-Copy-197" cx="1" cy="1" r="1" transform="translate(294 336)" fill="none" stroke="#707070" stroke-width="1"/>
            <circle id="Oval-11-Copy-196" cx="1" cy="1" r="1" transform="translate(252 336)" fill="none" stroke="#707070" stroke-width="1"/>
            <circle id="Oval-11-Copy-195" cx="1" cy="1" r="1" transform="translate(210 336)" fill="none" stroke="#707070" stroke-width="1"/>
            <circle id="Oval-11-Copy-194" cx="1" cy="1" r="1" transform="translate(168 336)" fill="none" stroke="#707070" stroke-width="1"/>
            <circle id="Oval-11-Copy-193" cx="1" cy="1" r="1" transform="translate(126 336)" fill="none" stroke="#707070" stroke-width="1"/>
            <circle id="Oval-11-Copy-192" cx="1" cy="1" r="1" transform="translate(84 336)" fill="none" stroke="#707070" stroke-width="1"/>
            <circle id="Oval-11-Copy-187" cx="1" cy="1" r="1" transform="translate(714 294)" fill="none" stroke="#707070" stroke-width="1"/>
            <circle id="Oval-11-Copy-186" cx="1" cy="1" r="1" transform="translate(672 294)" fill="none" stroke="#707070" stroke-width="1"/>
            <circle id="Oval-11-Copy-185" cx="1" cy="1" r="1" transform="translate(630 294)" fill="none" stroke="#707070" stroke-width="1"/>
            <circle id="Oval-11-Copy-181" cx="1" cy="1" r="1" transform="translate(462 294)" fill="none" stroke="#707070" stroke-width="1"/>
            <circle id="Oval-11-Copy-180" cx="1" cy="1" r="1" transform="translate(420 294)" fill="none" stroke="#707070" stroke-width="1"/>
            <circle id="Oval-11-Copy-179" cx="1" cy="1" r="1" transform="translate(378 294)" fill="none" stroke="#707070" stroke-width="1"/>
            <circle id="Oval-11-Copy-178" cx="1" cy="1" r="1" transform="translate(336 294)" fill="none" stroke="#707070" stroke-width="1"/>
            <circle id="Oval-11-Copy-177" cx="1" cy="1" r="1" transform="translate(294 294)" fill="none" stroke="#707070" stroke-width="1"/>
            <circle id="Oval-11-Copy-176" cx="1" cy="1" r="1" transform="translate(252 294)" fill="none" stroke="#707070" stroke-width="1"/>
            <circle id="Oval-11-Copy-175" cx="1" cy="1" r="1" transform="translate(210 294)" fill="none" stroke="#707070" stroke-width="1"/>
            <circle id="Oval-11-Copy-173" cx="1" cy="1" r="1" transform="translate(126 294)" fill="none" stroke="#707070" stroke-width="1"/>
            <circle id="Oval-11-Copy-172" cx="1" cy="1" r="1" transform="translate(84 294)" fill="none" stroke="#707070" stroke-width="1"/>
            <circle id="Oval-11-Copy-171" cx="1" cy="1" r="1" transform="translate(42 294)" fill="none" stroke="#707070" stroke-width="1"/>
            <circle id="Oval-11-Copy-170" cx="1" cy="1" r="1" transform="translate(0 294)" fill="none" stroke="#707070" stroke-width="1"/>
            <circle id="Oval-11-Copy-169" cx="1" cy="1" r="1" transform="translate(798 252)" fill="none" stroke="#707070" stroke-width="1"/>
            <circle id="Oval-11-Copy-168" cx="1" cy="1" r="1" transform="translate(756 252)" fill="none" stroke="#707070" stroke-width="1"/>
            <circle id="Oval-11-Copy-167" cx="1" cy="1" r="1" transform="translate(714 252)" fill="none" stroke="#707070" stroke-width="1"/>
            <circle id="Oval-11-Copy-166" cx="1" cy="1" r="1" transform="translate(672 252)" fill="none" stroke="#707070" stroke-width="1"/>
            <circle id="Oval-11-Copy-165" cx="1" cy="1" r="1" transform="translate(630 252)" fill="none" stroke="#707070" stroke-width="1"/>
            <circle id="Oval-11-Copy-161" cx="1" cy="1" r="1" transform="translate(462 252)" fill="none" stroke="#707070" stroke-width="1"/>
            <circle id="Oval-11-Copy-160" cx="1" cy="1" r="1" transform="translate(420 252)" fill="none" stroke="#707070" stroke-width="1"/>
            <circle id="Oval-11-Copy-159" cx="1" cy="1" r="1" transform="translate(378 252)" fill="none" stroke="#707070" stroke-width="1"/>
            <circle id="Oval-11-Copy-158" cx="1" cy="1" r="1" transform="translate(336 252)" fill="none" stroke="#707070" stroke-width="1"/>
            <circle id="Oval-11-Copy-157" cx="1" cy="1" r="1" transform="translate(294 252)" fill="none" stroke="#707070" stroke-width="1"/>
            <circle id="Oval-11-Copy-156" cx="1" cy="1" r="1" transform="translate(252 252)" fill="none" stroke="#707070" stroke-width="1"/>
            <circle id="Oval-11-Copy-155" cx="1" cy="1" r="1" transform="translate(210 252)" fill="none" stroke="#707070" stroke-width="1"/>
            <circle id="Oval-11-Copy-153" cx="1" cy="1" r="1" transform="translate(126 252)" fill="none" stroke="#707070" stroke-width="1"/>
            <circle id="Oval-11-Copy-152" cx="1" cy="1" r="1" transform="translate(84 252)" fill="none" stroke="#707070" stroke-width="1"/>
            <circle id="Oval-11-Copy-151" cx="1" cy="1" r="1" transform="translate(42 252)" fill="none" stroke="#707070" stroke-width="1"/>
            <circle id="Oval-11-Copy-145" cx="1" cy="1" r="1" transform="translate(630 210)" fill="none" stroke="#707070" stroke-width="1"/>
            <circle id="Oval-11-Copy-144" cx="1" cy="1" r="1" transform="translate(588 210)" fill="none" stroke="#707070" stroke-width="1"/>
            <circle id="Oval-11-Copy-143" cx="1" cy="1" r="1" transform="translate(546 210)" fill="none" stroke="#707070" stroke-width="1"/>
            <circle id="Oval-11-Copy-142" cx="1" cy="1" r="1" transform="translate(504 210)" fill="none" stroke="#707070" stroke-width="1"/>
            <circle id="Oval-11-Copy-141" cx="1" cy="1" r="1" transform="translate(462 210)" fill="none" stroke="#707070" stroke-width="1"/>
            <circle id="Oval-11-Copy-140" cx="1" cy="1" r="1" transform="translate(420 210)" fill="none" stroke="#707070" stroke-width="1"/>
            <circle id="Oval-11-Copy-139" cx="1" cy="1" r="1" transform="translate(378 210)" fill="none" stroke="#707070" stroke-width="1"/>
            <circle id="Oval-11-Copy-138" cx="1" cy="1" r="1" transform="translate(336 210)" fill="none" stroke="#707070" stroke-width="1"/>
            <circle id="Oval-11-Copy-137" cx="1" cy="1" r="1" transform="translate(294 210)" fill="none" stroke="#707070" stroke-width="1"/>
            <circle id="Oval-11-Copy-136" cx="1" cy="1" r="1" transform="translate(252 210)" fill="none" stroke="#707070" stroke-width="1"/>
            <circle id="Oval-11-Copy-135" cx="1" cy="1" r="1" transform="translate(210 210)" fill="none" stroke="#707070" stroke-width="1"/>
            <circle id="Oval-11-Copy-134" cx="1" cy="1" r="1" transform="translate(168 210)" fill="none" stroke="#707070" stroke-width="1"/>
            <circle id="Oval-11-Copy-131" cx="1" cy="1" r="1" transform="translate(42 210)" fill="none" stroke="#707070" stroke-width="1"/>
            <circle id="Oval-11-Copy-126" cx="1" cy="1" r="1" transform="translate(672 168)" fill="none" stroke="#707070" stroke-width="1"/>
            <circle id="Oval-11-Copy-125" cx="1" cy="1" r="1" transform="translate(630 168)" fill="none" stroke="#707070" stroke-width="1"/>
            <circle id="Oval-11-Copy-124" cx="1" cy="1" r="1" transform="translate(588 168)" fill="none" stroke="#707070" stroke-width="1"/>
            <circle id="Oval-11-Copy-123" cx="1" cy="1" r="1" transform="translate(546 168)" fill="none" stroke="#707070" stroke-width="1"/>
            <circle id="Oval-11-Copy-122" cx="1" cy="1" r="1" transform="translate(504 168)" fill="none" stroke="#707070" stroke-width="1"/>
            <circle id="Oval-11-Copy-121" cx="1" cy="1" r="1" transform="translate(462 168)" fill="none" stroke="#707070" stroke-width="1"/>
            <circle id="Oval-11-Copy-120" cx="1" cy="1" r="1" transform="translate(420 168)" fill="none" stroke="#707070" stroke-width="1"/>
            <circle id="Oval-11-Copy-119" cx="1" cy="1" r="1" transform="translate(378 168)" fill="none" stroke="#707070" stroke-width="1"/>
            <circle id="Oval-11-Copy-118" cx="1" cy="1" r="1" transform="translate(336 168)" fill="none" stroke="#707070" stroke-width="1"/>
            <circle id="Oval-11-Copy-117" cx="1" cy="1" r="1" transform="translate(294 168)" fill="none" stroke="#707070" stroke-width="1"/>
            <circle id="Oval-11-Copy-116" cx="1" cy="1" r="1" transform="translate(252 168)" fill="none" stroke="#707070" stroke-width="1"/>
            <circle id="Oval-11-Copy-115" cx="1" cy="1" r="1" transform="translate(210 168)" fill="none" stroke="#707070" stroke-width="1"/>
            <circle id="Oval-11-Copy-114" cx="1" cy="1" r="1" transform="translate(168 168)" fill="none" stroke="#707070" stroke-width="1"/>
            <circle id="Oval-11-Copy-113" cx="1" cy="1" r="1" transform="translate(126 168)" fill="none" stroke="#707070" stroke-width="1"/>
            <circle id="Oval-11-Copy-112" cx="1" cy="1" r="1" transform="translate(84 168)" fill="none" stroke="#707070" stroke-width="1"/>
            <circle id="Oval-11-Copy-109" cx="1" cy="1" r="1" transform="translate(798 126)" fill="none" stroke="#707070" stroke-width="1"/>
            <circle id="Oval-11-Copy-108" cx="1" cy="1" r="1" transform="translate(756 126)" fill="none" stroke="#707070" stroke-width="1"/>
            <circle id="Oval-11-Copy-107" cx="1" cy="1" r="1" transform="translate(714 126)" fill="none" stroke="#707070" stroke-width="1"/>
            <circle id="Oval-11-Copy-106" cx="1" cy="1" r="1" transform="translate(672 126)" fill="none" stroke="#707070" stroke-width="1"/>
            <circle id="Oval-11-Copy-105" cx="1" cy="1" r="1" transform="translate(630 126)" fill="none" stroke="#707070" stroke-width="1"/>
            <circle id="Oval-11-Copy-104" cx="1" cy="1" r="1" transform="translate(588 126)" fill="none" stroke="#707070" stroke-width="1"/>
            <circle id="Oval-11-Copy-103" cx="1" cy="1" r="1" transform="translate(546 126)" fill="none" stroke="#707070" stroke-width="1"/>
            <circle id="Oval-11-Copy-102" cx="1" cy="1" r="1" transform="translate(504 126)" fill="none" stroke="#707070" stroke-width="1"/>
            <circle id="Oval-11-Copy-101" cx="1" cy="1" r="1" transform="translate(462 126)" fill="none" stroke="#707070" stroke-width="1"/>
            <circle id="Oval-11-Copy-100" cx="1" cy="1" r="1" transform="translate(420 126)" fill="none" stroke="#707070" stroke-width="1"/>
            <circle id="Oval-11-Copy-99" cx="1" cy="1" r="1" transform="translate(378 126)" fill="none" stroke="#707070" stroke-width="1"/>
            <circle id="Oval-11-Copy-98" cx="1" cy="1" r="1" transform="translate(336 126)" fill="none" stroke="#707070" stroke-width="1"/>
            <circle id="Oval-11-Copy-97" cx="1" cy="1" r="1" transform="translate(294 126)" fill="none" stroke="#707070" stroke-width="1"/>
            <circle id="Oval-11-Copy-93" cx="1" cy="1" r="1" transform="translate(126 126)" fill="none" stroke="#707070" stroke-width="1"/>
            <circle id="Oval-11-Copy-86" cx="1" cy="1" r="1" transform="translate(672 84)" fill="none" stroke="#707070" stroke-width="1"/>
            <circle id="Oval-11-Copy-85" cx="1" cy="1" r="1" transform="translate(630 84)" fill="none" stroke="#707070" stroke-width="1"/>
            <circle id="Oval-11-Copy-84" cx="1" cy="1" r="1" transform="translate(588 84)" fill="none" stroke="#707070" stroke-width="1"/>
            <circle id="Oval-11-Copy-83" cx="1" cy="1" r="1" transform="translate(546 84)" fill="none" stroke="#707070" stroke-width="1"/>
            <circle id="Oval-11-Copy-82" cx="1" cy="1" r="1" transform="translate(504 84)" fill="none" stroke="#707070" stroke-width="1"/>
            <circle id="Oval-11-Copy-81" cx="1" cy="1" r="1" transform="translate(462 84)" fill="none" stroke="#707070" stroke-width="1"/>
            <circle id="Oval-11-Copy-80" cx="1" cy="1" r="1" transform="translate(420 84)" fill="none" stroke="#707070" stroke-width="1"/>
            <circle id="Oval-11-Copy-79" cx="1" cy="1" r="1" transform="translate(378 84)" fill="none" stroke="#707070" stroke-width="1"/>
            <circle id="Oval-11-Copy-78" cx="1" cy="1" r="1" transform="translate(336 84)" fill="none" stroke="#707070" stroke-width="1"/>
            <circle id="Oval-11-Copy-77" cx="1" cy="1" r="1" transform="translate(294 84)" fill="none" stroke="#707070" stroke-width="1"/>
            <circle id="Oval-11-Copy-76" cx="1" cy="1" r="1" transform="translate(252 84)" fill="none" stroke="#707070" stroke-width="1"/>
            <circle id="Oval-11-Copy-75" cx="1" cy="1" r="1" transform="translate(210 84)" fill="none" stroke="#707070" stroke-width="1"/>
            <circle id="Oval-11-Copy-66" cx="1" cy="1" r="1" transform="translate(672 42)" fill="none" stroke="#707070" stroke-width="1"/>
            <circle id="Oval-11-Copy-65" cx="1" cy="1" r="1" transform="translate(630 42)" fill="none" stroke="#707070" stroke-width="1"/>
            <circle id="Oval-11-Copy-64" cx="1" cy="1" r="1" transform="translate(588 42)" fill="none" stroke="#707070" stroke-width="1"/>
            <circle id="Oval-11-Copy-63" cx="1" cy="1" r="1" transform="translate(546 42)" fill="none" stroke="#707070" stroke-width="1"/>
            <circle id="Oval-11-Copy-62" cx="1" cy="1" r="1" transform="translate(504 42)" fill="none" stroke="#707070" stroke-width="1"/>
            <circle id="Oval-11-Copy-59" cx="1" cy="1" r="1" transform="translate(378 42)" fill="none" stroke="#707070" stroke-width="1"/>
            <circle id="Oval-11-Copy-58" cx="1" cy="1" r="1" transform="translate(336 42)" fill="none" stroke="#707070" stroke-width="1"/>
            <circle id="Oval-11-Copy-57" cx="1" cy="1" r="1" transform="translate(294 42)" fill="none" stroke="#707070" stroke-width="1"/>
            <circle id="Oval-11-Copy-56" cx="1" cy="1" r="1" transform="translate(252 42)" fill="none" stroke="#707070" stroke-width="1"/>
            <circle id="Oval-11-Copy-46" cx="1" cy="1" r="1" transform="translate(672)" fill="none" stroke="#707070" stroke-width="1"/>
            <circle id="Oval-11-Copy-45" cx="1" cy="1" r="1" transform="translate(630)" fill="none" stroke="#707070" stroke-width="1"/>
            <circle id="Oval-11-Copy-44" cx="1" cy="1" r="1" transform="translate(588)" fill="none" stroke="#707070" stroke-width="1"/>
            <circle id="Oval-11-Copy-43" cx="1" cy="1" r="1" transform="translate(546)" fill="none" stroke="#707070" stroke-width="1"/>
            <circle id="Oval-11-Copy-42" cx="1" cy="1" r="1" transform="translate(504)" fill="none" stroke="#707070" stroke-width="1"/>
            <circle id="Oval-11-Copy-39" cx="1" cy="1" r="1" transform="translate(378)" fill="none" stroke="#707070" stroke-width="1"/>
          </g>
          <g id="Group-6" transform="translate(70 93)">
            <g id="Group-2" data-name="Group" transform="translate(0 146)">
              <g id="Rectangle-4">
                <rect id="Retângulo_1" data-name="Retângulo 1" width="120" height="140" rx="3" fill="none" stroke="#707070" stroke-width="1"/>
                <rect id="Retângulo_2" data-name="Retângulo 2" width="120" height="140" rx="3" fill="none" stroke="#899199" stroke-width="2"/>
              </g>
              <rect id="Rectangle-5" width="100" height="19" rx="3" stroke-width="2" fill="none" stroke="#899199" transform="translate(10 12)"/>
              <rect id="Rectangle-5-Copy" width="69" height="50" rx="3" stroke-width="2" fill="none" stroke="#899199" transform="translate(10 36)"/>
              <rect id="Rectangle-5-Copy-2" width="69" height="8" rx="2" stroke-width="2" fill="none" stroke="#899199" transform="translate(10 91)"/>
              <rect id="Rectangle-5-Copy-4" width="93" height="8" rx="2" stroke-width="2" fill="none" stroke="#899199" transform="translate(10 104)"/>
            </g>
            <g id="Group-4" transform="translate(177 305)">
              <g id="Group-Copy">
                <g id="Rectangle-4-2" data-name="Rectangle-4">
                  <rect id="Retângulo_3" data-name="Retângulo 3" width="120" height="140" rx="3" fill="none" stroke="#707070" stroke-width="1"/>
                  <rect id="Retângulo_4" data-name="Retângulo 4" width="120" height="140" rx="3" fill="none" stroke="#899199" stroke-width="2"/>
                </g>
                <g id="Group-2-2" data-name="Group-2" transform="translate(39 12)">
                  <rect id="Rectangle-12" width="69" height="7" rx="1" fill="none" stroke="#899199" stroke-width="2"/>
                  <rect id="Rectangle-12-Copy" width="69" height="7" rx="1" stroke-width="2" fill="none" stroke="#899199" transform="translate(0 10)"/>
                </g>
                <rect id="Rectangle-5-2" data-name="Rectangle-5" width="20" height="20" rx="3" transform="translate(10 10)" fill="none" stroke="#899199" stroke-width="2"/>
                <g id="Group-3" transform="translate(10 39)">
                  <g id="Group-2-Copy" transform="translate(29 2)">
                    <rect id="Rectangle-12-2" data-name="Rectangle-12" width="69" height="7" rx="1" fill="none" stroke="#899199" stroke-width="2"/>
                    <rect id="Rectangle-12-Copy-2" data-name="Rectangle-12-Copy" width="69" height="7" rx="1" transform="translate(0 10)" fill="none" stroke="#899199" stroke-width="2"/>
                  </g>
                  <rect id="Rectangle-5-Copy-3" width="20" height="20" rx="3" fill="none" stroke="#899199" stroke-width="2"/>
                </g>
                <g id="Group-3-Copy" transform="translate(10 103)">
                  <g id="Group-2-Copy-2" data-name="Group-2-Copy" transform="translate(29 2)">
                    <rect id="Rectangle-12-3" data-name="Rectangle-12" width="69" height="7" rx="1" fill="none" stroke="#899199" stroke-width="2"/>
                    <rect id="Rectangle-12-Copy-3" data-name="Rectangle-12-Copy" width="69" height="7" rx="1" transform="translate(0 10)" fill="none" stroke="#899199" stroke-width="2"/>
                  </g>
                  <rect id="Rectangle-5-Copy-3-2" data-name="Rectangle-5-Copy-3" width="20" height="20" rx="3" fill="none" stroke="#899199" stroke-width="2"/>
                </g>
                <rect id="Rectangle-5-Copy-2-2" data-name="Rectangle-5-Copy-2" width="98" height="24" rx="3" transform="translate(10 69)" fill="none" stroke="#85b27f" stroke-width="2"/>
              </g>
            </g>
            <g id="Group-7" transform="translate(287 297)">
              <circle id="Oval-9" cx="9.5" cy="9.5" r="9.5" fill="none" stroke="#899199" stroke-width="2"/>
              <path id="_1" data-name="1" d="M9.784,5.432a4.985,4.985,0,0,1-1.08.852,5.02,5.02,0,0,1-1.212.5v1.3A4.674,4.674,0,0,0,9.46,7v7h1.308V5.432Z" fill="none" stroke="#707070" stroke-width="1" fill-rule="evenodd"/>
            </g>
            <g id="Group-4-Copy" transform="translate(250 14)">
              <g id="Group-Copy-2" data-name="Group-Copy" transform="translate(0 8)">
                <g id="Rectangle-4-3" data-name="Rectangle-4">
                  <rect id="Retângulo_5" data-name="Retângulo 5" width="120" height="140" rx="3" fill="none" stroke="#707070" stroke-width="1"/>
                  <rect id="Retângulo_6" data-name="Retângulo 6" width="120" height="140" rx="3" fill="none" stroke="#899199" stroke-width="2"/>
                </g>
                <g id="Group-5" transform="translate(8 17)">
                  <rect id="Rectangle-5-3" data-name="Rectangle-5" width="28" height="28" rx="3" fill="none" stroke="#899199" stroke-width="2"/>
                  <rect id="Rectangle-12-4" data-name="Rectangle-12" width="28" height="5" rx="1" transform="translate(0 32)" fill="none" stroke="#899199" stroke-width="2"/>
                  <rect id="Rectangle-12-Copy-2-2" data-name="Rectangle-12-Copy-2" width="28" height="5" rx="1" transform="translate(0 41)" fill="none" stroke="#83a9c5" stroke-width="2"/>
                </g>
                <g id="Group-5-Copy-3" transform="translate(8 70)">
                  <rect id="Rectangle-5-4" data-name="Rectangle-5" width="28" height="28" rx="3" fill="none" stroke="#899199" stroke-width="2"/>
                  <rect id="Rectangle-12-5" data-name="Rectangle-12" width="28" height="5" rx="1" transform="translate(0 32)" fill="none" stroke="#899199" stroke-width="2"/>
                  <rect id="Rectangle-12-Copy-2-3" data-name="Rectangle-12-Copy-2" width="28" height="5" rx="1" transform="translate(0 41)" fill="none" stroke="#83a9c5" stroke-width="2"/>
                </g>
                <g id="Group-5-Copy" transform="translate(46 17)">
                  <rect id="Rectangle-5-5" data-name="Rectangle-5" width="28" height="28" rx="3" fill="none" stroke="#899199" stroke-width="2"/>
                  <rect id="Rectangle-12-6" data-name="Rectangle-12" width="28" height="5" rx="1" transform="translate(0 32)" fill="none" stroke="#899199" stroke-width="2"/>
                  <rect id="Rectangle-12-Copy-2-4" data-name="Rectangle-12-Copy-2" width="28" height="5" rx="1" transform="translate(0 41)" fill="none" stroke="#83a9c5" stroke-width="2"/>
                </g>
                <g id="Group-5-Copy-4" transform="translate(46 70)">
                  <rect id="Rectangle-5-6" data-name="Rectangle-5" width="28" height="28" rx="3" fill="none" stroke="#899199" stroke-width="2"/>
                  <rect id="Rectangle-12-7" data-name="Rectangle-12" width="28" height="5" rx="1" transform="translate(0 32)" fill="none" stroke="#899199" stroke-width="2"/>
                  <rect id="Rectangle-12-Copy-2-5" data-name="Rectangle-12-Copy-2" width="28" height="5" rx="1" transform="translate(0 41)" fill="none" stroke="#83a9c5" stroke-width="2"/>
                </g>
                <g id="Group-5-Copy-2" transform="translate(84 17)">
                  <rect id="Rectangle-5-7" data-name="Rectangle-5" width="28" height="28" rx="3" fill="none" stroke="#899199" stroke-width="2"/>
                  <rect id="Rectangle-12-8" data-name="Rectangle-12" width="28" height="5" rx="1" transform="translate(0 32)" fill="none" stroke="#899199" stroke-width="2"/>
                  <rect id="Rectangle-12-Copy-2-6" data-name="Rectangle-12-Copy-2" width="28" height="5" rx="1" transform="translate(0 41)" fill="none" stroke="#83a9c5" stroke-width="2"/>
                </g>
                <g id="Group-5-Copy-5" transform="translate(84 70)">
                  <rect id="Rectangle-5-8" data-name="Rectangle-5" width="28" height="28" rx="3" fill="none" stroke="#899199" stroke-width="2"/>
                  <rect id="Rectangle-12-9" data-name="Rectangle-12" width="28" height="5" rx="1" transform="translate(0 32)" fill="none" stroke="#899199" stroke-width="2"/>
                  <rect id="Rectangle-12-Copy-2-7" data-name="Rectangle-12-Copy-2" width="28" height="5" rx="1" transform="translate(0 41)" fill="none" stroke="#83a9c5" stroke-width="2"/>
                </g>
              </g>
              <g id="Group-7-2" data-name="Group-7" transform="translate(110)">
                <circle id="Oval-9-2" data-name="Oval-9" cx="9.5" cy="9.5" r="9.5" fill="none" stroke="#899199" stroke-width="2"/>
              </g>
              <path id="_2" data-name="2" d="M119.732,4.264a2.8,2.8,0,0,0-2.208.924,3.3,3.3,0,0,0-.828,2.3H118a2.606,2.606,0,0,1,.456-1.572,1.424,1.424,0,0,1,1.224-.552,1.69,1.69,0,0,1,1.164.36,1.387,1.387,0,0,1,.4,1.08,2.09,2.09,0,0,1-.588,1.4,8.988,8.988,0,0,1-1.224.984,10.869,10.869,0,0,0-1.932,1.56A3.258,3.258,0,0,0,116.648,13h5.9V11.848h-4.284a4.192,4.192,0,0,1,1.656-1.62,11.963,11.963,0,0,0,1.776-1.38,2.968,2.968,0,0,0,.84-2.028,2.41,2.41,0,0,0-.78-1.848,2.9,2.9,0,0,0-2.028-.708Z" fill="none" stroke="#707070" stroke-width="1" fill-rule="evenodd"/>
            </g>
            <g id="Group-4-Copy-2" transform="translate(387 216)">
              <g id="Group-Copy-3" data-name="Group-Copy">
                <g id="Rectangle-4-4" data-name="Rectangle-4">
                  <rect id="Retângulo_7" data-name="Retângulo 7" width="120" height="140" rx="3" fill="none" stroke="#707070" stroke-width="1"/>
                  <rect id="Retângulo_8" data-name="Retângulo 8" width="120" height="140" rx="3" fill="none" stroke="#899199" stroke-width="2"/>
                </g>
                <g id="Group-5-2" data-name="Group-5" transform="translate(10 20)">
                  <rect id="Rectangle-5-9" data-name="Rectangle-5" width="28" height="28" rx="14" transform="translate(36)" fill="none" stroke="#899199" stroke-width="2"/>
                  <rect id="Rectangle-12-Copy-2-8" data-name="Rectangle-12-Copy-2" width="103" height="46" rx="3" transform="translate(0 43)" fill="none" stroke="#74a285" stroke-width="2"/>
                  <rect id="Rectangle-12-10" data-name="Rectangle-12" width="28" height="5" rx="1" transform="translate(6 53)" fill="none" stroke="#fff" stroke-width="2"/>
                  <rect id="Rectangle-12-Copy-3-2" data-name="Rectangle-12-Copy-3" width="37" height="5" rx="1" transform="translate(6 63)" fill="none" stroke="#fff" stroke-width="2"/>
                  <rect id="Rectangle-12-Copy-4" width="53" height="5" rx="1" stroke-width="2" fill="none" stroke="#fff" transform="translate(6 73)"/>
                </g>
              </g>
            </g>
            <g id="Group-4-Copy-3" transform="translate(491)">
              <g id="Group-Copy-4" data-name="Group-Copy">
                <g id="Rectangle-4-5" data-name="Rectangle-4">
                  <rect id="Retângulo_9" data-name="Retângulo 9" width="120" height="140" rx="3" fill="none" stroke="#707070" stroke-width="1"/>
                  <rect id="Retângulo_10" data-name="Retângulo 10" width="120" height="140" rx="3" fill="none" stroke="#899199" stroke-width="2"/>
                </g>
                <g id="Group-5-3" data-name="Group-5" transform="translate(9 14)">
                  <rect id="Rectangle-12-Copy-2-9" data-name="Rectangle-12-Copy-2" width="103" height="12" rx="3" fill="none" stroke="#899199" stroke-width="2"/>
                  <rect id="Rectangle-12-Copy-7" width="84" height="8" rx="2" stroke-width="2" fill="none" stroke="#899199" transform="translate(0 84)"/>
                  <rect id="Rectangle-12-Copy-8" width="84" height="8" rx="2" stroke-width="2" fill="none" stroke="#ddc488" transform="translate(0 97)"/>
                  <rect id="Rectangle-12-Copy-5" width="45" height="60" rx="3" stroke-width="2" fill="none" stroke="#899199" transform="translate(0 17)"/>
                  <rect id="Rectangle-12-Copy-6" width="51" height="60" rx="3" stroke-width="2" fill="none" stroke="#899199" transform="translate(52 17)"/>
                </g>
              </g>
            </g>
            <path id="Path-23" d="M368,94H490.532" fill="none" stroke="#899199" stroke-width="1" fill-rule="evenodd"/>
            <path id="Path-1" d="M249,93H175.464v93H119" fill="none" stroke="#899199" stroke-width="1" fill-rule="evenodd"/>
            <circle id="Oval-1" cx="3" cy="3" r="3" transform="translate(247.5 90)" fill="none" stroke="#707070" stroke-width="1"/>
            <circle id="Oval-1-Copy-8" cx="3" cy="3" r="3" transform="translate(366.5 91)" fill="none" stroke="#707070" stroke-width="1"/>
            <circle id="Oval-1-Copy-9" cx="3" cy="3" r="3" transform="translate(488.5 91)" fill="none" stroke="#707070" stroke-width="1"/>
            <circle id="Oval-1-Copy-2" cx="3" cy="3" r="3" transform="translate(308.5 158.5)" fill="none" stroke="#707070" stroke-width="1"/>
            <circle id="Oval-1-Copy-3" cx="3" cy="3" r="3" transform="translate(232 302)" fill="none" stroke="#707070" stroke-width="1"/>
            <circle id="Oval-1-Copy-4" cx="3" cy="3" r="3" transform="translate(293.5 368)" fill="none" stroke="#707070" stroke-width="1"/>
            <circle id="Oval-1-Copy-5" cx="3" cy="3" r="3" transform="translate(384.5 298)" fill="none" stroke="#707070" stroke-width="1"/>
            <path id="Path-7" d="M119.951,230.3H342.835v36.2h45.5" fill="none" stroke="rgba(151,151,151,0.1)" stroke-width="1" stroke-dasharray="2" fill-rule="evenodd"/>
            <path id="Path-9" d="M250.734,129.5H206.687V276.885H387.729" fill="none" stroke="rgba(151,151,151,0.1)" stroke-width="1" stroke-dasharray="2" fill-rule="evenodd"/>
            <path id="Path-5" d="M492.4,67H444V215.637" fill="none" stroke="rgba(177,157,109,0.47)" stroke-width="1" stroke-dasharray="2" fill-rule="evenodd"/>
            <path id="Path-3" d="M311.421,161.426v90.152H235.1v53.3" fill="none" stroke="#899199" stroke-width="1" fill-rule="evenodd"/>
            <path id="Path-3-2" data-name="Path-3" d="M296.565,370.92h38.645V301.285h52.269" fill="none" stroke="#899199" stroke-width="1" fill-rule="evenodd"/>
            <circle id="Oval-1-Copy" cx="3" cy="3" r="3" transform="translate(116.5 183)" fill="none" stroke="#707070" stroke-width="1"/>
            <circle id="Oval-1-Copy-7" cx="3" cy="3" r="3" transform="translate(488.5 64)" fill="none" stroke="#707070" stroke-width="1"/>
            <circle id="Oval-1-Copy-6" cx="3" cy="3" r="3" transform="translate(441 213)" fill="none" stroke="#707070" stroke-width="1"/>
          </g>
        </g>
      </g>
    </g>
  </g>
</svg>
