<svg height="512" viewBox="0 0 60 59" width="512" xmlns="http://www.w3.org/2000/svg"><g fill-rule="nonzero" fill="none"><path d="M25.45 50.56L25 56H3.43a2 2 0 01-1.97-2.38l4.38-22.48a1 1 0 01.98-.81H9.6L6.27 50.35a1.008 1.008 0 001.29 1.12 34.21 34.21 0 0117.89-.91zM56.57 56H35l-.45-5.44a34.21 34.21 0 0117.89.91 1.008 1.008 0 001.29-1.12L50.4 30.33h2.78a1 1 0 01.98.81l4.38 22.48A2 2 0 0156.57 56z" fill="#ddd"/><path d="M58.54 53.62l-4.38-22.48a1 1 0 00-.98-.81H50.4l.007.04a1 1 0 01.753.77l4.38 22.48A2 2 0 0153.57 56h3a2 2 0 001.97-2.38z" fill="#ccc"/><path d="M52.44 51.47a34.21 34.21 0 00-17.89-.91A23.151 23.151 0 0030 52a23.151 23.151 0 00-4.55-1.44 34.21 34.21 0 00-17.89.91 1.008 1.008 0 01-1.29-1.12L9.6 30.33l.28-1.69c.072-.429.41-.763.84-.83.68-.1 1.38-.2 2.08-.28a7.133 7.133 0 008.81 3.43 5.267 5.267 0 008.97 1.72c1.001.39 2.066.59 3.14.59h.06c.21 1.8 1.15 2.86 4.29 3.91a5.47 5.47 0 012.48 1.64 2.118 2.118 0 002.45.63 2.088 2.088 0 001.16-2.55 8.828 8.828 0 00-1.32-2.66 7.438 7.438 0 003.79-5.2c.39-.431.704-.925.93-1.46.58.07 1.15.14 1.72.23.43.067.768.401.84.83l.28 1.69 3.33 20.02a1.008 1.008 0 01-1.29 1.12z" fill="#f5f5f5"/><path d="M53.73 50.35L50.4 30.33l-.28-1.69a1.008 1.008 0 00-.84-.83c-.57-.09-1.14-.16-1.72-.23a5.2 5.2 0 01-.5.891.988.988 0 01.057.169l.28 1.69 3.33 20.02a.968.968 0 01-.1.6c.6.157 1.2.326 1.807.521a1.008 1.008 0 001.296-1.121z" fill="#cfd8dc"/><path d="M35 56c0 1.1-2.24 2-5 2s-5-.9-5-2l.45-5.44c1.562.322 3.087.805 4.55 1.44a23.151 23.151 0 014.55-1.44z" fill="#ccc"/><path d="M48 25.49a5.052 5.052 0 01-.44 2.09 5.184 5.184 0 01-.93 1.46 7.438 7.438 0 01-3.79 5.2 8.828 8.828 0 011.32 2.66A2.088 2.088 0 0143 39.45a2.118 2.118 0 01-2.45-.63 5.47 5.47 0 00-2.48-1.64c-3.14-1.05-4.08-2.11-4.29-3.91h-.06c-1.074 0-2.139-.2-3.14-.59a5.267 5.267 0 01-8.97-1.72 7.145 7.145 0 01-8.19-10.98 2.921 2.921 0 01-.18-1.02 3.115 3.115 0 012.5-3.06c-.01-.12-.02-.24-.02-.37a4.042 4.042 0 015.79-3.64A5.906 5.906 0 0126.59 9a5.8 5.8 0 013.88 1.47 3.1 3.1 0 015.5.45 7.458 7.458 0 018.28 6.79h.03a3.1 3.1 0 013.1 3.11 3.209 3.209 0 01-.4 1.54A5.3 5.3 0 0148 25.49z" fill="#e91e63"/><path d="M46.98 22.36c.26-.472.398-1.001.4-1.54a3.1 3.1 0 00-3.1-3.11h-.03a7.458 7.458 0 00-8.28-6.79 3.089 3.089 0 00-4.37-1.527 3.076 3.076 0 011.37 1.527 7.458 7.458 0 018.28 6.79h.03a3.1 3.1 0 013.1 3.11 3.209 3.209 0 01-.4 1.54A5.3 5.3 0 0145 25.49a5.052 5.052 0 01-.44 2.09 5.184 5.184 0 01-.93 1.46 7.438 7.438 0 01-3.79 5.2 8.828 8.828 0 011.32 2.66c.067.207.101.423.1.64a2.069 2.069 0 01-.582 1.41 2.065 2.065 0 003.582-1.41 2.035 2.035 0 00-.1-.64 8.828 8.828 0 00-1.32-2.66 7.438 7.438 0 003.79-5.2c.39-.431.704-.925.93-1.46.294-.657.444-1.37.44-2.09a5.3 5.3 0 00-1.02-3.13z" fill="#ad1457"/><path d="M40.562 25.483a1 1 0 10-1.787.9c.329.66.124 1.463-.482 1.885a1.509 1.509 0 01-2.172-.554 1 1 0 00-1.789.895 3.484 3.484 0 006.23-3.122zM34.5 24.994a5.971 5.971 0 002.479-3.806 1 1 0 10-1.964-.376 3.986 3.986 0 01-1.656 2.539 4.082 4.082 0 01-5.264-.6 1.001 1.001 0 10-1.48 1.349 6.03 6.03 0 003.205 1.848 2.979 2.979 0 01-2.434 1.252 1 1 0 000 2 4.959 4.959 0 004.659-3.207 6.025 6.025 0 002.455-.999zM21.124 27.225a1.5 1.5 0 01-1.917-1.425v-.025a.989.989 0 00-1-.987 1.01 1.01 0 00-1 1.012 3.49 3.49 0 003.482 3.489c.339-.001.675-.05 1-.147a1 1 0 00-.57-1.917zM27.8 17a1 1 0 00-1-1 4.605 4.605 0 00-4.6 4.6 1 1 0 002 0 2.6 2.6 0 012.6-2.6 1 1 0 001-1z" fill="#ad1457"/><g fill="#ffdc00"><path d="M30 3a1 1 0 01-1-1V1a1 1 0 012 0v1a1 1 0 01-1 1zM46.117 9.883a1 1 0 01-.707-1.707l1-1a1 1 0 111.414 1.414l-1 1a1 1 0 01-.707.293zM13.883 9.883a1 1 0 01-.707-.293l-1-1a1 1 0 111.414-1.414l1 1a1 1 0 01-.707 1.707zM21.581 5.675a1 1 0 01-.924-.617l-1.148-2.772a1 1 0 111.847-.766l1.149 2.772a1 1 0 01-.924 1.383zM38.419 5.675a1 1 0 01-.924-1.383l1.149-2.772a1 1 0 111.847.766l-1.148 2.772a1 1 0 01-.924.617zM50.325 17.582a1 1 0 01-.383-1.925l2.772-1.148a1 1 0 11.765 1.848l-2.771 1.148a1 1 0 01-.383.077zM9.675 17.582a1 1 0 01-.383-.077l-2.771-1.148a1 1 0 01.765-1.848l2.772 1.148a1 1 0 01-.383 1.925z"/></g><path d="M55.143 30.953a2 2 0 00-1.963-1.623h-1.931l-.142-.851a2.01 2.01 0 00-1.671-1.657c-.19-.03-.382-.05-.571-.076a6.1 6.1 0 00-.76-4.459 4.092 4.092 0 00-2.965-5.474 8.509 8.509 0 00-8.313-6.946c-.1 0-.189.013-.284.016a4.068 4.068 0 00-6.223-.774A6.864 6.864 0 0026.586 8a6.943 6.943 0 00-5.458 2.688 4.981 4.981 0 00-6.366 4.476 4.116 4.116 0 00-2.521 3.792c.003.287.037.573.1.853a8.048 8.048 0 00-.959 6.9c-.268.037-.542.07-.8.108-.86.13-1.54.798-1.684 1.656l-.142.854H6.82a2 2 0 00-1.962 1.619L.479 53.428A3 3 0 003.43 57h20.854c.828 1.366 3.344 2 5.716 2 2.347 0 4.839-.619 5.691-2H56.57a3 3 0 002.951-3.571zM15.265 20.766a2.112 2.112 0 011.08-3.922 2.074 2.074 0 011.679.848A1 1 0 1019.63 16.5a4.04 4.04 0 00-2.836-1.6 3.04 3.04 0 012.965-2.407c.122.006.244.02.364.04-.08.205-.15.414-.21.626a1 1 0 001.936.5c.114-.44.288-.86.519-1.252A4.938 4.938 0 0126.586 10a4.857 4.857 0 012.649.8c-.15.421-.23.864-.235 1.311a1 1 0 002 0 2.103 2.103 0 114.207 0 1 1 0 002 0c0-.077-.019-.15-.023-.227a6.491 6.491 0 015.922 5.006 4.043 4.043 0 00-1.293.645 1 1 0 001.2 1.6 2.108 2.108 0 112.145 3.603 1 1 0 00.426 1.9.987.987 0 00.424-.095c.265-.128.515-.285.747-.467a4.271 4.271 0 01-.846 4.265l-.024.025a4.319 4.319 0 01-5.1.936 4.052 4.052 0 01-1.185-.892 1 1 0 00-1.475 1.351c.497.545 1.09.994 1.749 1.326a6.16 6.16 0 004.619.427 6.374 6.374 0 01-4.118 2.525 1 1 0 00.316 1.975 8.218 8.218 0 001.774-.518c.308.545.558 1.12.746 1.717.034.104.052.213.052.323 0 .432-.258.823-.656.992-.46.178-.982.038-1.291-.347a6.383 6.383 0 00-2.927-1.945c-2.161-.724-2.995-1.371-3.349-2.075a9.6 9.6 0 001.533-.32 1 1 0 10-.588-1.912 7.578 7.578 0 01-1.726.317 7.422 7.422 0 01-3.314-.5 1 1 0 00-1.121.279 4.282 4.282 0 01-6.906-5.007 1.002 1.002 0 10-1.718-1.031 6.194 6.194 0 00-.8 4.268 6.111 6.111 0 01-6.914-8.369c.224.226.473.425.744.593a1 1 0 001.032-1.713zm-4.4 8.033c.461-.068.937-.128 1.41-.19a8.074 8.074 0 008.77 3.558 6.264 6.264 0 009.812 1.663 9.6 9.6 0 002.087.378c.483 1.832 1.879 2.942 4.812 3.925.79.248 1.496.712 2.036 1.341a3.185 3.185 0 002.416 1.135c.408 0 .812-.082 1.187-.242a3.079 3.079 0 001.869-2.831c0-.321-.05-.641-.152-.946a10.931 10.931 0 00-.884-2.035 8.43 8.43 0 003.323-5.082c.213-.253.406-.523.576-.806.335.043.67.081 1.007.137l3.61 21.714a34.326 34.326 0 00-21.744 0V38a1 1 0 00-2 0v12.522a34.332 34.332 0 00-21.744-.008zM2.651 54.632a.992.992 0 01-.21-.82L6.82 31.33h1.6L5.282 50.189a2.007 2.007 0 002.581 2.234 33.455 33.455 0 0116.517-1.048L24.082 55H3.43c-.302 0-.588-.135-.779-.368zM30 57c-2.409 0-3.791-.712-3.994-1.029l.344-4.15c1.1.274 2.176.635 3.218 1.079a.994.994 0 00.865 0 21.3 21.3 0 013.217-1.086l.344 4.156C33.791 56.288 32.409 57 30 57zm27.349-2.368a1.007 1.007 0 01-.779.368H35.921l-.3-3.632a33.465 33.465 0 0116.524 1.057 2.006 2.006 0 002.572-2.239l-3.135-18.855h1.6l4.38 22.48a.992.992 0 01-.213.821z" fill="#000"/></g></svg>