
<svg height="512" viewBox="0 0 56 57" width="512" xmlns="http://www.w3.org/2000/svg"><g id="Page-1" fill="none" fill-rule="evenodd"><g id="026---Idea" fill="rgb(0,0,0)" fill-rule="nonzero"><path id="Shape" d="m5.863 52.423c-.66351919.2076591-1.3872485.0571254-1.91293426-.397885-.52568575-.4550105-.77843817-1.1496764-.66806574-1.836115l3.137-18.859h-.775c-.47842032.0002823-.88962179.3393873-.981.809l-4.222 21.673c-.0559823.2909791.02104414.591749.21.82.19143404.2331618.47731908.3682141.779.368h20.652l.3-3.625c-5.5071922-1.0398423-11.1873725-.6794798-16.519 1.048z"/><path id="Shape" d="m16.024 17.692c-.3919415-.534799-1.0159583-.8499666-1.679-.848-.9465127.0053146-1.7740175.6394302-2.0253091 1.5519909s.1349447 1.8809037.9453091 2.3700091c.3108022.1820631.4996746.5172083.4944464.8773717-.0052282.3601633-.2037492.689685-.519705.8626499-.3159559.172965-.7005187.162643-1.0067414-.0270216-.2705393-.167604-.5202783-.3666568-.744-.593-.909581 2.1011366-.5644799 4.5348279.893386 6.3002569s3.7823767 2.5645523 6.017614 2.0687431c-.0569849-.3303689-.0874155-.6647716-.091-1-1.7634736-.1926884-3.0997519-1.6810318-3.102-3.455-.0011256-.5547049.4453212-1.006509 1-1.012.2638535-.0029354.5179394.0996905.7057403.2850499.1878008.1853594.2937424.4380808.2942597.7019501v.025c.0127109.7899329.6359479 1.4346005 1.425 1.474.1415274-.4491961.333414-.880941.572-1.287.1794304-.3150758.5153541-.5083425.8779247-.5050958.3625706.0032468.6949795.2024982.8687387.5207367s.1616437.7056013-.0316634 1.0123591c-1.1512101 1.9043273-.651099 4.3731321 1.1504698 5.6793086s4.3035072 1.0139229 5.7555302-.6723086c.2767299-.3212508.7259723-.4330605 1.121-.279 1.0520952.4171627 2.1856598.5881894 3.314.5.5856681-.0384692 1.1648841-.1448489 1.726-.317.3415459-.1050361.7131834-.0198809.9749203.2233885s.3738091.6076946.294.956c-.079809.3483055-.3393744.6275754-.6809203.7326115-.5014325.1482378-1.014138.2552605-1.533.32.354.7 1.188 1.351 3.349 2.075 1.1384399.3616827 2.1525467 1.0355596 2.927 1.945.3087971.3845453.8310236.5249113 1.291.347.3976105-.1694381.6557481-.5597925.656-.992-.0000315-.1097481-.0175858-.2187872-.052-.323-.1879061-.5968585-.4379426-1.1723447-.746-1.717-.5699758.238819-1.1650711.4125842-1.774.518-.0526253.0079713-.1057745.0119825-.159.012-.5203205-.0019141-.9522293-.4025178-.9932143-.9212251-.0409849-.5187074.322651-.9821699.8362143-1.0657749 1.6507807-.2687931 3.1297727-1.1756544 4.118-2.525-1.5364883.4649607-3.1937881.3117529-4.619-.427-.4213339-.2187036-.8148275-.4873-1.172-.8-.3991457.160295-.8248799.2440849-1.255.247-1.3211787.0035427-2.5295319-.7441162-3.116-1.928-.2471474-.4940187-.0470187-1.0948526.447-1.342s1.0948526-.0470187 1.342.447c.1988209.3782641.5487004.6544929.9627761.7601089s.8535161.0307146 1.2092239-.2061089c.6057272-.4219749.8108222-1.2240581.482-1.885-.1607695-.3192168-.1390266-.6999548.0570385-.9987937s.5366654-.470378.8935001-.45c.3568346.0203779.6756919.2295769.8364614.5487937.5761058 1.1313804.4751208 2.4892822-.262 3.523.154264.1115002.3163489.2117589.485.3 1.7190136.8566906 3.7972253.4752776 5.1-.936l.024-.025c1.0387165-1.1609895 1.3629232-2.7954358.846-4.265-.231536.1819993-.4819764.3385665-.747.467-.1325217.0627697-.2773645.0952227-.424.095-.4643046-.0045462-.8643986-.3280949-.9659835-.7811732-.101585-.4530782.1220671-.9164774.5399835-1.1188268.398517-.1872553.729317-.493254.947-.876.5087331-.8669714.3317441-1.9728732-.4221505-2.6377731-.7538945-.6648999-1.8732446-.7023088-2.6698495-.0892269-.4418278.3313708-1.0686292.2418278-1.4-.2s-.2418278-1.0686292.2-1.4c.3892452-.2907269.8275339-.5091938 1.294-.645-.6508717-2.7939787-3.0586559-4.8293328-5.922-5.006 0 .077.023.15.023.227 0 .5522847-.4477153 1-1 1s-1-.4477153-1-1c0-.7515082-.4009248-1.4459304-1.05175-1.8216845-.6508252-.37575411-1.4526748-.37575411-2.1035 0-.6508252.3757541-1.05175 1.0701763-1.05175 1.8216845 0 .5522847-.4477153 1-1 1s-1-.4477153-1-1c.0053925-.4479569.0847962-.8919416.235-1.314-.7867503-.5178811-1.7071086-.79583-2.649-.8-1.7292427.0062567-3.329221.9166284-4.218 2.4-.230592.3910619-.4052882.812487-.519 1.252-.1474328.5234152-.6860966.8330843-1.2126039.6971062-.5265072-.1359781-.8478548-.6677576-.7233961-1.1971062.059462-.212055.1295505-.4209855.21-.626-.1204446-.0204552-.2419876-.0338116-.364-.04-1.4358822.0046759-2.6726893 1.0133868-2.966 2.419 1.127925.1118857 2.1569703.6924473 2.836 1.6.2131089.2868843.2569788.6656685.1150842.9936684s-.4479965.5553844-.803.5965c-.3550036.0411156-.7049753-.1102841-.9180842-.3971684zm15.338 5.659c.8648315-.5952213 1.4599125-1.507607 1.656-2.539.0615112-.3563391.3106065-.6517108.651453-.7724785.3408466-.1207677.720339-.0481154.9924777.1900059.2721386.2381213.3945231.6046113.3200693.9584726-.4800089 2.4759076-2.4489959 4.39225-4.937 4.805-.7313697 1.9366767-2.588843 3.2152594-4.659 3.207-.5522847 0-1-.4477153-1-1s.4477153-1 1-1c.9669277.0014735 1.8744223-.4664417 2.434-1.255-1.2352046-.2641377-2.3562757-.9094968-3.205-1.845-.3714115-.4100714-.3400714-1.0435885.07-1.415s1.0435885-.3400714 1.415.07c1.3696907 1.4638151 3.5996099 1.7163867 5.262.596zm-6.562-7.351c.5522847 0 1 .4477153 1 1s-.4477153 1-1 1c-.6895629 0-1.350883.2739278-1.8384776.7615224s-.7615224 1.1489147-.7615224 1.8384776c0 .5522847-.4477153 1-1 1s-1-.4477153-1-1c.0027557-2.5393675 2.0606325-4.5972443 4.6-4.6z"/><path id="Shape" d="m27 50.522v-12.522c0-.5522847.4477153-1 1-1s1 .4477153 1 1v12.522c7.0564939-2.3562987 14.6875061-2.3562987 21.744 0l-3.61-21.722c-.337-.056-.672-.094-1.007-.137-.1704206.2834517-.3630227.552961-.576.806-.4379534 2.0479569-1.6225275 3.8595746-3.323 5.082.3629243.6465954.6591163 1.3284401.884 2.035.1015836.3050159.1529195.6245142.152.946.0023469 1.2329769-.7310771 2.348458-1.864 2.835-.3754001.1595619-.7790966.2418656-1.187.242-.9326728-.0063333-1.8157002-.4211661-2.416-1.135-.5399625-.6285408-1.2453179-1.0931192-2.036-1.341-2.933-.983-4.329-2.093-4.812-3.925-.7074928-.0485295-1.4074302-.175303-2.087-.378-1.4274914 1.3300782-3.3932405 1.9190344-5.3169192 1.5929972-1.9236786-.3260373-3.5855811-1.5298309-4.4950808-3.2559972-3.3848696.831274-6.9210766-.6033696-8.77-3.558l-.68.091c-.43687839.05707-.78493029.3933442-.857.828l-3.487 20.986c7.0574312-2.3532685 14.6883023-2.350461 21.744.008z"/><path id="Shape" d="m50.355 31.331h-.773l3.135 18.855c.1115736.6852709-.1391353 1.3795137-.6628039 1.8353822-.5236686.4558686-1.2458318.6085391-1.9091961.4036178-5.332504-1.7309038-11.0144168-2.094362-16.524-1.057l.3 3.632h20.649c.3016809.0002141.587566-.1348382.779-.368.1889559-.228251.2659823-.5290209.21-.82l-4.223-21.672c-.0913782-.4696127-.5025797-.8087177-.981-.809z"/><path id="Shape" d="m28.433 52.9c-.1349369.0655839-.2829694.0997715-.433.1-.1496336-.0008878-.2971965-.0350459-.432-.1-1.042304-.4450968-2.118365-.8065704-3.218-1.081l-.344 4.15c.203.319 1.585 1.031 3.994 1.031s3.791-.712 3.994-1.029l-.344-4.156c-1.0994944.2754939-2.175244.6383128-3.217 1.085z"/><path id="Shape" d="m28 3c.5522847 0 1-.44771525 1-1v-1c0-.55228475-.4477153-1-1-1s-1 .44771525-1 1v1c0 .55228475.4477153 1 1 1z"/><path id="Shape" d="m44.117 9.883c.2651948-.00005664.5195073-.10545063.707-.293l1-1c.2599566-.25107447.3642126-.62287789.2726972-.97250732-.0915155-.34962944-.3645604-.6226744-.7141899-.71418984-.3496294-.09151544-.7214328.01274058-.9725073.27269716l-1 1c-.2859079.28599425-.3714219.71603662-.216678 1.08965456s.5192821.61725909.923678.61734544z"/><path id="Shape" d="m11.176 9.59c.3923789.37897221 1.0160848.37355237 1.4018186-.01218142.3857338-.3857338.3911536-1.00943969.0121814-1.40181858l-1-1c-.2510745-.25995658-.6228779-.3642126-.9725073-.27269716-.3496295.09151544-.62267442.3645604-.71418986.71418984-.09151544.34962943.01274058.72143285.27269716.97250732z"/><path id="Shape" d="m18.657 5.058c.1548963.37359074.5195709.61710177.924.617.1313847-.00028124.2614627-.02609305.383-.076.2451011-.10152817.4398132-.29629087.5412776-.54141839s.1013645-.52052773-.0002776-.76558161l-1.149-2.772c-.1316192-.33762411-.43559-.57762635-.7945371-.62733226-.358947-.04970591-.7166983.09866304-.9351117.38781568s-.2633091.67383911-.1173512 1.00551658z"/><path id="Shape" d="m36.036 5.6c.1215373.04990695.2516153.07571876.383.076.4044291.00010177.7691037-.24340926.924-.617l1.148-2.772c.1459579-.33167747.1010622-.71636394-.1173512-1.00551658s-.5761647-.43752159-.9351117-.38781568c-.3589471.04970591-.6629179.28970815-.7945371.62733226l-1.149 2.771c-.1019555.24516905-.10222.52082095-.0007353.76618523.1014848.24536427.2963859.44029399.5417353.54181477z"/><path id="Shape" d="m48.325 17.582c.1314874-.0002372.2616372-.0264031.383-.077l2.771-1.148c.3301134-.1366541.5622467-.4390411.6089575-.7932547.0467108-.3542137-.0990974-.7064405-.3825-.924-.2834026-.2175596-.6613441-.2673994-.9914575-.1307453l-2.772 1.148c-.4423387.1816955-.6941348.6511321-.6008203 1.1201409.0933144.4690087.5056209.8063148.9838203.8048591z"/><path id="Shape" d="m4.521 16.357 2.771 1.148c.51031111.2115251 1.09547494-.0306889 1.307-.541s-.03068889-1.0954749-.541-1.307l-2.772-1.148c-.51031111-.2112489-1.09525108.0311889-1.3065.5415s.03118889 1.0952511.5415 1.3065z"/></g></g></svg>