<?xml version="1.0" encoding="iso-8859-1"?>
<!-- Generator: Adobe Illustrator 19.0.0, SVG Export Plug-In . SVG Version: 6.00 Build 0)  -->
<svg version="1.1" id="Layer_1" xmlns="http://www.w3.org/2000/svg" xmlns:xlink="http://www.w3.org/1999/xlink" x="0px" y="0px"
	 viewBox="0 0 512 512" style="enable-background:new 0 0 512 512;" xml:space="preserve">
<g>
	<g>
		<path d="M341.333,213.333c-23.531,0-42.667,19.136-42.667,42.667s19.136,42.667,42.667,42.667S384,279.531,384,256
			S364.864,213.333,341.333,213.333z"/>
	</g>
</g>
<g>
	<g>
		<path d="M170.667,213.333C147.135,213.333,128,232.469,128,256s19.136,42.667,42.667,42.667s42.667-19.136,42.667-42.667
			S194.197,213.333,170.667,213.333z"/>
	</g>
</g>
<g>
	<g>
		<path d="M404.757,85.333H384V49.877C384,22.379,361.621,0,334.122,0H177.877C150.379,0,128,22.379,128,49.877v35.456h-20.757
			c-35.605,0-64.576,28.971-64.576,64.576v297.515c0,35.605,28.971,64.576,64.576,64.576h297.515
			c35.605,0,64.576-28.971,64.576-64.576V149.909C469.333,114.304,440.363,85.333,404.757,85.333z M170.667,49.877
			c0-3.968,3.221-7.211,7.211-7.211h156.245c3.989,0,7.211,3.243,7.211,7.211v35.456H170.667V49.877z M356.459,399.04
			c-20.907,21.013-62.165,48.171-107.605,48.171c-22.976,0-47.04-6.933-70.08-25.131c-9.237-7.317-10.816-20.736-3.52-29.973
			c7.317-9.216,20.736-10.816,29.973-3.52c55.765,44.053,118.379-17.045,121.024-19.669c8.363-8.299,21.824-8.256,30.144,0.021
			C364.715,377.259,364.757,390.699,356.459,399.04z M341.333,341.333c-39.659,0-72.768-27.307-82.304-64h-6.059
			c-9.536,36.693-42.645,64-82.304,64c-47.061,0-85.333-38.272-85.333-85.333c0-47.061,38.272-85.333,85.333-85.333
			c39.659,0,72.768,27.307,82.304,64h6.059c9.536-36.693,42.645-64,82.304-64c47.061,0,85.333,38.272,85.333,85.333
			C426.666,303.061,388.395,341.333,341.333,341.333z"/>
	</g>
</g>
<g>
</g>
<g>
</g>
<g>
</g>
<g>
</g>
<g>
</g>
<g>
</g>
<g>
</g>
<g>
</g>
<g>
</g>
<g>
</g>
<g>
</g>
<g>
</g>
<g>
</g>
<g>
</g>
<g>
</g>
</svg>
