<?xml version="1.0" encoding="UTF-8" standalone="no"?>
<svg width="800px" height="632px" viewBox="0 0 800 632" version="1.1" xmlns="http://www.w3.org/2000/svg" xmlns:xlink="http://www.w3.org/1999/xlink">
    <!-- Generator: Sketch Beta 3.7.2 (28276) - http://www.bohemiancoding.com/sketch -->
    <title>Group 11</title>
    <desc>Created with Sketch Beta.</desc>
    <defs>
        <rect id="path-1" x="0" y="0" width="120" height="140" rx="3"></rect>
        <filter x="-50%" y="-50%" width="200%" height="200%" filterUnits="objectBoundingBox" id="filter-2">
            <feOffset dx="0" dy="7" in="SourceAlpha" result="shadowOffsetOuter1"></feOffset>
            <feGaussianBlur stdDeviation="4.5" in="shadowOffsetOuter1" result="shadowBlurOuter1"></feGaussianBlur>
            <feComposite in="shadowBlurOuter1" in2="SourceAlpha" operator="out" result="shadowBlurOuter1"></feComposite>
            <feColorMatrix values="0 0 0 0 0.816139802   0 0 0 0 0.864383676   0 0 0 0 0.912627551  0 0 0 0.632189764 0" type="matrix" in="shadowBlurOuter1"></feColorMatrix>
        </filter>
        <mask id="mask-3" maskContentUnits="userSpaceOnUse" maskUnits="objectBoundingBox" x="0" y="0" width="120" height="140" fill="white">
            <use xlink:href="#path-1"></use>
        </mask>
        <rect id="path-4" x="10" y="12" width="100" height="19" rx="3"></rect>
        <mask id="mask-5" maskContentUnits="userSpaceOnUse" maskUnits="objectBoundingBox" x="0" y="0" width="100" height="19" fill="white">
            <use xlink:href="#path-4"></use>
        </mask>
        <rect id="path-6" x="10" y="36" width="69" height="50" rx="3"></rect>
        <mask id="mask-7" maskContentUnits="userSpaceOnUse" maskUnits="objectBoundingBox" x="0" y="0" width="69" height="50" fill="white">
            <use xlink:href="#path-6"></use>
        </mask>
        <rect id="path-8" x="10" y="91" width="69" height="8" rx="2"></rect>
        <mask id="mask-9" maskContentUnits="userSpaceOnUse" maskUnits="objectBoundingBox" x="0" y="0" width="69" height="8" fill="white">
            <use xlink:href="#path-8"></use>
        </mask>
        <rect id="path-10" x="10" y="104" width="93" height="8" rx="2"></rect>
        <mask id="mask-11" maskContentUnits="userSpaceOnUse" maskUnits="objectBoundingBox" x="0" y="0" width="93" height="8" fill="white">
            <use xlink:href="#path-10"></use>
        </mask>
        <rect id="path-12" x="0" y="0" width="120" height="140" rx="3"></rect>
        <filter x="-50%" y="-50%" width="200%" height="200%" filterUnits="objectBoundingBox" id="filter-13">
            <feOffset dx="0" dy="7" in="SourceAlpha" result="shadowOffsetOuter1"></feOffset>
            <feGaussianBlur stdDeviation="4.5" in="shadowOffsetOuter1" result="shadowBlurOuter1"></feGaussianBlur>
            <feComposite in="shadowBlurOuter1" in2="SourceAlpha" operator="out" result="shadowBlurOuter1"></feComposite>
            <feColorMatrix values="0 0 0 0 0.816139802   0 0 0 0 0.864383676   0 0 0 0 0.912627551  0 0 0 0.632189764 0" type="matrix" in="shadowBlurOuter1"></feColorMatrix>
        </filter>
        <mask id="mask-14" maskContentUnits="userSpaceOnUse" maskUnits="objectBoundingBox" x="0" y="0" width="120" height="140" fill="white">
            <use xlink:href="#path-12"></use>
        </mask>
        <rect id="path-15" x="0" y="0" width="69" height="7" rx="1"></rect>
        <mask id="mask-16" maskContentUnits="userSpaceOnUse" maskUnits="objectBoundingBox" x="0" y="0" width="69" height="7" fill="white">
            <use xlink:href="#path-15"></use>
        </mask>
        <rect id="path-17" x="0" y="10" width="69" height="7" rx="1"></rect>
        <mask id="mask-18" maskContentUnits="userSpaceOnUse" maskUnits="objectBoundingBox" x="0" y="0" width="69" height="7" fill="white">
            <use xlink:href="#path-17"></use>
        </mask>
        <rect id="path-19" x="10" y="10" width="20" height="20" rx="3"></rect>
        <mask id="mask-20" maskContentUnits="userSpaceOnUse" maskUnits="objectBoundingBox" x="0" y="0" width="20" height="20" fill="white">
            <use xlink:href="#path-19"></use>
        </mask>
        <rect id="path-21" x="0" y="0" width="69" height="7" rx="1"></rect>
        <mask id="mask-22" maskContentUnits="userSpaceOnUse" maskUnits="objectBoundingBox" x="0" y="0" width="69" height="7" fill="white">
            <use xlink:href="#path-21"></use>
        </mask>
        <rect id="path-23" x="0" y="10" width="69" height="7" rx="1"></rect>
        <mask id="mask-24" maskContentUnits="userSpaceOnUse" maskUnits="objectBoundingBox" x="0" y="0" width="69" height="7" fill="white">
            <use xlink:href="#path-23"></use>
        </mask>
        <rect id="path-25" x="0" y="0" width="20" height="20" rx="3"></rect>
        <mask id="mask-26" maskContentUnits="userSpaceOnUse" maskUnits="objectBoundingBox" x="0" y="0" width="20" height="20" fill="white">
            <use xlink:href="#path-25"></use>
        </mask>
        <rect id="path-27" x="0" y="0" width="69" height="7" rx="1"></rect>
        <mask id="mask-28" maskContentUnits="userSpaceOnUse" maskUnits="objectBoundingBox" x="0" y="0" width="69" height="7" fill="white">
            <use xlink:href="#path-27"></use>
        </mask>
        <rect id="path-29" x="0" y="10" width="69" height="7" rx="1"></rect>
        <mask id="mask-30" maskContentUnits="userSpaceOnUse" maskUnits="objectBoundingBox" x="0" y="0" width="69" height="7" fill="white">
            <use xlink:href="#path-29"></use>
        </mask>
        <rect id="path-31" x="0" y="0" width="20" height="20" rx="3"></rect>
        <mask id="mask-32" maskContentUnits="userSpaceOnUse" maskUnits="objectBoundingBox" x="0" y="0" width="20" height="20" fill="white">
            <use xlink:href="#path-31"></use>
        </mask>
        <rect id="path-33" x="10" y="69" width="98" height="24" rx="3"></rect>
        <mask id="mask-34" maskContentUnits="userSpaceOnUse" maskUnits="objectBoundingBox" x="0" y="0" width="98" height="24" fill="white">
            <use xlink:href="#path-33"></use>
        </mask>
        <circle id="path-35" cx="9.5" cy="9.5" r="9.5"></circle>
        <mask id="mask-36" maskContentUnits="userSpaceOnUse" maskUnits="objectBoundingBox" x="0" y="0" width="19" height="19" fill="white">
            <use xlink:href="#path-35"></use>
        </mask>
        <rect id="path-37" x="0" y="0" width="120" height="140" rx="3"></rect>
        <filter x="-50%" y="-50%" width="200%" height="200%" filterUnits="objectBoundingBox" id="filter-38">
            <feOffset dx="0" dy="7" in="SourceAlpha" result="shadowOffsetOuter1"></feOffset>
            <feGaussianBlur stdDeviation="4.5" in="shadowOffsetOuter1" result="shadowBlurOuter1"></feGaussianBlur>
            <feComposite in="shadowBlurOuter1" in2="SourceAlpha" operator="out" result="shadowBlurOuter1"></feComposite>
            <feColorMatrix values="0 0 0 0 0.816139802   0 0 0 0 0.864383676   0 0 0 0 0.912627551  0 0 0 0.632189764 0" type="matrix" in="shadowBlurOuter1"></feColorMatrix>
        </filter>
        <mask id="mask-39" maskContentUnits="userSpaceOnUse" maskUnits="objectBoundingBox" x="0" y="0" width="120" height="140" fill="white">
            <use xlink:href="#path-37"></use>
        </mask>
        <rect id="path-40" x="0" y="0" width="28" height="28" rx="3"></rect>
        <mask id="mask-41" maskContentUnits="userSpaceOnUse" maskUnits="objectBoundingBox" x="0" y="0" width="28" height="28" fill="white">
            <use xlink:href="#path-40"></use>
        </mask>
        <rect id="path-42" x="0" y="32" width="28" height="5" rx="1"></rect>
        <mask id="mask-43" maskContentUnits="userSpaceOnUse" maskUnits="objectBoundingBox" x="0" y="0" width="28" height="5" fill="white">
            <use xlink:href="#path-42"></use>
        </mask>
        <rect id="path-44" x="0" y="41" width="28" height="5" rx="1"></rect>
        <mask id="mask-45" maskContentUnits="userSpaceOnUse" maskUnits="objectBoundingBox" x="0" y="0" width="28" height="5" fill="white">
            <use xlink:href="#path-44"></use>
        </mask>
        <rect id="path-46" x="0" y="0" width="28" height="28" rx="3"></rect>
        <mask id="mask-47" maskContentUnits="userSpaceOnUse" maskUnits="objectBoundingBox" x="0" y="0" width="28" height="28" fill="white">
            <use xlink:href="#path-46"></use>
        </mask>
        <rect id="path-48" x="0" y="32" width="28" height="5" rx="1"></rect>
        <mask id="mask-49" maskContentUnits="userSpaceOnUse" maskUnits="objectBoundingBox" x="0" y="0" width="28" height="5" fill="white">
            <use xlink:href="#path-48"></use>
        </mask>
        <rect id="path-50" x="0" y="41" width="28" height="5" rx="1"></rect>
        <mask id="mask-51" maskContentUnits="userSpaceOnUse" maskUnits="objectBoundingBox" x="0" y="0" width="28" height="5" fill="white">
            <use xlink:href="#path-50"></use>
        </mask>
        <rect id="path-52" x="0" y="0" width="28" height="28" rx="3"></rect>
        <mask id="mask-53" maskContentUnits="userSpaceOnUse" maskUnits="objectBoundingBox" x="0" y="0" width="28" height="28" fill="white">
            <use xlink:href="#path-52"></use>
        </mask>
        <rect id="path-54" x="0" y="32" width="28" height="5" rx="1"></rect>
        <mask id="mask-55" maskContentUnits="userSpaceOnUse" maskUnits="objectBoundingBox" x="0" y="0" width="28" height="5" fill="white">
            <use xlink:href="#path-54"></use>
        </mask>
        <rect id="path-56" x="0" y="41" width="28" height="5" rx="1"></rect>
        <mask id="mask-57" maskContentUnits="userSpaceOnUse" maskUnits="objectBoundingBox" x="0" y="0" width="28" height="5" fill="white">
            <use xlink:href="#path-56"></use>
        </mask>
        <rect id="path-58" x="0" y="0" width="28" height="28" rx="3"></rect>
        <mask id="mask-59" maskContentUnits="userSpaceOnUse" maskUnits="objectBoundingBox" x="0" y="0" width="28" height="28" fill="white">
            <use xlink:href="#path-58"></use>
        </mask>
        <rect id="path-60" x="0" y="32" width="28" height="5" rx="1"></rect>
        <mask id="mask-61" maskContentUnits="userSpaceOnUse" maskUnits="objectBoundingBox" x="0" y="0" width="28" height="5" fill="white">
            <use xlink:href="#path-60"></use>
        </mask>
        <rect id="path-62" x="0" y="41" width="28" height="5" rx="1"></rect>
        <mask id="mask-63" maskContentUnits="userSpaceOnUse" maskUnits="objectBoundingBox" x="0" y="0" width="28" height="5" fill="white">
            <use xlink:href="#path-62"></use>
        </mask>
        <rect id="path-64" x="0" y="0" width="28" height="28" rx="3"></rect>
        <mask id="mask-65" maskContentUnits="userSpaceOnUse" maskUnits="objectBoundingBox" x="0" y="0" width="28" height="28" fill="white">
            <use xlink:href="#path-64"></use>
        </mask>
        <rect id="path-66" x="0" y="32" width="28" height="5" rx="1"></rect>
        <mask id="mask-67" maskContentUnits="userSpaceOnUse" maskUnits="objectBoundingBox" x="0" y="0" width="28" height="5" fill="white">
            <use xlink:href="#path-66"></use>
        </mask>
        <rect id="path-68" x="0" y="41" width="28" height="5" rx="1"></rect>
        <mask id="mask-69" maskContentUnits="userSpaceOnUse" maskUnits="objectBoundingBox" x="0" y="0" width="28" height="5" fill="white">
            <use xlink:href="#path-68"></use>
        </mask>
        <rect id="path-70" x="0" y="0" width="28" height="28" rx="3"></rect>
        <mask id="mask-71" maskContentUnits="userSpaceOnUse" maskUnits="objectBoundingBox" x="0" y="0" width="28" height="28" fill="white">
            <use xlink:href="#path-70"></use>
        </mask>
        <rect id="path-72" x="0" y="32" width="28" height="5" rx="1"></rect>
        <mask id="mask-73" maskContentUnits="userSpaceOnUse" maskUnits="objectBoundingBox" x="0" y="0" width="28" height="5" fill="white">
            <use xlink:href="#path-72"></use>
        </mask>
        <rect id="path-74" x="0" y="41" width="28" height="5" rx="1"></rect>
        <mask id="mask-75" maskContentUnits="userSpaceOnUse" maskUnits="objectBoundingBox" x="0" y="0" width="28" height="5" fill="white">
            <use xlink:href="#path-74"></use>
        </mask>
        <circle id="path-76" cx="9.5" cy="9.5" r="9.5"></circle>
        <mask id="mask-77" maskContentUnits="userSpaceOnUse" maskUnits="objectBoundingBox" x="0" y="0" width="19" height="19" fill="white">
            <use xlink:href="#path-76"></use>
        </mask>
        <rect id="path-78" x="0" y="0" width="120" height="140" rx="3"></rect>
        <filter x="-50%" y="-50%" width="200%" height="200%" filterUnits="objectBoundingBox" id="filter-79">
            <feOffset dx="0" dy="7" in="SourceAlpha" result="shadowOffsetOuter1"></feOffset>
            <feGaussianBlur stdDeviation="4.5" in="shadowOffsetOuter1" result="shadowBlurOuter1"></feGaussianBlur>
            <feComposite in="shadowBlurOuter1" in2="SourceAlpha" operator="out" result="shadowBlurOuter1"></feComposite>
            <feColorMatrix values="0 0 0 0 0.816139802   0 0 0 0 0.864383676   0 0 0 0 0.912627551  0 0 0 0.632189764 0" type="matrix" in="shadowBlurOuter1"></feColorMatrix>
        </filter>
        <mask id="mask-80" maskContentUnits="userSpaceOnUse" maskUnits="objectBoundingBox" x="0" y="0" width="120" height="140" fill="white">
            <use xlink:href="#path-78"></use>
        </mask>
        <rect id="path-81" x="36" y="0" width="28" height="28" rx="100"></rect>
        <mask id="mask-82" maskContentUnits="userSpaceOnUse" maskUnits="objectBoundingBox" x="0" y="0" width="28" height="28" fill="white">
            <use xlink:href="#path-81"></use>
        </mask>
        <rect id="path-83" x="0" y="43" width="103" height="46" rx="3"></rect>
        <mask id="mask-84" maskContentUnits="userSpaceOnUse" maskUnits="objectBoundingBox" x="0" y="0" width="103" height="46" fill="white">
            <use xlink:href="#path-83"></use>
        </mask>
        <rect id="path-85" x="6" y="53" width="28" height="5" rx="1"></rect>
        <mask id="mask-86" maskContentUnits="userSpaceOnUse" maskUnits="objectBoundingBox" x="0" y="0" width="28" height="5" fill="white">
            <use xlink:href="#path-85"></use>
        </mask>
        <rect id="path-87" x="6" y="63" width="37" height="5" rx="1"></rect>
        <mask id="mask-88" maskContentUnits="userSpaceOnUse" maskUnits="objectBoundingBox" x="0" y="0" width="37" height="5" fill="white">
            <use xlink:href="#path-87"></use>
        </mask>
        <rect id="path-89" x="6" y="73" width="53" height="5" rx="1"></rect>
        <mask id="mask-90" maskContentUnits="userSpaceOnUse" maskUnits="objectBoundingBox" x="0" y="0" width="53" height="5" fill="white">
            <use xlink:href="#path-89"></use>
        </mask>
        <rect id="path-91" x="0" y="0" width="120" height="140" rx="3"></rect>
        <filter x="-50%" y="-50%" width="200%" height="200%" filterUnits="objectBoundingBox" id="filter-92">
            <feOffset dx="0" dy="7" in="SourceAlpha" result="shadowOffsetOuter1"></feOffset>
            <feGaussianBlur stdDeviation="4.5" in="shadowOffsetOuter1" result="shadowBlurOuter1"></feGaussianBlur>
            <feComposite in="shadowBlurOuter1" in2="SourceAlpha" operator="out" result="shadowBlurOuter1"></feComposite>
            <feColorMatrix values="0 0 0 0 0.816139802   0 0 0 0 0.864383676   0 0 0 0 0.912627551  0 0 0 0.632189764 0" type="matrix" in="shadowBlurOuter1"></feColorMatrix>
        </filter>
        <mask id="mask-93" maskContentUnits="userSpaceOnUse" maskUnits="objectBoundingBox" x="0" y="0" width="120" height="140" fill="white">
            <use xlink:href="#path-91"></use>
        </mask>
        <rect id="path-94" x="0" y="0" width="103" height="12" rx="3"></rect>
        <mask id="mask-95" maskContentUnits="userSpaceOnUse" maskUnits="objectBoundingBox" x="0" y="0" width="103" height="12" fill="white">
            <use xlink:href="#path-94"></use>
        </mask>
        <rect id="path-96" x="0" y="84" width="84" height="8" rx="2"></rect>
        <mask id="mask-97" maskContentUnits="userSpaceOnUse" maskUnits="objectBoundingBox" x="0" y="0" width="84" height="8" fill="white">
            <use xlink:href="#path-96"></use>
        </mask>
        <rect id="path-98" x="0" y="97" width="84" height="8" rx="2"></rect>
        <mask id="mask-99" maskContentUnits="userSpaceOnUse" maskUnits="objectBoundingBox" x="0" y="0" width="84" height="8" fill="white">
            <use xlink:href="#path-98"></use>
        </mask>
        <rect id="path-100" x="0" y="17" width="45" height="60" rx="3"></rect>
        <mask id="mask-101" maskContentUnits="userSpaceOnUse" maskUnits="objectBoundingBox" x="0" y="0" width="45" height="60" fill="white">
            <use xlink:href="#path-100"></use>
        </mask>
        <rect id="path-102" x="52" y="17" width="51" height="60" rx="3"></rect>
        <mask id="mask-103" maskContentUnits="userSpaceOnUse" maskUnits="objectBoundingBox" x="0" y="0" width="51" height="60" fill="white">
            <use xlink:href="#path-102"></use>
        </mask>
    </defs>
    <g id="Page-1" stroke="none" stroke-width="1" fill="none" fill-rule="evenodd">
        <g id="Desktop-HD" transform="translate(-521.000000, -44.000000)">
            <g id="Group-11" transform="translate(521.000000, 44.000000)">
                <g id="Group" fill="#D8D8D8">
                    <circle id="Oval-11-Copy-337" cx="295" cy="631" r="1"></circle>
                    <circle id="Oval-11-Copy-336" cx="253" cy="631" r="1"></circle>
                    <circle id="Oval-11-Copy-330" cx="1" cy="631" r="1"></circle>
                    <circle id="Oval-11-Copy-317" cx="295" cy="589" r="1"></circle>
                    <circle id="Oval-11-Copy-314" cx="169" cy="589" r="1"></circle>
                    <circle id="Oval-11-Copy-312" cx="85" cy="589" r="1"></circle>
                    <circle id="Oval-11-Copy-304" cx="589" cy="547" r="1"></circle>
                    <circle id="Oval-11-Copy-303" cx="547" cy="547" r="1"></circle>
                    <circle id="Oval-11-Copy-300" cx="421" cy="547" r="1"></circle>
                    <circle id="Oval-11-Copy-299" cx="379" cy="547" r="1"></circle>
                    <circle id="Oval-11-Copy-298" cx="337" cy="547" r="1"></circle>
                    <circle id="Oval-11-Copy-297" cx="295" cy="547" r="1"></circle>
                    <circle id="Oval-11-Copy-296" cx="253" cy="547" r="1"></circle>
                    <circle id="Oval-11-Copy-295" cx="211" cy="547" r="1"></circle>
                    <circle id="Oval-11-Copy-294" cx="169" cy="547" r="1"></circle>
                    <circle id="Oval-11-Copy-292" cx="85" cy="547" r="1"></circle>
                    <circle id="Oval-11-Copy-291" cx="43" cy="547" r="1"></circle>
                    <circle id="Oval-11-Copy-284" cx="589" cy="505" r="1"></circle>
                    <circle id="Oval-11-Copy-283" cx="547" cy="505" r="1"></circle>
                    <circle id="Oval-11-Copy-282" cx="505" cy="505" r="1"></circle>
                    <circle id="Oval-11-Copy-281" cx="463" cy="505" r="1"></circle>
                    <circle id="Oval-11-Copy-280" cx="421" cy="505" r="1"></circle>
                    <circle id="Oval-11-Copy-279" cx="379" cy="505" r="1"></circle>
                    <circle id="Oval-11-Copy-278" cx="337" cy="505" r="1"></circle>
                    <circle id="Oval-11-Copy-277" cx="295" cy="505" r="1"></circle>
                    <circle id="Oval-11-Copy-276" cx="253" cy="505" r="1"></circle>
                    <circle id="Oval-11-Copy-275" cx="211" cy="505" r="1"></circle>
                    <circle id="Oval-11-Copy-274" cx="169" cy="505" r="1"></circle>
                    <circle id="Oval-11-Copy-273" cx="127" cy="505" r="1"></circle>
                    <circle id="Oval-11-Copy-272" cx="85" cy="505" r="1"></circle>
                    <circle id="Oval-11-Copy-271" cx="43" cy="505" r="1"></circle>
                    <circle id="Oval-11-Copy-268" cx="757" cy="463" r="1"></circle>
                    <circle id="Oval-11-Copy-267" cx="715" cy="463" r="1"></circle>
                    <circle id="Oval-11-Copy-266" cx="673" cy="463" r="1"></circle>
                    <circle id="Oval-11-Copy-265" cx="631" cy="463" r="1"></circle>
                    <circle id="Oval-11-Copy-264" cx="589" cy="463" r="1"></circle>
                    <circle id="Oval-11-Copy-263" cx="547" cy="463" r="1"></circle>
                    <circle id="Oval-11-Copy-262" cx="505" cy="463" r="1"></circle>
                    <circle id="Oval-11-Copy-261" cx="463" cy="463" r="1"></circle>
                    <circle id="Oval-11-Copy-260" cx="421" cy="463" r="1"></circle>
                    <circle id="Oval-11-Copy-259" cx="379" cy="463" r="1"></circle>
                    <circle id="Oval-11-Copy-258" cx="337" cy="463" r="1"></circle>
                    <circle id="Oval-11-Copy-257" cx="295" cy="463" r="1"></circle>
                    <circle id="Oval-11-Copy-256" cx="253" cy="463" r="1"></circle>
                    <circle id="Oval-11-Copy-255" cx="211" cy="463" r="1"></circle>
                    <circle id="Oval-11-Copy-254" cx="169" cy="463" r="1"></circle>
                    <circle id="Oval-11-Copy-253" cx="127" cy="463" r="1"></circle>
                    <circle id="Oval-11-Copy-251" cx="43" cy="463" r="1"></circle>
                    <circle id="Oval-11-Copy-247" cx="715" cy="421" r="1"></circle>
                    <circle id="Oval-11-Copy-246" cx="673" cy="421" r="1"></circle>
                    <circle id="Oval-11-Copy-245" cx="631" cy="421" r="1"></circle>
                    <circle id="Oval-11-Copy-244" cx="589" cy="421" r="1"></circle>
                    <circle id="Oval-11-Copy-243" cx="547" cy="421" r="1"></circle>
                    <circle id="Oval-11-Copy-242" cx="505" cy="421" r="1"></circle>
                    <circle id="Oval-11-Copy-241" cx="463" cy="421" r="1"></circle>
                    <circle id="Oval-11-Copy-240" cx="421" cy="421" r="1"></circle>
                    <circle id="Oval-11-Copy-239" cx="379" cy="421" r="1"></circle>
                    <circle id="Oval-11-Copy-238" cx="337" cy="421" r="1"></circle>
                    <circle id="Oval-11-Copy-237" cx="295" cy="421" r="1"></circle>
                    <circle id="Oval-11-Copy-236" cx="253" cy="421" r="1"></circle>
                    <circle id="Oval-11-Copy-235" cx="211" cy="421" r="1"></circle>
                    <circle id="Oval-11-Copy-234" cx="169" cy="421" r="1"></circle>
                    <circle id="Oval-11-Copy-233" cx="127" cy="421" r="1"></circle>
                    <circle id="Oval-11-Copy-232" cx="85" cy="421" r="1"></circle>
                    <circle id="Oval-11-Copy-230" cx="1" cy="421" r="1"></circle>
                    <circle id="Oval-11-Copy-227" cx="715" cy="379" r="1"></circle>
                    <circle id="Oval-11-Copy-226" cx="673" cy="379" r="1"></circle>
                    <circle id="Oval-11-Copy-225" cx="631" cy="379" r="1"></circle>
                    <circle id="Oval-11-Copy-224" cx="589" cy="379" r="1"></circle>
                    <circle id="Oval-11-Copy-223" cx="547" cy="379" r="1"></circle>
                    <circle id="Oval-11-Copy-222" cx="505" cy="379" r="1"></circle>
                    <circle id="Oval-11-Copy-221" cx="463" cy="379" r="1"></circle>
                    <circle id="Oval-11-Copy-220" cx="421" cy="379" r="1"></circle>
                    <circle id="Oval-11-Copy-219" cx="379" cy="379" r="1"></circle>
                    <circle id="Oval-11-Copy-218" cx="337" cy="379" r="1"></circle>
                    <circle id="Oval-11-Copy-217" cx="295" cy="379" r="1"></circle>
                    <circle id="Oval-11-Copy-216" cx="253" cy="379" r="1"></circle>
                    <circle id="Oval-11-Copy-215" cx="211" cy="379" r="1"></circle>
                    <circle id="Oval-11-Copy-214" cx="169" cy="379" r="1"></circle>
                    <circle id="Oval-11-Copy-213" cx="127" cy="379" r="1"></circle>
                    <circle id="Oval-11-Copy-212" cx="85" cy="379" r="1"></circle>
                    <circle id="Oval-11-Copy-211" cx="43" cy="379" r="1"></circle>
                    <circle id="Oval-11-Copy-208" cx="757" cy="337" r="1"></circle>
                    <circle id="Oval-11-Copy-207" cx="715" cy="337" r="1"></circle>
                    <circle id="Oval-11-Copy-206" cx="673" cy="337" r="1"></circle>
                    <circle id="Oval-11-Copy-205" cx="631" cy="337" r="1"></circle>
                    <circle id="Oval-11-Copy-204" cx="589" cy="337" r="1"></circle>
                    <circle id="Oval-11-Copy-203" cx="547" cy="337" r="1"></circle>
                    <circle id="Oval-11-Copy-202" cx="505" cy="337" r="1"></circle>
                    <circle id="Oval-11-Copy-201" cx="463" cy="337" r="1"></circle>
                    <circle id="Oval-11-Copy-200" cx="421" cy="337" r="1"></circle>
                    <circle id="Oval-11-Copy-199" cx="379" cy="337" r="1"></circle>
                    <circle id="Oval-11-Copy-198" cx="337" cy="337" r="1"></circle>
                    <circle id="Oval-11-Copy-197" cx="295" cy="337" r="1"></circle>
                    <circle id="Oval-11-Copy-196" cx="253" cy="337" r="1"></circle>
                    <circle id="Oval-11-Copy-195" cx="211" cy="337" r="1"></circle>
                    <circle id="Oval-11-Copy-194" cx="169" cy="337" r="1"></circle>
                    <circle id="Oval-11-Copy-193" cx="127" cy="337" r="1"></circle>
                    <circle id="Oval-11-Copy-192" cx="85" cy="337" r="1"></circle>
                    <circle id="Oval-11-Copy-187" cx="715" cy="295" r="1"></circle>
                    <circle id="Oval-11-Copy-186" cx="673" cy="295" r="1"></circle>
                    <circle id="Oval-11-Copy-185" cx="631" cy="295" r="1"></circle>
                    <circle id="Oval-11-Copy-181" cx="463" cy="295" r="1"></circle>
                    <circle id="Oval-11-Copy-180" cx="421" cy="295" r="1"></circle>
                    <circle id="Oval-11-Copy-179" cx="379" cy="295" r="1"></circle>
                    <circle id="Oval-11-Copy-178" cx="337" cy="295" r="1"></circle>
                    <circle id="Oval-11-Copy-177" cx="295" cy="295" r="1"></circle>
                    <circle id="Oval-11-Copy-176" cx="253" cy="295" r="1"></circle>
                    <circle id="Oval-11-Copy-175" cx="211" cy="295" r="1"></circle>
                    <circle id="Oval-11-Copy-173" cx="127" cy="295" r="1"></circle>
                    <circle id="Oval-11-Copy-172" cx="85" cy="295" r="1"></circle>
                    <circle id="Oval-11-Copy-171" cx="43" cy="295" r="1"></circle>
                    <circle id="Oval-11-Copy-170" cx="1" cy="295" r="1"></circle>
                    <circle id="Oval-11-Copy-169" cx="799" cy="253" r="1"></circle>
                    <circle id="Oval-11-Copy-168" cx="757" cy="253" r="1"></circle>
                    <circle id="Oval-11-Copy-167" cx="715" cy="253" r="1"></circle>
                    <circle id="Oval-11-Copy-166" cx="673" cy="253" r="1"></circle>
                    <circle id="Oval-11-Copy-165" cx="631" cy="253" r="1"></circle>
                    <circle id="Oval-11-Copy-161" cx="463" cy="253" r="1"></circle>
                    <circle id="Oval-11-Copy-160" cx="421" cy="253" r="1"></circle>
                    <circle id="Oval-11-Copy-159" cx="379" cy="253" r="1"></circle>
                    <circle id="Oval-11-Copy-158" cx="337" cy="253" r="1"></circle>
                    <circle id="Oval-11-Copy-157" cx="295" cy="253" r="1"></circle>
                    <circle id="Oval-11-Copy-156" cx="253" cy="253" r="1"></circle>
                    <circle id="Oval-11-Copy-155" cx="211" cy="253" r="1"></circle>
                    <circle id="Oval-11-Copy-153" cx="127" cy="253" r="1"></circle>
                    <circle id="Oval-11-Copy-152" cx="85" cy="253" r="1"></circle>
                    <circle id="Oval-11-Copy-151" cx="43" cy="253" r="1"></circle>
                    <circle id="Oval-11-Copy-145" cx="631" cy="211" r="1"></circle>
                    <circle id="Oval-11-Copy-144" cx="589" cy="211" r="1"></circle>
                    <circle id="Oval-11-Copy-143" cx="547" cy="211" r="1"></circle>
                    <circle id="Oval-11-Copy-142" cx="505" cy="211" r="1"></circle>
                    <circle id="Oval-11-Copy-141" cx="463" cy="211" r="1"></circle>
                    <circle id="Oval-11-Copy-140" cx="421" cy="211" r="1"></circle>
                    <circle id="Oval-11-Copy-139" cx="379" cy="211" r="1"></circle>
                    <circle id="Oval-11-Copy-138" cx="337" cy="211" r="1"></circle>
                    <circle id="Oval-11-Copy-137" cx="295" cy="211" r="1"></circle>
                    <circle id="Oval-11-Copy-136" cx="253" cy="211" r="1"></circle>
                    <circle id="Oval-11-Copy-135" cx="211" cy="211" r="1"></circle>
                    <circle id="Oval-11-Copy-134" cx="169" cy="211" r="1"></circle>
                    <circle id="Oval-11-Copy-131" cx="43" cy="211" r="1"></circle>
                    <circle id="Oval-11-Copy-126" cx="673" cy="169" r="1"></circle>
                    <circle id="Oval-11-Copy-125" cx="631" cy="169" r="1"></circle>
                    <circle id="Oval-11-Copy-124" cx="589" cy="169" r="1"></circle>
                    <circle id="Oval-11-Copy-123" cx="547" cy="169" r="1"></circle>
                    <circle id="Oval-11-Copy-122" cx="505" cy="169" r="1"></circle>
                    <circle id="Oval-11-Copy-121" cx="463" cy="169" r="1"></circle>
                    <circle id="Oval-11-Copy-120" cx="421" cy="169" r="1"></circle>
                    <circle id="Oval-11-Copy-119" cx="379" cy="169" r="1"></circle>
                    <circle id="Oval-11-Copy-118" cx="337" cy="169" r="1"></circle>
                    <circle id="Oval-11-Copy-117" cx="295" cy="169" r="1"></circle>
                    <circle id="Oval-11-Copy-116" cx="253" cy="169" r="1"></circle>
                    <circle id="Oval-11-Copy-115" cx="211" cy="169" r="1"></circle>
                    <circle id="Oval-11-Copy-114" cx="169" cy="169" r="1"></circle>
                    <circle id="Oval-11-Copy-113" cx="127" cy="169" r="1"></circle>
                    <circle id="Oval-11-Copy-112" cx="85" cy="169" r="1"></circle>
                    <circle id="Oval-11-Copy-109" cx="799" cy="127" r="1"></circle>
                    <circle id="Oval-11-Copy-108" cx="757" cy="127" r="1"></circle>
                    <circle id="Oval-11-Copy-107" cx="715" cy="127" r="1"></circle>
                    <circle id="Oval-11-Copy-106" cx="673" cy="127" r="1"></circle>
                    <circle id="Oval-11-Copy-105" cx="631" cy="127" r="1"></circle>
                    <circle id="Oval-11-Copy-104" cx="589" cy="127" r="1"></circle>
                    <circle id="Oval-11-Copy-103" cx="547" cy="127" r="1"></circle>
                    <circle id="Oval-11-Copy-102" cx="505" cy="127" r="1"></circle>
                    <circle id="Oval-11-Copy-101" cx="463" cy="127" r="1"></circle>
                    <circle id="Oval-11-Copy-100" cx="421" cy="127" r="1"></circle>
                    <circle id="Oval-11-Copy-99" cx="379" cy="127" r="1"></circle>
                    <circle id="Oval-11-Copy-98" cx="337" cy="127" r="1"></circle>
                    <circle id="Oval-11-Copy-97" cx="295" cy="127" r="1"></circle>
                    <circle id="Oval-11-Copy-93" cx="127" cy="127" r="1"></circle>
                    <circle id="Oval-11-Copy-86" cx="673" cy="85" r="1"></circle>
                    <circle id="Oval-11-Copy-85" cx="631" cy="85" r="1"></circle>
                    <circle id="Oval-11-Copy-84" cx="589" cy="85" r="1"></circle>
                    <circle id="Oval-11-Copy-83" cx="547" cy="85" r="1"></circle>
                    <circle id="Oval-11-Copy-82" cx="505" cy="85" r="1"></circle>
                    <circle id="Oval-11-Copy-81" cx="463" cy="85" r="1"></circle>
                    <circle id="Oval-11-Copy-80" cx="421" cy="85" r="1"></circle>
                    <circle id="Oval-11-Copy-79" cx="379" cy="85" r="1"></circle>
                    <circle id="Oval-11-Copy-78" cx="337" cy="85" r="1"></circle>
                    <circle id="Oval-11-Copy-77" cx="295" cy="85" r="1"></circle>
                    <circle id="Oval-11-Copy-76" cx="253" cy="85" r="1"></circle>
                    <circle id="Oval-11-Copy-75" cx="211" cy="85" r="1"></circle>
                    <circle id="Oval-11-Copy-66" cx="673" cy="43" r="1"></circle>
                    <circle id="Oval-11-Copy-65" cx="631" cy="43" r="1"></circle>
                    <circle id="Oval-11-Copy-64" cx="589" cy="43" r="1"></circle>
                    <circle id="Oval-11-Copy-63" cx="547" cy="43" r="1"></circle>
                    <circle id="Oval-11-Copy-62" cx="505" cy="43" r="1"></circle>
                    <circle id="Oval-11-Copy-59" cx="379" cy="43" r="1"></circle>
                    <circle id="Oval-11-Copy-58" cx="337" cy="43" r="1"></circle>
                    <circle id="Oval-11-Copy-57" cx="295" cy="43" r="1"></circle>
                    <circle id="Oval-11-Copy-56" cx="253" cy="43" r="1"></circle>
                    <circle id="Oval-11-Copy-46" cx="673" cy="1" r="1"></circle>
                    <circle id="Oval-11-Copy-45" cx="631" cy="1" r="1"></circle>
                    <circle id="Oval-11-Copy-44" cx="589" cy="1" r="1"></circle>
                    <circle id="Oval-11-Copy-43" cx="547" cy="1" r="1"></circle>
                    <circle id="Oval-11-Copy-42" cx="505" cy="1" r="1"></circle>
                    <circle id="Oval-11-Copy-39" cx="379" cy="1" r="1"></circle>
                </g>
                <g id="Group-6" transform="translate(70.000000, 93.000000)">
                    <g id="Group" transform="translate(0.000000, 146.000000)">
                        <g id="Rectangle-4">
                            <use fill="black" fill-opacity="1" filter="url(#filter-2)" xlink:href="#path-1"></use>
                            <use stroke="#899199" mask="url(#mask-3)" stroke-width="2" fill="#FFFFFF" fill-rule="evenodd" xlink:href="#path-1"></use>
                        </g>
                        <use id="Rectangle-5" stroke="#899199" mask="url(#mask-5)" stroke-width="2" fill="#FFFFFF" xlink:href="#path-4"></use>
                        <use id="Rectangle-5-Copy" stroke="#899199" mask="url(#mask-7)" stroke-width="2" fill="#F1F5F7" xlink:href="#path-6"></use>
                        <use id="Rectangle-5-Copy-2" stroke="#899199" mask="url(#mask-9)" stroke-width="2" fill="#FFFFFF" xlink:href="#path-8"></use>
                        <use id="Rectangle-5-Copy-4" stroke="#899199" mask="url(#mask-11)" stroke-width="2" fill="#F1F5F7" xlink:href="#path-10"></use>
                    </g>
                    <g id="Group-4" transform="translate(177.000000, 305.000000)">
                        <g id="Group-Copy">
                            <g id="Rectangle-4">
                                <use fill="black" fill-opacity="1" filter="url(#filter-13)" xlink:href="#path-12"></use>
                                <use stroke="#899199" mask="url(#mask-14)" stroke-width="2" fill="#FFFFFF" fill-rule="evenodd" xlink:href="#path-12"></use>
                            </g>
                            <g id="Group-2" transform="translate(39.000000, 12.000000)" stroke="#899199" stroke-width="2" fill="#FFFFFF">
                                <use id="Rectangle-12" mask="url(#mask-16)" xlink:href="#path-15"></use>
                                <use id="Rectangle-12-Copy" mask="url(#mask-18)" xlink:href="#path-17"></use>
                            </g>
                            <use id="Rectangle-5" stroke="#899199" mask="url(#mask-20)" stroke-width="2" fill="#F1F5F7" xlink:href="#path-19"></use>
                            <g id="Group-3" transform="translate(10.000000, 39.000000)" stroke="#899199" stroke-width="2">
                                <g id="Group-2-Copy" transform="translate(29.000000, 2.000000)" fill="#FFFFFF">
                                    <use id="Rectangle-12" mask="url(#mask-22)" xlink:href="#path-21"></use>
                                    <use id="Rectangle-12-Copy" mask="url(#mask-24)" xlink:href="#path-23"></use>
                                </g>
                                <use id="Rectangle-5-Copy-3" mask="url(#mask-26)" fill="#F1F5F7" xlink:href="#path-25"></use>
                            </g>
                            <g id="Group-3-Copy" transform="translate(10.000000, 103.000000)" stroke="#899199" stroke-width="2">
                                <g id="Group-2-Copy" transform="translate(29.000000, 2.000000)" fill="#FFFFFF">
                                    <use id="Rectangle-12" mask="url(#mask-28)" xlink:href="#path-27"></use>
                                    <use id="Rectangle-12-Copy" mask="url(#mask-30)" xlink:href="#path-29"></use>
                                </g>
                                <use id="Rectangle-5-Copy-3" mask="url(#mask-32)" fill="#F1F5F7" xlink:href="#path-31"></use>
                            </g>
                            <use id="Rectangle-5-Copy-2" stroke="#85B27F" mask="url(#mask-34)" stroke-width="2" fill="#DEF5DB" xlink:href="#path-33"></use>
                        </g>
                    </g>
                    <g id="Group-7" transform="translate(287.000000, 297.000000)">
                        <use id="Oval-9" stroke="#899199" mask="url(#mask-36)" stroke-width="2" fill="#F1F5F7" xlink:href="#path-35"></use>
                        <path d="M9.784,5.432 C9.496,5.744 9.136,6.02 8.704,6.284 C8.272,6.524 7.876,6.692 7.492,6.788 L7.492,8.084 C8.284,7.856 8.944,7.496 9.46,7.004 L9.46,14 L10.768,14 L10.768,5.432 L9.784,5.432 Z" id="1" fill="#899199"></path>
                    </g>
                    <g id="Group-4-Copy" transform="translate(250.000000, 14.000000)">
                        <g id="Group-Copy" transform="translate(0.000000, 8.000000)">
                            <g id="Rectangle-4">
                                <use fill="black" fill-opacity="1" filter="url(#filter-38)" xlink:href="#path-37"></use>
                                <use stroke="#899199" mask="url(#mask-39)" stroke-width="2" fill="#FFFFFF" fill-rule="evenodd" xlink:href="#path-37"></use>
                            </g>
                            <g id="Group-5" transform="translate(8.000000, 17.000000)" stroke-width="2">
                                <use id="Rectangle-5" stroke="#899199" mask="url(#mask-41)" fill="#F1F5F7" xlink:href="#path-40"></use>
                                <use id="Rectangle-12" stroke="#899199" mask="url(#mask-43)" fill="#F1F5F7" xlink:href="#path-42"></use>
                                <use id="Rectangle-12-Copy-2" stroke="#83A9C5" mask="url(#mask-45)" fill="#AED6F3" xlink:href="#path-44"></use>
                            </g>
                            <g id="Group-5-Copy-3" transform="translate(8.000000, 70.000000)" stroke-width="2">
                                <use id="Rectangle-5" stroke="#899199" mask="url(#mask-47)" fill="#F1F5F7" xlink:href="#path-46"></use>
                                <use id="Rectangle-12" stroke="#899199" mask="url(#mask-49)" fill="#F1F5F7" xlink:href="#path-48"></use>
                                <use id="Rectangle-12-Copy-2" stroke="#83A9C5" mask="url(#mask-51)" fill="#AED6F3" xlink:href="#path-50"></use>
                            </g>
                            <g id="Group-5-Copy" transform="translate(46.000000, 17.000000)" stroke-width="2">
                                <use id="Rectangle-5" stroke="#899199" mask="url(#mask-53)" fill="#F1F5F7" xlink:href="#path-52"></use>
                                <use id="Rectangle-12" stroke="#899199" mask="url(#mask-55)" fill="#F1F5F7" xlink:href="#path-54"></use>
                                <use id="Rectangle-12-Copy-2" stroke="#83A9C5" mask="url(#mask-57)" fill="#AED6F3" xlink:href="#path-56"></use>
                            </g>
                            <g id="Group-5-Copy-4" transform="translate(46.000000, 70.000000)" stroke-width="2">
                                <use id="Rectangle-5" stroke="#899199" mask="url(#mask-59)" fill="#F1F5F7" xlink:href="#path-58"></use>
                                <use id="Rectangle-12" stroke="#899199" mask="url(#mask-61)" fill="#F1F5F7" xlink:href="#path-60"></use>
                                <use id="Rectangle-12-Copy-2" stroke="#83A9C5" mask="url(#mask-63)" fill="#AED6F3" xlink:href="#path-62"></use>
                            </g>
                            <g id="Group-5-Copy-2" transform="translate(84.000000, 17.000000)" stroke-width="2">
                                <use id="Rectangle-5" stroke="#899199" mask="url(#mask-65)" fill="#F1F5F7" xlink:href="#path-64"></use>
                                <use id="Rectangle-12" stroke="#899199" mask="url(#mask-67)" fill="#F1F5F7" xlink:href="#path-66"></use>
                                <use id="Rectangle-12-Copy-2" stroke="#83A9C5" mask="url(#mask-69)" fill="#AED6F3" xlink:href="#path-68"></use>
                            </g>
                            <g id="Group-5-Copy-5" transform="translate(84.000000, 70.000000)" stroke-width="2">
                                <use id="Rectangle-5" stroke="#899199" mask="url(#mask-71)" fill="#F1F5F7" xlink:href="#path-70"></use>
                                <use id="Rectangle-12" stroke="#899199" mask="url(#mask-73)" fill="#F1F5F7" xlink:href="#path-72"></use>
                                <use id="Rectangle-12-Copy-2" stroke="#83A9C5" mask="url(#mask-75)" fill="#AED6F3" xlink:href="#path-74"></use>
                            </g>
                        </g>
                        <g id="Group-7" transform="translate(110.000000, 0.000000)" stroke="#899199" stroke-width="2" fill="#F1F5F7">
                            <use id="Oval-9" mask="url(#mask-77)" xlink:href="#path-76"></use>
                        </g>
                        <path d="M119.732,4.264 C118.82,4.264 118.076,4.564 117.524,5.188 C116.984,5.764 116.708,6.532 116.696,7.492 L118.004,7.492 C118.028,6.796 118.172,6.28 118.46,5.92 C118.736,5.548 119.144,5.368 119.684,5.368 C120.188,5.368 120.584,5.488 120.848,5.728 C121.112,5.968 121.244,6.328 121.244,6.808 C121.244,7.312 121.04,7.78 120.656,8.212 C120.416,8.464 120.008,8.788 119.432,9.196 C118.46,9.868 117.812,10.384 117.5,10.756 C116.924,11.404 116.648,12.148 116.648,13 L122.552,13 L122.552,11.848 L118.268,11.848 C118.448,11.38 119,10.84 119.924,10.228 C120.776,9.652 121.364,9.196 121.7,8.848 C122.252,8.236 122.54,7.564 122.54,6.82 C122.54,6.064 122.276,5.452 121.76,4.972 C121.232,4.492 120.548,4.264 119.732,4.264 L119.732,4.264 Z" id="2" fill="#899199"></path>
                    </g>
                    <g id="Group-4-Copy-2" transform="translate(387.000000, 216.000000)">
                        <g id="Group-Copy">
                            <g id="Rectangle-4">
                                <use fill="black" fill-opacity="1" filter="url(#filter-79)" xlink:href="#path-78"></use>
                                <use stroke="#899199" mask="url(#mask-80)" stroke-width="2" fill="#FFFFFF" fill-rule="evenodd" xlink:href="#path-78"></use>
                            </g>
                            <g id="Group-5" transform="translate(10.000000, 20.000000)" stroke-width="2">
                                <use id="Rectangle-5" stroke="#899199" mask="url(#mask-82)" fill="#F1F5F7" xlink:href="#path-81"></use>
                                <use id="Rectangle-12-Copy-2" stroke="#74A285" mask="url(#mask-84)" fill="#C1F1D4" xlink:href="#path-83"></use>
                                <use id="Rectangle-12" stroke="#FFFFFF" mask="url(#mask-86)" fill="#FFFFFF" xlink:href="#path-85"></use>
                                <use id="Rectangle-12-Copy-3" stroke="#FFFFFF" mask="url(#mask-88)" fill="#FFFFFF" xlink:href="#path-87"></use>
                                <use id="Rectangle-12-Copy-4" stroke="#FFFFFF" mask="url(#mask-90)" fill="#FFFFFF" xlink:href="#path-89"></use>
                            </g>
                        </g>
                    </g>
                    <g id="Group-4-Copy-3" transform="translate(491.000000, 0.000000)">
                        <g id="Group-Copy">
                            <g id="Rectangle-4">
                                <use fill="black" fill-opacity="1" filter="url(#filter-92)" xlink:href="#path-91"></use>
                                <use stroke="#899199" mask="url(#mask-93)" stroke-width="2" fill="#FFFFFF" fill-rule="evenodd" xlink:href="#path-91"></use>
                            </g>
                            <g id="Group-5" transform="translate(9.000000, 14.000000)" stroke-width="2">
                                <use id="Rectangle-12-Copy-2" stroke="#899199" mask="url(#mask-95)" fill="#F1F5F7" xlink:href="#path-94"></use>
                                <use id="Rectangle-12-Copy-7" stroke="#899199" mask="url(#mask-97)" fill="#FFFFFF" xlink:href="#path-96"></use>
                                <use id="Rectangle-12-Copy-8" stroke="#DDC488" mask="url(#mask-99)" fill="#FFF2C2" xlink:href="#path-98"></use>
                                <use id="Rectangle-12-Copy-5" stroke="#899199" mask="url(#mask-101)" fill="#F1F5F7" xlink:href="#path-100"></use>
                                <use id="Rectangle-12-Copy-6" stroke="#899199" mask="url(#mask-103)" fill="#F1F5F7" xlink:href="#path-102"></use>
                            </g>
                        </g>
                    </g>
                    <path d="M368,94 L490.53158,94" id="Path-23" stroke="#899199"></path>
                    <polyline id="Path-1" stroke="#899199" points="249 93 175.464154 93 175.464154 186 119 186"></polyline>
                    <circle id="Oval-1" fill="#899199" cx="250.5" cy="93" r="3"></circle>
                    <circle id="Oval-1-Copy-8" fill="#899199" cx="369.5" cy="94" r="3"></circle>
                    <circle id="Oval-1-Copy-9" fill="#899199" cx="491.5" cy="94" r="3"></circle>
                    <circle id="Oval-1-Copy-2" fill="#899199" cx="311.5" cy="161.5" r="3"></circle>
                    <circle id="Oval-1-Copy-3" fill="#899199" cx="235" cy="305" r="3"></circle>
                    <circle id="Oval-1-Copy-4" fill="#899199" cx="296.5" cy="371" r="3"></circle>
                    <circle id="Oval-1-Copy-5" fill="#899199" cx="387.5" cy="301" r="3"></circle>
                    <polyline id="Path-7" stroke-opacity="0.103600543" stroke="#979797" stroke-dasharray="2" points="119.951299 230.303268 342.834636 230.303268 342.834636 266.50814 388.330749 266.50814"></polyline>
                    <polyline id="Path-9" stroke-opacity="0.103600543" stroke="#979797" stroke-dasharray="2" points="250.733754 129.503959 206.686843 129.503959 206.686843 276.885419 387.729491 276.885419"></polyline>
                    <polyline id="Path-5" stroke-opacity="0.467929121" stroke="#B19D6D" stroke-dasharray="2" points="492.396822 67 444 67 444 215.63695"></polyline>
                    <polyline id="Path-3" stroke="#899199" points="311.421395 161.42602 311.421395 251.577916 235.101755 251.577916 235.101755 304.875665"></polyline>
                    <polyline id="Path-3" stroke="#899199" points="296.564603 370.920457 335.209241 370.920457 335.209241 301.285095 387.477944 301.285095"></polyline>
                    <circle id="Oval-1-Copy" fill="#899199" cx="119.5" cy="186" r="3"></circle>
                    <circle id="Oval-1-Copy-7" fill="#D7C685" cx="491.5" cy="67" r="3"></circle>
                    <circle id="Oval-1-Copy-6" fill="#D7C685" cx="444" cy="216" r="3"></circle>
                </g>
            </g>
        </g>
    </g>
</svg>