<?xml version="1.0" ?><svg viewBox="0 0 256 256" xmlns="http://www.w3.org/2000/svg"><path d="m149.28 70.48c-5.52-.32-8.57-6.79-8.57-6.79-3.14-5.5-7.41-7.48-12.92-4.34l-19.89 11.35c-5.5 3.14-7.23 5.79-5.45 12.39 0 0 3 6.21 2.34 10.49s-22.85 22.34-21.63 59.42c1.12 34.06 16.48 50.15 44.58 62.81 31.44 14.17 77.16 5.19 100-38 23.88-45.1-.93-82.06-33.25-98.9-23.8-12.48-39.69-8.11-45.21-8.43z" fill="#191919"/><path d="m157.57 230a80.88 80.88 0 0 1 -33.12-7c-33.88-15.26-48.16-35.5-49.29-69.84-1-31.45 13.15-50.29 20-59.34.59-.78 1.27-1.68 1.74-2.35a20.25 20.25 0 0 0 -1.59-4.92 8 8 0 0 1 -.54-1.44c-3.35-12.42 3.16-18 9.21-21.43l19.9-11.35c9.14-5.22 18.27-2.41 23.83 7.32a4.5 4.5 0 0 1  .27.52 6.55 6.55 0 0 0  1.91 2.26c.56 0 1.82-.08 2.94-.16 7.78-.57 24-1.76 45.43 9.42s37.56 29.33 43.9 49.68c5.94 19.08 3.43 39.85-7.27 60.06-18.03 34.05-48.68 48.57-77.32 48.57zm-47.57-149.62c1.22 2.69 3.6 8.87 2.66 14.52-.48 2.9-2.19 5.17-4.78 8.61-6.15 8.17-17.6 23.38-16.75 49.19.92 28 11.73 43.1 39.87 55.78 28 12.6 68.9 4.79 89.69-34.48 8.78-16.59 10.85-32.68 6.13-47.81-5.08-16.3-18.2-31-36-40.24-17.43-9.08-29.6-8.19-36.87-7.65a40.25 40.25 0 0 1 -5.15.17c-9.23-.54-14.06-8.86-15.15-11a7.21 7.21 0 0 0 -1.15-1.55 5.09 5.09 0 0 0 -.76.36l-19.9 11.35a14.33 14.33 0 0 0 -2.05 1.37 9.14 9.14 0 0 0  .21 1.38z" fill="#191919"/><path d="m74.75 66.52c-1.94 13.18-12.75 13.39-15.18 13.24-8.88-.55-14.9-5.59-8.34-9.55.43-.26.44-.47-.49-.49-65.17-1.29-55.74-15.72-.22-20.45.44 0 .48-.13.32-.39-14.07-23-13.39-37.25 13.43-10 .19.19.44.15.5-.09 4.4-17.97 14.74 10.39 12.39 18.21a67.07 67.07 0 0 0 -2.41 9.52z" fill="#e83a2a"/><path d="m115.41 79.23c-1.51-14.8-9.48-25.63-25.41-16.89-17.13 9.43-29.31 2.36-26.27-4.17 3.56-7.66 6.8 3.67 21.54-4.44 34.31-18.86 46.73 28.75 35.53 29.89a4.91 4.91 0 0 1 -5.39-4.39z" fill="#191919"/><path d="m149.28 70.48c-5.52-.32-8.57-6.79-8.57-6.79-3.14-5.5-7.41-7.48-12.92-4.34l-19.89 11.35c-5.5 3.14-7.23 5.79-5.45 12.39 0 0 3 6.21 2.34 10.49s-22.85 22.34-21.63 59.42c1.12 34.06 16.48 50.15 44.58 62.81 31.44 14.17 77.16 5.19 100-38 23.88-45.1-.93-82.06-33.25-98.9-23.8-12.48-39.69-8.11-45.21-8.43z" fill="#e83a2a"/><g><path d="m139.37 115.48c-4.21 3.21 2 60.95 4.91 64.14s49-31.67 48.55-37.14-49.25-30.21-53.46-27z" fill="#fff"/></g></svg>